<svg xmlns="http://www.w3.org/2000/svg" width="1440" height="715" viewBox="0 0 1440 715">
    <defs>
        <linearGradient id="a" x1="91.715%" x2="2.105%" y1="107.565%" y2="8.976%">
            <stop offset="0%" stop-color="#3453E6"/>
            <stop offset="100%" stop-color="#14A8FF"/>
        </linearGradient>
        <linearGradient id="b" x1="89.499%" x2="4.649%" y1="107.565%" y2="8.976%">
            <stop offset="0%" stop-color="#F7B500"/>
            <stop offset="100%" stop-color="#FFF614"/>
        </linearGradient>
        <linearGradient id="c" x1="89.085%" x2="5.125%" y1="107.565%" y2="8.976%">
            <stop offset="0%" stop-color="#3453E6"/>
            <stop offset="100%" stop-color="#14A8FF"/>
        </linearGradient>
        <linearGradient id="d" x1="50%" x2="50%" y1="0%" y2="100%">
            <stop offset="0%" stop-color="#FFDB87"/>
            <stop offset="100%" stop-color="#FFB54F"/>
        </linearGradient>
        <linearGradient id="e" x1="50%" x2="50%" y1="0%" y2="100%">
            <stop offset="0%" stop-color="#51EFBF"/>
            <stop offset="100%" stop-color="#28DA8B"/>
        </linearGradient>
        <linearGradient id="f" x1="50%" x2="50%" y1="0%" y2="100%">
            <stop offset="0%" stop-color="#FFA987"/>
            <stop offset="100%" stop-color="#FF704F"/>
        </linearGradient>
    </defs>
    <g fill="none" fill-rule="evenodd" transform="translate(-.051)">
        <path fill="#FFF" d="M.051 0h1440v715H.051z"/>
        <rect width="46" height="47" x="1054.899" y="204.373" fill="url(#a)" fill-rule="nonzero" rx="8" transform="rotate(-43 1077.9 227.873)"/>
        <rect width="40" height="42" x="272" y="550.998" fill="url(#b)" fill-rule="nonzero" rx="3.2" transform="rotate(-43 292 571.998)"/>
        <rect width="18" height="19" x="268" y="578.998" fill="url(#c)" fill-rule="nonzero" rx="3.2" transform="rotate(-43 277 588.498)"/>
        <path stroke="#FEAD9E" stroke-dasharray="2" d="M290.051 449.711c78.692 17.687 175.779-120.285 100.514-87.182-75.264 33.102 112.486 61.095 173.459 10.017 40.648-34.051 27.492-74.805-39.47-122.261"/>
        <circle cx="1098.051" cy="209" r="11" fill="url(#d)"/>
        <circle cx="1185.051" cy="442" r="9" fill="url(#e)"/>
        <g fill-rule="nonzero" transform="scale(-1 1) rotate(12 -1318.989 -2481.793)">
            <path fill="#F9BB32" d="M14 21.78l6.446 13.972a.422.422 0 0 0 .78-.027l3.99-10.403L45 0 14 21.78z"/>
            <path fill="#FFDF74" d="M13.732 22L1.098 20.113c-1.303-.195-1.508-2.02-.282-2.508L45 0 13.732 22z"/>
            <path fill="#FFA730" d="M21.197 35.951L45 0 25.042 25.398l-4.034 10.454c-.046.12.118.207.189.1z"/>
            <path fill="#FFDF74" d="M25 25.499l14.544 8.33c.805.462 1.814-.061 1.914-.991L45 0 25 25.499z"/>
            <circle cx="10.5" cy="18.5" r="1.5" fill="#FFD551"/>
            <path fill="#FFD551" d="M3.92 18.301L37.38 5.248 45 0 .816 17.236c-1.226.478-1.02 2.265.282 2.456l2.11.308c-.256-.61-.045-1.403.712-1.699z"/>
            <path fill="#FFF4C1" d="M41.433 13a.31.31 0 0 1-.047-.004c-.238-.037-.41-.342-.383-.681l.134-1.764c.026-.34.24-.584.477-.547.238.037.41.342.383.681l-.134 1.764c-.024.316-.212.551-.43.551zM39.647 29a.695.695 0 0 1-.07-.004c-.356-.036-.612-.337-.573-.672l1.708-14.78c.038-.335.357-.577.712-.54.355.036.61.337.572.672l-1.707 14.78c-.037.312-.317.544-.642.544z"/>
        </g>
        <circle cx="366.051" cy="252" r="9" fill="url(#f)"/>
    </g>
</svg>
