<?xml version="1.0" encoding="UTF-8" standalone="no"?>
<svg width="1445px" height="357px" viewBox="0 0 1445 357" version="1.1" xmlns="http://www.w3.org/2000/svg" xmlns:xlink="http://www.w3.org/1999/xlink">
    <!-- Generator: Sketch 46.2 (44496) - http://www.bohemiancoding.com/sketch -->
    <title>hero-illo copy</title>
    <desc>Created with Sketch.</desc>
    <defs></defs>
    <g id="Page-2" stroke="none" stroke-width="1" fill="none" fill-rule="evenodd">
        <g id="hero-illo-copy" transform="translate(1.000000, 1.000000)">
            <polyline id="Shape" stroke="#7202bb" points="1156 174 1156 210.349515 1072.88103 210.349515 1072.88103 252 1015 252"></polyline>
            <circle id="Oval" stroke="#3264f5" cx="1156.5" cy="169.5" r="2.5"></circle>
            <circle id="Oval" stroke="#3264f5" cx="1129.5" cy="266.5" r="2.5"></circle>
            <circle id="Oval" stroke="#3264f5" cx="307.5" cy="125.5" r="2.5"></circle>
            <circle id="Oval" stroke="#3264f5" cx="347.5" cy="75.5" r="2.5"></circle>
            <circle id="Oval" stroke="#3264f5" cx="363.5" cy="299.5" r="2.5"></circle>
            <circle id="Oval" stroke="#3264f5" cx="1092.5" cy="184.5" r="2.5"></circle>
            <circle id="Oval" stroke="#3264f5" cx="1062.5" cy="49.5" r="2.5"></circle>
            <circle id="Oval" stroke="#3264f5" cx="1251.5" cy="287.5" r="2.5"></circle>
            <circle id="Oval" stroke="#3264f5" cx="322.5" cy="190.5" r="2.5"></circle>
            <circle id="Oval" stroke="#3264f5" cx="258.5" cy="293.5" r="2.5"></circle>
            <polyline id="Shape" stroke="#7202bb" points="424 222 374.454545 222 374.454545 190 329 190"></polyline>
            <polyline id="Shape" stroke="#7202bb" stroke-width="2" points="424 274 303.841429 274 303.841429 293 265 293"></polyline>
            <g id="Group" transform="translate(1174.000000, 84.000000)" stroke="#3264f5">
                <circle id="Oval" stroke-width="0.99999041" transform="translate(14.122792, 30.505996) rotate(-45.000000) translate(-14.122792, -30.505996) " cx="14.1227924" cy="30.5059958" r="9.91515915"></circle>
                <circle id="Oval" stroke-width="0.99999041" transform="translate(38.985903, 5.641421) rotate(-45.000000) translate(-38.985903, -5.641421) " cx="38.9859025" cy="5.64142119" r="3.81352275"></circle>
                <path d="M19.4491525,25.1694915 L14.1101695,30.5084746" id="Shape"></path>
                <path d="M35.1610169,9.45762712 L22.7288136,21.8135593" id="Shape"></path>
            </g>
            <g id="Group" transform="translate(1014.000000, 117.000000)" stroke="#3264f5">
                <ellipse id="Oval" cx="115.05" cy="2.53" rx="2.26923077" ry="2.3"></ellipse>
                <ellipse id="Oval" cx="87.2897436" cy="20.7" rx="2.26923077" ry="2.3"></ellipse>
                <polyline id="Shape" points="0.226923077 2.53 36.0051282 2.53 53.9320513 20.7 82.3730769 20.7"></polyline>
                <path d="M40.3166667,2.53 L110.133333,2.53" id="Shape"></path>
            </g>
            <g id="Group" transform="translate(225.000000, 97.000000)" stroke="#3264f5">
                <ellipse id="Oval" cx="2.82941176" cy="2.40941176" rx="2.29411765" ry="2.25882353"></ellipse>
                <polyline id="Shape" points="26 63.3976471 26 24.9976471 6.5 5.79764706"></polyline>
            </g>
            <g id="Group" transform="translate(1136.000000, 289.000000)" stroke="#3264f5">
                <ellipse id="Oval" cx="23.4" cy="2.736" rx="2.29411765" ry="2.28"></ellipse>
                <polyline id="Shape" points="0.229411765 37.772 0.229411765 25.536 19.7294118 6.156"></polyline>
            </g>
            <polygon id="Shape" stroke="#7202bb" stroke-width="2" points="1105 73 1131.4623 31 1158 73"></polygon>
            <polygon id="Shape" stroke="#7202bb" points="316 222 299.538462 248 283 222"></polygon>
            <polyline id="Shape" stroke="#7202bb" points="1076 252 1114.7538 252 1126 263"></polyline>
            <polyline id="Shape" stroke="#7202bb" stroke-width="2" points="79.4075419 271 191.592458 271 271 191.592458 271 79.4075419 191.592458 0 79.4075419 0 0 79.4075419 0 191.592458"></polyline>
            <g id="Group" transform="translate(190.000000, 138.000000)">
                <path d="M13.875,26.85 C6.45,26.85 0.45,20.85 0.45,13.425 C0.45,6 6.45,0 13.875,0 C21.3,0 27.3,6 27.3,13.425" id="Shape" stroke="#3264f5"></path>
                <rect id="Rectangle-path" stroke="#3264f5" x="19.125" y="18.675" width="13.725" height="13.725"></rect>
                <circle id="Oval" fill="#3C376E" fill-rule="nonzero" cx="25.95" cy="25.575" r="2.7"></circle>
            </g>
            <circle id="Oval" stroke="#7202bb" cx="1317" cy="229" r="126"></circle>
            <g id="Group" transform="translate(198.000000, 200.000000)" stroke="#7202bb">
                <path d="M0.363636364,0.581818182 L7.63636364,7.85454545" id="Shape"></path>
                <path d="M0.363636364,7.85454545 L2.54545455,5.67272727" id="Shape"></path>
                <path d="M5.45454545,2.76363636 L7.63636364,0.581818182" id="Shape"></path>
            </g>
            <g id="Group" transform="translate(1227.000000, 218.000000)" stroke="#7202bb">
                <path d="M0.0727272727,0 L7.34545455,8" id="Shape"></path>
                <path d="M0.0727272727,8 L2.25454545,5.6" id="Shape"></path>
                <path d="M5.16363636,2.4 L7.34545455,0" id="Shape"></path>
            </g>
            <g id="Group" transform="translate(1052.000000, 287.000000)" stroke="#7202bb">
                <path d="M4.74117647,4.425 L2.98235294,2.7" id="Shape"></path>
                <path d="M6.34705882,0 L6.34705882,3.825" id="Shape"></path>
                <path d="M7.87647059,4.425 L9.63529412,2.7" id="Shape"></path>
                <path d="M12.4647059,6 L8.56470588,6" id="Shape"></path>
                <path d="M4.05294118,6 L0.229411765,6" id="Shape"></path>
                <path d="M9.63529412,9.3 L7.87647059,7.575" id="Shape"></path>
                <path d="M6.34705882,12 L6.34705882,8.175" id="Shape"></path>
                <path d="M4.74117647,7.575 L2.98235294,9.3" id="Shape"></path>
            </g>
            <g id="Group" transform="translate(394.000000, 172.000000)" stroke="#7202bb">
                <path d="M4.425,5.2 L2.7,3.44117647" id="Shape"></path>
                <path d="M6,0.611764706 L6,4.51176471" id="Shape"></path>
                <path d="M7.575,5.2 L9.225,3.44117647" id="Shape"></path>
                <path d="M12,6.72941176 L8.175,6.72941176" id="Shape"></path>
                <path d="M3.825,6.72941176 L0,6.72941176" id="Shape"></path>
                <path d="M9.225,10.0941176 L7.575,8.33529412" id="Shape"></path>
                <path d="M6,12.8470588 L6,9.02352941" id="Shape"></path>
                <path d="M4.425,8.33529412 L2.7,10.0941176" id="Shape"></path>
            </g>
            <polyline id="Shape" stroke="#7202bb" points="205 283 205 301.0053 180 326"></polyline>
            <polyline id="Shape" stroke="#7202bb" points="424 106 378.110883 106 350 78"></polyline>
        </g>
    </g>
</svg>