<svg width="291" height="433" viewBox="0 0 291 433" fill="none" xmlns="http://www.w3.org/2000/svg">
<path fill-rule="evenodd" clip-rule="evenodd" d="M11.3596 244.15V245.192C11.512 246.005 12.0136 246.694 12.7033 247.099H15.5596C16.3925 246.61 16.9514 245.706 16.9514 244.671C16.9514 243.116 15.6886 241.858 14.1321 241.858C12.7526 241.858 11.6045 242.845 11.3596 244.15ZM35.2642 247.099H38.1205C38.9534 246.61 39.5123 245.706 39.5123 244.671C39.5123 243.116 38.2495 241.858 36.693 241.858C35.1346 241.858 33.8718 243.116 33.8718 244.671C33.8718 245.706 34.4319 246.61 35.2648 247.099H35.2642ZM57.8251 247.099H60.6814C61.5143 246.61 62.0732 245.706 62.0732 244.671C62.0732 243.116 60.8103 241.858 59.2526 241.858C57.6955 241.858 56.4333 243.116 56.4333 244.671C56.4333 245.706 56.9916 246.61 57.8251 247.099V247.099ZM73.2407 234.205V232.624C72.8983 231.455 71.8156 230.601 70.5324 230.601C68.9759 230.601 67.7131 231.861 67.7131 233.415C67.7131 234.97 68.9759 236.229 70.5324 236.229C71.8156 236.229 72.8983 235.375 73.2407 234.205ZM11.3596 221.638V222.68C11.6045 223.986 12.7526 224.973 14.1315 224.973C15.6886 224.973 16.9508 223.714 16.9508 222.16C16.9508 220.606 15.6886 219.345 14.1315 219.345C12.7526 219.345 11.6045 220.332 11.3596 221.638V221.638ZM73.2407 211.693V210.112C72.8983 208.944 71.8156 208.089 70.5324 208.089C68.9759 208.089 67.7131 209.349 67.7131 210.904C67.7131 212.458 68.9759 213.717 70.5324 213.717C71.8156 213.717 72.8983 212.864 73.2407 211.694V211.693ZM11.3596 199.125V200.169C11.6045 201.474 12.7526 202.461 14.1315 202.461C15.6886 202.461 16.9508 201.201 16.9508 199.648C16.9508 198.093 15.6886 196.833 14.1315 196.833C12.7526 196.833 11.6045 197.82 11.3596 199.126V199.125ZM73.2407 189.181V187.6C72.8983 186.43 71.8156 185.576 70.5324 185.576C68.9759 185.576 67.7131 186.836 67.7131 188.389C67.7131 189.944 68.9759 191.204 70.5324 191.204C71.8156 191.204 72.8983 190.35 73.2407 189.18V189.181ZM25.4119 230.601C23.8542 230.601 22.5926 231.861 22.5926 233.416C22.5926 234.971 23.8542 236.229 25.4119 236.229C26.969 236.229 28.2312 234.971 28.2312 233.416C28.2312 231.861 26.969 230.602 25.4119 230.602V230.601ZM47.9728 230.601C46.4151 230.601 45.1522 231.861 45.1522 233.416C45.1522 234.971 46.4151 236.229 47.9715 236.229C49.5299 236.229 50.7927 234.971 50.7927 233.416C50.7927 231.861 49.5293 230.602 47.9715 230.602L47.9728 230.601ZM36.6917 219.345C35.134 219.345 33.8712 220.605 33.8712 222.16C33.8712 223.713 35.1346 224.973 36.6923 224.973C38.2495 224.973 39.5117 223.713 39.5117 222.16C39.5117 220.605 38.2495 219.345 36.6923 219.345L36.6917 219.345ZM59.2526 219.345C57.6949 219.345 56.432 220.605 56.432 222.16C56.432 223.713 57.6955 224.973 59.2526 224.973C60.8103 224.973 62.0732 223.713 62.0732 222.16C62.0732 220.605 60.8103 219.345 59.2526 219.345V219.345ZM25.4113 208.088C23.8536 208.088 22.5919 209.348 22.5919 210.903C22.5919 212.457 23.8536 213.716 25.4113 213.716C26.9684 213.716 28.2306 212.457 28.2306 210.903C28.2306 209.348 26.9684 208.088 25.4113 208.088V208.088ZM47.9722 208.088C46.4144 208.088 45.1516 209.348 45.1516 210.903C45.1516 212.457 46.4144 213.716 47.9709 213.716C49.5293 213.716 50.7921 212.457 50.7921 210.903C50.7921 209.348 49.5287 208.088 47.9709 208.088L47.9722 208.088ZM36.6917 196.832C35.134 196.832 33.8712 198.093 33.8712 199.647C33.8712 201.201 35.1346 202.46 36.6923 202.46C38.2495 202.46 39.5117 201.201 39.5117 199.647C39.5117 198.092 38.2495 196.832 36.6923 196.832H36.6917ZM59.2526 196.832C57.6949 196.832 56.432 198.093 56.432 199.647C56.432 201.201 57.6955 202.46 59.2526 202.46C60.8103 202.46 62.0732 201.201 62.0732 199.647C62.0732 198.092 60.8103 196.832 59.2526 196.832ZM25.4113 185.576C23.8536 185.576 22.5919 186.836 22.5919 188.389C22.5919 189.944 23.8536 191.204 25.4113 191.204C26.9684 191.204 28.2306 189.944 28.2306 188.39C28.2306 186.836 26.9684 185.575 25.4113 185.575V185.576ZM47.9722 185.576C46.4144 185.576 45.1516 186.836 45.1516 188.389C45.1516 189.944 46.4144 191.204 47.9709 191.204C49.5293 191.204 50.7921 189.944 50.7921 188.39C50.7921 186.836 49.5287 185.575 47.9709 185.575L47.9722 185.576Z" fill="#B0BBFF"/>
<path fill-rule="evenodd" clip-rule="evenodd" d="M86.187 114.737V172.629H144.08V114.737H86.187ZM66.8895 85.7903C61.5606 85.7903 57.2407 90.1102 57.2407 95.439V191.927C57.2407 197.256 61.5606 201.575 66.8895 201.575H163.377C168.706 201.575 173.026 197.256 173.026 191.927V95.439C173.026 90.1102 168.706 85.7903 163.377 85.7903H66.8895Z" fill="#EDF1FF"/>
</svg>
