<svg width="237" height="427" viewBox="0 0 237 427" fill="none" xmlns="http://www.w3.org/2000/svg">
<g clip-path="url(#clip0)">
<path d="M186.782 260.95C209.245 260.95 227.456 242.722 227.456 220.234C227.456 197.748 209.245 179.519 186.782 179.519C164.317 179.519 146.108 197.747 146.108 220.234C146.108 242.722 164.317 260.95 186.782 260.95V260.95ZM186.782 301.666C141.853 301.666 105.432 265.208 105.432 220.235C105.432 175.261 141.853 138.803 186.78 138.803C231.709 138.803 268.13 175.262 268.13 220.233C268.13 265.208 231.709 301.666 186.782 301.666V301.666Z" fill="#AAE7ED"/>
<rect opacity="0.5" x="42.8611" y="345.66" width="46.9644" height="46.9644" rx="3.9137" fill="#FFE697"/>
<path fill-rule="evenodd" clip-rule="evenodd" d="M20.9604 320.648L19.9179 320.648C18.6124 320.893 17.6247 322.041 17.6247 323.42C17.6247 324.977 18.8845 326.239 20.4379 326.239C21.9926 326.239 23.2529 324.977 23.2529 323.42C23.2529 322.041 22.2659 320.893 20.9604 320.648ZM43.4732 320.648L42.4294 320.648C41.124 320.893 40.1369 322.041 40.1369 323.42C40.1369 324.977 41.3967 326.239 42.9501 326.239C44.5047 326.239 45.7651 324.977 45.7651 323.42C45.7651 322.041 44.7786 320.893 43.4732 320.648ZM23.2529 345.98C23.2529 344.423 21.9932 343.16 20.4385 343.16C18.8851 343.16 17.6254 344.423 17.6254 345.981C17.6254 347.538 18.8851 348.8 20.4385 348.8C21.9932 348.8 23.2529 347.537 23.2529 345.98ZM34.5106 334.7C34.5106 333.142 33.2502 331.881 31.6955 331.881C30.1409 331.881 28.8824 333.142 28.8824 334.7C28.8824 336.257 30.1409 337.519 31.6955 337.519C33.2502 337.519 34.5106 336.257 34.5106 334.7ZM34.5106 357.261C34.5106 355.703 33.2502 354.44 31.6955 354.44C30.1409 354.44 28.8824 355.703 28.8824 357.26C28.8824 358.818 30.1409 360.081 31.6955 360.081C33.2502 360.081 34.5099 358.817 34.5099 357.26L34.5106 357.261ZM45.7657 345.98C45.7657 344.423 44.5053 343.16 42.9513 343.16C41.3967 343.16 40.1381 344.423 40.1381 345.981C40.1381 347.538 41.3967 348.8 42.9513 348.8C44.5059 348.8 45.7657 347.537 45.7657 345.98ZM57.0221 334.7C57.0221 333.142 55.7623 331.881 54.2089 331.881C52.6543 331.881 51.3945 333.142 51.3945 334.7C51.3945 336.257 52.6543 337.519 54.2077 337.519C55.7623 337.519 57.0221 336.257 57.0221 334.7ZM57.0221 357.261C57.0221 355.703 55.7623 354.44 54.2089 354.44C52.6543 354.44 51.3945 355.703 51.3945 357.26C51.3945 358.818 52.6543 360.081 54.2077 360.081C55.7623 360.081 57.0227 358.817 57.0227 357.26L57.0221 357.261Z" fill="#FFF2CB"/>
<mask id="mask0" mask-type="alpha" maskUnits="userSpaceOnUse" x="77" y="112" width="73" height="73">
<circle cx="113.829" cy="148.667" r="36.1439" fill="#C4C4C4"/>
</mask>
<g mask="url(#mask0)">
<path fill-rule="evenodd" clip-rule="evenodd" d="M82.6074 176.246V177.289C82.7598 178.101 83.2614 178.79 83.9511 179.195H86.8074C87.6403 178.706 88.1992 177.802 88.1992 176.767C88.1992 175.213 86.9364 173.954 85.3799 173.954C84.0004 173.954 82.8523 174.941 82.6074 176.246ZM106.512 179.195H109.368C110.201 178.706 110.76 177.802 110.76 176.767C110.76 175.213 109.497 173.954 107.941 173.954C106.382 173.954 105.12 175.213 105.12 176.767C105.12 177.802 105.679 178.706 106.512 179.195ZM129.073 179.195H131.929C132.762 178.706 133.321 177.802 133.321 176.767C133.321 175.213 132.058 173.954 130.5 173.954C128.943 173.954 127.681 175.213 127.681 176.767C127.681 177.802 128.239 178.706 129.073 179.195ZM144.489 166.301V164.721C144.146 163.552 143.063 162.697 141.78 162.697C140.224 162.697 138.961 163.957 138.961 165.512C138.961 167.066 140.224 168.325 141.78 168.325C143.063 168.325 144.146 167.471 144.489 166.301ZM82.6074 153.734V154.776C82.8523 156.082 84.0004 157.07 85.3793 157.07C86.9364 157.07 88.1986 155.81 88.1986 154.256C88.1986 152.702 86.9364 151.441 85.3793 151.441C84.0004 151.441 82.8523 152.428 82.6074 153.734ZM144.489 143.789V142.209C144.146 141.04 143.063 140.185 141.78 140.185C140.224 140.185 138.961 141.445 138.961 143C138.961 144.555 140.224 145.813 141.78 145.813C143.063 145.813 144.146 144.959 144.489 143.789ZM82.6074 131.221V132.265C82.8523 133.57 84.0004 134.557 85.3793 134.557C86.9364 134.557 88.1986 133.298 88.1986 131.744C88.1986 130.19 86.9364 128.929 85.3793 128.929C84.0004 128.929 82.8523 129.916 82.6074 131.221ZM144.489 121.277V119.696C144.146 118.526 143.063 117.672 141.78 117.672C140.224 117.672 138.961 118.932 138.961 120.485C138.961 122.04 140.224 123.3 141.78 123.3C143.063 123.3 144.146 122.447 144.489 121.277ZM96.6597 162.697C95.102 162.697 93.8404 163.958 93.8404 165.512C93.8404 167.067 95.102 168.325 96.6597 168.325C98.2168 168.325 99.479 167.067 99.479 165.512C99.479 163.958 98.2168 162.697 96.6597 162.697ZM119.221 162.697C117.663 162.697 116.4 163.958 116.4 165.512C116.4 167.067 117.663 168.325 119.219 168.325C120.778 168.325 122.041 167.067 122.041 165.512C122.041 163.958 120.777 162.698 119.219 162.698L119.221 162.697ZM107.94 151.441C106.382 151.441 105.119 152.701 105.119 154.256C105.119 155.809 106.382 157.069 107.94 157.069C109.497 157.069 110.759 155.809 110.759 154.256C110.759 152.701 109.497 151.441 107.94 151.441ZM130.5 151.441C128.943 151.441 127.68 152.701 127.68 154.256C127.68 155.809 128.943 157.069 130.5 157.069C132.058 157.069 133.321 155.809 133.321 154.256C133.321 152.701 132.058 151.441 130.5 151.441ZM96.6591 140.184C95.1014 140.184 93.8397 141.444 93.8397 142.999C93.8397 144.553 95.1014 145.812 96.6591 145.812C98.2162 145.812 99.4784 144.553 99.4784 142.999C99.4784 141.444 98.2162 140.184 96.6591 140.184ZM119.22 140.184C117.662 140.184 116.399 141.444 116.399 142.999C116.399 144.553 117.662 145.812 119.219 145.812C120.777 145.812 122.04 144.553 122.04 142.999C122.04 141.444 120.776 140.184 119.219 140.184L119.22 140.184ZM107.94 128.929C106.382 128.929 105.119 130.189 105.119 131.743C105.119 133.298 106.382 134.556 107.94 134.556C109.497 134.556 110.759 133.298 110.759 131.743C110.759 130.188 109.497 128.929 107.94 128.929ZM130.5 128.929C128.943 128.929 127.68 130.189 127.68 131.743C127.68 133.298 128.943 134.556 130.5 134.556C132.058 134.556 133.321 133.298 133.321 131.743C133.321 130.188 132.058 128.929 130.5 128.929ZM96.6591 117.672C95.1014 117.672 93.8397 118.932 93.8397 120.485C93.8397 122.04 95.1014 123.3 96.6591 123.3C98.2162 123.3 99.4784 122.04 99.4784 120.487C99.4784 118.932 98.2162 117.672 96.6591 117.672ZM119.22 117.672C117.662 117.672 116.399 118.932 116.399 120.485C116.399 122.04 117.662 123.3 119.219 123.3C120.777 123.3 122.04 122.04 122.04 120.487C122.04 118.932 120.776 117.672 119.219 117.672L119.22 117.672Z" fill="#AAE7ED"/>
<path fill-rule="evenodd" clip-rule="evenodd" d="M129.073 179.195H131.929C132.762 178.706 133.321 177.802 133.321 176.767C133.321 175.213 132.058 173.954 130.5 173.954C128.943 173.954 127.681 175.213 127.681 176.767C127.681 177.802 128.239 178.706 129.073 179.195ZM144.489 166.301V164.721C144.146 163.552 143.064 162.697 141.78 162.697C140.224 162.697 138.961 163.957 138.961 165.512C138.961 167.066 140.224 168.325 141.78 168.325C143.064 168.325 144.146 167.471 144.489 166.301Z" fill="white"/>
</g>
</g>
<defs>
<clipPath id="clip0">
<rect width="236" height="427" fill="white" transform="translate(0.607422)"/>
</clipPath>
</defs>
</svg>
