<?xml version="1.0" encoding="utf-8"?>
<!-- Generator: Adobe Illustrator 21.0.0, SVG Export Plug-In . SVG Version: 6.00 Build 0)  -->
<svg version="1.1" id="Capa_1" xmlns="http://www.w3.org/2000/svg" xmlns:xlink="http://www.w3.org/1999/xlink" x="0px" y="0px"
	 viewBox="0 0 350 355.5" style="enable-background:new 0 0 350 355.5;" xml:space="preserve">
<style type="text/css">
	.st0{opacity:0.5;}
	.st1{opacity:0.43;fill:#DDD6FF;enable-background:new    ;}
	.st2{fill:#DDD6FF;}
	.st3{fill:#BED0FC;}
	.st4{fill:#FAFAFA;}
	.st5{fill:url(#SVGID_1_);}
	.st6{fill:url(#SVGID_2_);}
	.st7{fill:#D6D4FF;}
	.st8{opacity:0.25;}
	.st9{fill:none;stroke:#FFFFFF;stroke-width:0.7496;stroke-linecap:round;stroke-linejoin:round;stroke-miterlimit:10;}
	.st10{fill:#BFB8F4;}
	.st11{fill:#7324C8;}
	.st12{fill:#38173E;}
	.st13{fill:#B6C5FF;}
	.st14{clip-path:url(#SVGID_4_);}
	.st15{fill:#FFC78D;}
	.st16{fill:#FFAEAB;}
	.st17{fill:#FB8C89;}
	.st18{fill:#FFC54F;}
	.st19{fill:#539E92;}
	.st20{clip-path:url(#SVGID_6_);}
	.st21{clip-path:url(#SVGID_13_);}
	.st22{clip-path:url(#SVGID_14_);}
	.st23{clip-path:url(#SVGID_15_);}
	.st24{clip-path:url(#SVGID_16_);}
	.st25{clip-path:url(#SVGID_17_);}
	.st26{clip-path:url(#SVGID_18_);fill:#FFFFFF;}
	.st27{fill:#E6E6E6;}
	.st28{fill:#FFFFFF;}
	.st29{fill:#AA435D;}
	.st30{fill:#3461F3;}
	.st31{fill:#E2E9F7;}
	.st32{opacity:0.7;}
	.st33{fill:#C9C2FF;}
	.st34{fill:#F2F0FF;}
	.st35{fill:#1C4ABA;}
	.st36{fill:#5682EF;}
	.st37{fill:#4ACCFF;}
</style>
<g class="st0">
	<path class="st1" d="M117,266v-30.1l-21.6,22.2v37H81.6v-53h-3.5L68,233.3l-10.2,8.9h-3.4v71.6H26.6l0,0H3.3v39h147.4V266H117z
		 M78,285.1H57.9v-1.9H78V285.1z M78,281.1H57.9v-1.9H78V281.1z M78,277.3H57.9v-1.9H78V277.3z M78,273.4H57.9v-1.9H78V273.4z
		 M78,269.5H57.9v-1.9H78V269.5z M78,265.6H57.9v-1.9H78V265.6z M78,261.8H57.9v-1.9H78V261.8z M78,257.9H57.9V256H78V257.9z
		 M78,254H57.9v-1.9H78V254z M78,250.2H57.9v-1.9H78V250.2z M78,246.3H57.9v-1.9H78V246.3z M114.2,340.7h-2.1v-95.4l2.1-2.2V340.7z"
		/>
	<path class="st1" d="M269.3,266v-30.1l-21.6,22.2v37h-13.9v-53h-3.5l-10.1-8.9l-10.1,8.9h-3.4v71.6h-27.8l0,0h-23.4v39H303V266
		H269.3z M230.2,285.1h-20.1v-1.9h20.1V285.1z M230.2,281.1h-20.1v-1.9h20.1V281.1z M230.2,277.3h-20.1v-1.9h20.1V277.3z
		 M230.2,273.4h-20.1v-1.9h20.1V273.4z M230.2,269.5h-20.1v-1.9h20.1V269.5z M230.2,265.6h-20.1v-1.9h20.1V265.6z M230.2,261.8
		h-20.1v-1.9h20.1V261.8z M230.2,257.9h-20.1V256h20.1V257.9z M230.2,254h-20.1v-1.9h20.1V254z M230.2,250.2h-20.1v-1.9h20.1V250.2z
		 M230.2,246.3h-20.1v-1.9h20.1V246.3z M266.6,340.7h-2.1v-95.4l2.1-2.2V340.7z"/>
	<path class="st2" d="M214.2,316.4v-67.8H211v-6.9h-25v6.9h-3.2v85.4h-23.5v-38.6H125V346h-16.6v-90.9H74.7V325h-3.9v-41.5h-6.1
		l-17-8.5v8.5H44v51.4h-8.2v-69.5h-8.4v-24.4h-1.1v24.4h-8.3v87.8h217.4v-36.5h-21.1V316.4z M33.7,309.9H19.9v-1.5h13.8V309.9z
		 M33.7,306.3H19.9v-1.5h13.8V306.3z M33.7,302.9H19.9v-1.5h13.8V302.9z M33.7,299.4H19.9v-1.5h13.8V299.4z M33.7,295.9H19.9v-1.5
		h13.8V295.9z M33.7,292.3H19.9v-1.5h13.8V292.3z M33.7,288.9H19.9v-1.5h13.8V288.9z M33.7,285.4H19.9v-1.5h13.8V285.4z M33.7,281.9
		H19.9v-1.5h13.8V281.9z M33.7,278.4H19.9v-1.5h13.8V278.4z M33.7,274.9H19.9v-1.5h13.8V274.9z M33.7,271.4H19.9v-1.5h13.8V271.4z
		 M33.7,267.9H19.9v-1.5h13.8V267.9z M82,288.7h-4.1v-3.8H82V288.7z M82,282.3h-4.1v-3.8H82V282.3z M82,275.8h-4.1v-3.8H82V275.8z
		 M82,269.3h-4.1v-3.8H82V269.3z M82,262.9h-4.1V259H82V262.9z M89.8,288.7h-4.2v-3.8h4.1L89.8,288.7L89.8,288.7z M89.8,282.3h-4.2
		v-3.8h4.1L89.8,282.3L89.8,282.3z M89.8,275.8h-4.2v-3.8h4.1L89.8,275.8L89.8,275.8z M89.8,269.3h-4.2v-3.8h4.1L89.8,269.3
		L89.8,269.3z M89.8,262.9h-4.2V259h4.1L89.8,262.9L89.8,262.9z M97.6,288.7h-4.1v-3.8h4.1V288.7z M97.6,282.3h-4.1v-3.8h4.1V282.3z
		 M97.6,275.8h-4.1v-3.8h4.1V275.8z M97.6,269.3h-4.1v-3.8h4.1V269.3z M97.6,262.9h-4.1V259h4.1V262.9z M105.4,288.7h-4.1v-3.8h4.1
		V288.7z M105.4,282.3h-4.1v-3.8h4.1V282.3z M105.4,275.8h-4.1v-3.8h4.1V275.8z M105.4,269.3h-4.1v-3.8h4.1V269.3z M217.4,348.4
		h-4.2v-4h4.2V348.4z M217.4,340.3h-4.2v-4h4.2V340.3z M217.4,332.3h-4.2v-4h4.2V332.3z M217.4,324.2h-4.2v-4h4.2V324.2z
		 M225.4,348.4h-4.2v-4h4.2V348.4z M225.4,340.3h-4.2v-4h4.2V340.3z M225.4,332.3h-4.2v-4h4.2V332.3z M225.4,324.2h-4.2v-4h4.2
		V324.2z M233.3,348.4H229v-4h4.2V348.4z M233.3,340.3H229v-4h4.2V340.3z M233.3,332.3H229v-4h4.2V332.3z M233.3,324.2H229v-4h4.2
		V324.2z"/>
	<path class="st2" d="M314.2,309.2v-60.6H311v-6.9h-25v6.9h-3.2v85.4h-23.5v-38.6H225V346h-16.6v-90.9h-33.7V325h-3.9v-41.5h-6.1
		l-17-8.5v8.5h-3.7v51.4h-8.2v-69.5h-8.3v-24.4h-1.1v24.4h-8.3v87.8h217.4v-43.7h-21.3V309.2z M133.8,309.9H120v-1.5h13.8V309.9z
		 M133.8,306.3H120v-1.5h13.8V306.3z M133.8,302.9H120v-1.5h13.8V302.9z M133.8,299.4H120v-1.5h13.8V299.4z M133.8,295.9H120v-1.5
		h13.8V295.9z M133.8,292.3H120v-1.5h13.8V292.3z M133.8,288.9H120v-1.5h13.8V288.9z M133.8,285.4H120v-1.5h13.8V285.4z
		 M133.8,281.9H120v-1.5h13.8V281.9z M133.8,278.4H120v-1.5h13.8V278.4z M133.8,274.9H120v-1.5h13.8V274.9z M133.8,271.4H120v-1.5
		h13.8V271.4z M133.8,267.9H120v-1.5h13.8V267.9z M182,288.7h-4.1v-3.8h4.1V288.7z M182,282.3h-4.1v-3.8h4.1V282.3z M182,275.8h-4.1
		v-3.8h4.1V275.8z M182,269.3h-4.1v-3.8h4.1V269.3z M182,262.9h-4.1V259h4.1V262.9z M189.8,288.7h-4.1v-3.8h4.1V288.7z M189.8,282.3
		h-4.1v-3.8h4.1V282.3z M189.8,275.8h-4.1v-3.8h4.1V275.8z M189.8,269.3h-4.1v-3.8h4.1V269.3z M189.8,262.9h-4.1V259h4.1V262.9z
		 M197.6,288.7h-4.1v-3.8h4.1V288.7z M197.6,282.3h-4.1v-3.8h4.1V282.3z M197.6,275.8h-4.1v-3.8h4.1V275.8z M197.6,269.3h-4.1v-3.8
		h4.1V269.3z M197.6,262.9h-4.1V259h4.1V262.9z M205.4,288.7h-4.1v-3.8h4.1V288.7z M205.4,282.3h-4.1v-3.8h4.1V282.3z M205.4,275.8
		h-4.1v-3.8h4.1V275.8z M205.4,269.3h-4.1v-3.8h4.1V269.3z M319.6,337.7h-3.7v-3.4h3.7V337.7z M319.6,330.7h-3.7v-3.4h3.7V330.7z
		 M319.6,323.8h-3.7v-3.4h3.7V323.8z M319.6,316.8h-3.7v-3.4h3.7V316.8z M326.5,337.7h-3.7v-3.4h3.7V337.7z M326.5,330.7h-3.7v-3.4
		h3.7V330.7z M326.5,323.8h-3.7v-3.4h3.7V323.8z M326.5,316.8h-3.7v-3.4h3.7V316.8z M333.3,337.7h-3.7v-3.4h3.7V337.7z M333.3,330.7
		h-3.7v-3.4h3.7V330.7z M333.3,323.8h-3.7v-3.4h3.7V323.8z M333.3,316.8h-3.7v-3.4h3.7V316.8z"/>
	<rect x="335.4" y="322.2" class="st1" width="14.6" height="30.7"/>
</g>
<g>
	<g>
		<path class="st3" d="M333.3,37.5h-98c-1.9,0-3.5-1.6-3.5-3.5V13.6c0-1.9,1.6-3.5,3.5-3.5h98c1.9,0,3.5,1.6,3.5,3.5V34
			C336.8,35.9,335.2,37.5,333.3,37.5z"/>
	</g>
	<g>
		<g>
			<path class="st4" d="M248.5,24.7c1.2-0.5,2.1-1.8,2.1-3.2c0-1.9-1.4-3.4-3.2-3.4c-1.8,0-3.2,1.5-3.3,3.4c0,1.4,0.9,2.7,2.1,3.2
				c-2.7,0.4-3.9,2.2-4.4,3.8c1.1,1.3,2.7,2.2,4.5,2.4h2c1.8-0.2,3.4-1.1,4.6-2.4C252.3,26.8,251.2,25.1,248.5,24.7z"/>
		</g>
		<g>
			<g>
				<rect x="261.4" y="17.2" class="st4" width="25.8" height="1.9"/>
			</g>
			<g>
				<rect x="261.4" y="28.2" class="st4" width="45.3" height="1.9"/>
			</g>
			<g>
				<rect x="261.4" y="22.6" class="st4" width="65.6" height="1.9"/>
			</g>
		</g>
	</g>
</g>
<g>
	<g>
		<g>
			<g>
				<g>
					
						<linearGradient id="SVGID_1_" gradientUnits="userSpaceOnUse" x1="157.384" y1="339.1127" x2="157.384" y2="238.6146" gradientTransform="matrix(0.9997 -2.590000e-02 -2.590000e-02 -0.9997 -22.4228 384.6823)">
						<stop  offset="0" style="stop-color:#FFFFFF"/>
						<stop  offset="0.235" style="stop-color:#F5F8FF"/>
						<stop  offset="0.627" style="stop-color:#DCE5FD"/>
						<stop  offset="0.9922" style="stop-color:#BED0FC"/>
					</linearGradient>
					<path class="st5" d="M156.8,99.6l-4.2,0.1c-1,0-1.8-0.6-2.2-1.4c-0.2-0.6-0.5-1-0.7-1.6c-0.4-0.9-0.3-1.8,0.4-2.6l2.9-3
						c0.9-0.9,0.8-2.3-0.1-3.2l-7-6.6c-0.9-0.9-2.3-0.8-3.2,0.1l-2.9,3c-0.6,0.7-1.7,0.9-2.6,0.5c-0.6-0.2-1-0.4-1.6-0.6
						c-0.9-0.3-1.5-1.1-1.5-2.1l-0.1-4.2c0-1.3-1-2.2-2.3-2.2l-9.6,0.2c-1.3,0-2.2,1-2.2,2.3l0.1,4.2c0,1-0.6,1.8-1.4,2.2
						c-0.6,0.2-1,0.5-1.6,0.7c-0.9,0.4-1.8,0.3-2.6-0.4l-3-2.9c-0.9-0.9-2.3-0.8-3.2,0.1l-6.6,7c-0.9,0.9-0.8,2.3,0.1,3.2l3,2.9
						c0.7,0.6,0.9,1.7,0.5,2.6c-0.2,0.6-0.4,1-0.6,1.6c-0.3,0.9-1.1,1.5-2.1,1.5l-4.2,0.1c-1.3,0-2.2,1-2.2,2.3l0.2,9.6
						c0,1.3,1,2.2,2.3,2.2l4.2-0.1c1,0,1.8,0.6,2.2,1.4c0.2,0.6,0.5,1,0.7,1.6c0.4,0.9,0.3,1.8-0.4,2.6l-2.9,3
						c-0.9,0.9-0.8,2.3,0.1,3.2l7,6.6c0.9,0.9,2.3,0.8,3.2-0.1l2.9-3c0.6-0.7,1.7-0.9,2.6-0.5c0.6,0.2,1,0.4,1.6,0.6
						c0.9,0.3,1.5,1.1,1.5,2.1l0.1,4.2c0,1.3,1,2.2,2.3,2.2l9.6-0.2c1.3,0,2.2-1,2.2-2.3l-0.1-4.2c0-1,0.6-1.8,1.4-2.2
						c0.6-0.2,1-0.5,1.6-0.7c0.9-0.4,1.8-0.3,2.6,0.4l3,2.9c0.9,0.9,2.3,0.8,3.2-0.1l6.6-7c0.9-0.9,0.8-2.3-0.1-3.2l-3-2.9
						c-0.7-0.6-0.9-1.7-0.5-2.6c0.2-0.6,0.4-1,0.6-1.6c0.3-0.9,1.1-1.5,2.1-1.5l4.2-0.1c1.3,0,2.2-1,2.2-2.3l-0.2-9.6
						C159,100.6,158,99.6,156.8,99.6z M128.1,117.2c-5.4,0.2-9.9-4.2-10-9.5c-0.2-5.4,4.2-9.9,9.5-10c5.4-0.2,9.9,4.2,10,9.5
						C137.7,112.6,133.4,117.1,128.1,117.2z"/>
					
						<linearGradient id="SVGID_2_" gradientUnits="userSpaceOnUse" x1="157.3433" y1="220.1199" x2="157.3433" y2="317.2039" gradientTransform="matrix(0.9997 -2.590000e-02 -2.590000e-02 -0.9997 -22.4228 384.6823)">
						<stop  offset="0" style="stop-color:#FFFFFF"/>
						<stop  offset="0.2992" style="stop-color:#F5F7FB"/>
						<stop  offset="0.7985" style="stop-color:#DCE3EF"/>
						<stop  offset="0.9581" style="stop-color:#D2DBEA"/>
					</linearGradient>
					<path class="st6" d="M127.2,85c-12.4,0.3-22.2,10.6-21.8,23c0.3,12.4,10.6,22.2,23,21.8c12.4-0.3,22.2-10.6,21.8-23
						C149.9,94.4,139.6,84.7,127.2,85z M128.2,120.1c-7,0.2-12.8-5.4-13-12.3c-0.2-7,5.4-12.8,12.3-13c7-0.2,12.8,5.4,13,12.3
						C140.6,114.1,135.1,119.9,128.2,120.1z"/>
				</g>
			</g>
			<g>
				<g>
					<g>
						<path class="st7" d="M133.5,303.6c-2.3-3.7-4.6-7.6-5-11.9c-0.3-4-1-8.5-0.4-12.4c0.6-4,0.3-8.1-0.6-12
							c-2.8-12.3-7.9-11-9.8-10c-1.8,1-2.7,3-2.8,6.2c-0.1,2.6,1.8,14.9-2.2,13.1c-4.6-2.1-4.6-14.9-5.3-19.1
							c-1.1-6.4-3.8-13.2-8.7-17.6c-2.4-2.2-6-3.8-8.9-2.3c-1.8,0.9-2.9,2.6-3.4,4.5c-1.8,5.6,0.1,11.3,2.3,16.5
							c1,2.2,8.4,12.1,2.2,11.1c-1.4-0.2-13.8-9.7-14.9,0.2c-0.4,3.5,3.5,7,9.8,11.4c3.9,2.8,18.2,9.9,17.5,13.8
							c-0.7,3.8-8.6-2.2-7.7,5c0.6,4,5.8,6.9,9.4,8.4c1.7,0.7,3.5,1,5.2,1.9c2,1,4.4,3.4,2.9,5.7c-0.6,1-1.9,1.5-2.5,2.6
							c-0.6,1-0.4,2.5,0.2,3.5s1.7,1.8,2.7,2.4c6.7,4.1,15.1,4.6,22.9,3.1c7.7-1.6,14.8-5.2,21.7-9.1"/>
					</g>
					<g class="st8">
						<path class="st9" d="M93.7,244.2c0,0,8.4,41.9,34.1,67.9"/>
						<path class="st9" d="M82.2,272c0,0,14.3,11,26.1,12.6"/>
						<path class="st9" d="M119.9,262.5c0.8,6.6,1.5,25-4.6,34"/>
						<path class="st9" d="M101,301.4c0,0,5.6,4.8,23,6.6"/>
						<path class="st9" d="M114.2,319.7c0,0,9,1.5,16.9-3.2"/>
					</g>
				</g>
				<g>
					<path class="st10" d="M155,299.7c-0.9-5-10.1-36.5-26.3-28.2c-9.6,5-7.9,23.3,7.1,37.1c-3-2.9-6.3-6.1-10.4-6.9
						c-2.2-0.4-4.8,0.6-6.5,2.1c-1.4,1.4-1.8,3.4-1.9,5.4c-0.2,7.2,3.5,14.3,9.5,18.2c-3.4-1.8-6.2-4.2-10-4.5
						c-1.2-0.1-3.4,0.6-3.9,1.7c-0.6,1.2-0.6,5.7,6.7,9c-29.8-5.7-31.6,7-20.9,7s87.9,0,87.9,0"/>
				</g>
				<g>
					<path class="st10" d="M266.4,308.7c0.9-5,10.1-36.5,26.3-28.2c9.6,5,7.9,23.3-7.1,37.1c3-2.9,6.3-6.1,10.4-6.9
						c2.2-0.4,4.8,0.6,6.5,2.1c1.4,1.4,1.8,3.4,1.9,5.4c0.2,7.2-3.5,14.3-9.5,18.2c3.4-1.8,6.2-4.2,10-4.5c1.2-0.1,3.4,0.6,3.9,1.7
						c0.6,1.2,0.6,5.7-6.7,9c29.8-5.7,31.6,7,20.9,7s-70.9,0-70.9,0"/>
				</g>
				<g>
					<g>
						<path class="st7" d="M274.1,288.4c1.8-3.9,3.8-8,3.7-12.4c-0.1-4,0.1-8.5-1-12.4c-1-3.9-1.2-8-0.8-12
							c1.4-12.6,6.6-11.8,8.6-11c1.9,0.7,3,2.6,3.5,5.8c0.4,2.6-0.2,15,3.6,12.8c4.4-2.6,2.9-15.3,3.1-19.6
							c0.4-6.5,2.3-13.5,6.6-18.5c2.2-2.4,5.5-4.4,8.6-3.3c1.8,0.6,3.1,2.3,3.9,4.1c2.5,5.4,1.1,11.3-0.5,16.6c-0.6,2.2-7,13-1,11.4
							c1.4-0.4,12.6-11.1,14.8-1.4c0.8,3.4-2.7,7.4-8.4,12.5c-3.5,3.2-17,11.9-15.9,15.7c1.1,3.8,8.3-3.2,8.2,4.1
							c-0.1,4.1-5,7.5-8.5,9.4c-1.6,0.9-3.4,1.4-5,2.5c-1.8,1.2-4,3.8-2.2,6c0.7,1,2.1,1.3,2.8,2.3c0.7,1,0.7,2.4,0.2,3.5
							c-0.6,1.1-1.4,1.9-2.5,2.7c-6.2,4.8-14.5,6.3-22.3,5.6c-7.8-0.7-15.4-3.5-22.6-6.6"/>
					</g>
					<g class="st8">
						<path class="st9" d="M307,224.9c0,0-3.7,42.6-26.2,71.4"/>
						<path class="st9" d="M321.5,251.2c0,0-13,12.6-24.5,15.4"/>
						<path class="st9" d="M283,246c-0.1,6.6,1.3,25,8.5,33.2"/>
						<path class="st9" d="M306.2,282.6c0,0-5,5.4-22.1,9.1"/>
						<path class="st9" d="M295.1,302.3c0,0-8.7,2.5-17.1-1.3"/>
					</g>
				</g>
			</g>
			<g>
				<g>
					<g>
						<g>
							<g>
								<g>
									<g>
										<g>
											<path class="st11" d="M273,352.7l-106.3-0.5c-12.8-0.1-23.1-10.5-23-23.3l1.2-266.5c0.1-12.8,10.5-23.1,23.3-23
												l106.3,0.5c12.8,0.1,23.1,10.5,23,23.3l-1.1,266.5C296.2,342.3,285.8,352.7,273,352.7z"/>
										</g>
									</g>
									<g>
										<g>
											<path class="st4" d="M274.2,49.1L253.7,49c-2.8,0-5,2.3-5,5.2v3.8c0,2.9-2.2,5.2-5,5.2L203.4,63c-2.8,0-5-2.4-5-5.3v-3.8
												c0-2.9-2.2-5.3-5-5.3h-7.3l-18.1-0.1c-9-0.1-16.2,7.2-16.3,16.2l-1.1,260.1c0,9,7.2,16.2,16.2,16.3l106.1,0.5
												c9,0.1,16.2-7.2,16.3-16.2l1.1-260.1C290.4,56.4,283.2,49.1,274.2,49.1z"/>
										</g>
									</g>
								</g>
							</g>
						</g>
					</g>
					<g>
						<g>
							<rect x="197.4" y="111.2" class="st12" width="79.4" height="1.2"/>
						</g>
						<g>
							<rect x="197.4" y="101.5" class="st12" width="79.4" height="1.2"/>
						</g>
						<g>
							<path class="st12" d="M257.1,106H198c-0.4,0-0.7,0.3-0.7,0.7l0,0c0,0.4,0.3,0.7,0.7,0.7h59.1c0.4,0,0.7-0.3,0.7-0.7l0,0
								C257.8,106.3,257.5,106,257.1,106z"/>
						</g>
						<g>
							<path class="st12" d="M257.1,96.6H198c-0.4,0-0.7,0.3-0.7,0.7l0,0c0,0.4,0.3,0.7,0.7,0.7h59.1c0.4,0,0.7-0.3,0.7-0.7l0,0
								C257.8,96.9,257.5,96.6,257.1,96.6z"/>
						</g>
						<g>
							<circle class="st13" cx="175.7" cy="102.1" r="15.5"/>
							<g>
								<g>
									<defs>
										<circle id="SVGID_3_" cx="175.7" cy="102.1" r="15.5"/>
									</defs>
									<clipPath id="SVGID_4_">
										<use xlink:href="#SVGID_3_"  style="overflow:visible;"/>
									</clipPath>
									<g class="st14">
										<g>
											<path class="st12" d="M185.3,106.2c-0.2-0.5-0.5-0.9-0.6-1.4c-0.9-2.2-1.3-4.6-1.6-6.9c0-0.3-0.2-2.2-0.4-2.3l-11.3-3.8
												c-0.3,0.1-0.8,1.3-1,1.6c-0.3,0.6-0.6,1.3-0.9,1.9c-0.6,1.4-0.9,2.6-1.2,4.1c-0.4,2.1-0.6,4.2-0.9,6.2
												c-0.2,1.9-0.4,3.7-1.3,5.5c-0.5,1-1.4,1.9-1.8,3c1.5-0.2,2.4-0.8,3.6-1.8c-0.1,1.1,0.3,2.6,0.6,3.8
												c0.5,2,1.3,3.8,2.3,5.4c0.9,1.4,1.8,2.5,3,3.5c0.5,0.4,1,0.8,1.4,1.1s0.6,0.2,1,0c1.8-1,3.6-2.2,5-3.9
												c1.5-1.9,2.5-4,3.4-6.5c0.4-1,0.8-2.2,0.8-3.4c0-0.9-0.5-1.7-0.5-2.4c0.8,0.6,1.4,1,1.9,2c-0.2-0.3,0-1.3,0-1.6
												C186.8,108.7,186,107.5,185.3,106.2z"/>
										</g>
										<path class="st15" d="M182.1,119.1l0.5,3.4l1.4,10.4h3.3l-1-10.4l-0.4-4.7l-0.2-2.9c-0.2-1.4-0.9-2.6-2-3.3l-0.8-0.5
											l-0.5,6.6L182.1,119.1z"/>
										<g>
											<path class="st16" d="M197.6,174l-3,1l-8.2-28.9l-0.6-2.4c0,0-0.6,0.3-1.4,0.9c-0.6,0.4-1.3,0.8-2,1.3
												c-1.4,0.9-2.8,1.8-3.7,2.5c-0.6,0.4-0.9,0.7-1,0.8l-0.9-4.5l-2-10.1v-0.1h10.7c3.4,0,6.3,2.5,6.9,5.8L197.6,174z"/>
											<path class="st16" d="M182.5,139.9L182.5,139.9c2.7,0.1,4.2,2.5,4,5.2l-2.7,37.8H181l-2.6-38.1
												C178.2,142.1,179.8,139.9,182.5,139.9z"/>
											<path class="st12" d="M197.4,184.3c-1.1-2.1-2.7-4.9-3-9.8c0.6,2.2,1.2,4.1,1.8,5.5c0.9,1.9,3.5,0.6,3-1.4
												c-0.7-2.7-2.3-5.6-2.3-5.6l0,0c2.7,3.8,3.7,5.8,3.8,10C201,185.5,198.6,186.3,197.4,184.3z"/>
											<path class="st16" d="M196.4,180.1c-0.6-1.4-1.3-3.4-1.8-5.5l2.6-1.5c0,0,1.6,2.9,2.3,5.6
												C199.9,180.7,197.3,182,196.4,180.1z"/>
											<path class="st12" d="M181,182.8c0,0,1.4,9.7,4.2,7.5c0.2,0.8,0.4,1.4,0.7,1.9c1.2,1.5-2.8,2.1-4.3,1.4
												c-1.5-0.6-0.6-5.8-0.6-5.8S178.9,184.7,181,182.8z"/>
											<path class="st16" d="M185.2,190.3c-2.8,2.2-4.2-7.5-4.2-7.5h2.7c0.2,0.5,0.3,1,0.5,1.5c0.1,0.2,0.1,0.3,0.2,0.5
												c0.1,0.3,0.2,0.6,0.2,1C184.8,187.1,185,188.7,185.2,190.3z"/>
											<path class="st16" d="M185,141.7c0,1-0.2,2-0.6,2.9c-0.3,0.8-0.8,1.6-1.4,2.2c-1.1,1.2-2.6,2.1-4.2,2.3
												c-0.3,0.1-0.6,0.1-1,0.1c-2.3,0.2-4.3,0.4-5.9,0.3c-8.2-0.2-7.8-3.6-7.8-3.6c-1-5.9,3.4-11.4,3.4-11.4h16.7v0.1l0.7,6.1
												v0.1C185,141.1,185,141.4,185,141.7z"/>
											<path class="st15" d="M185.4,134.5c-0.4,0-0.8,0.1-1.3,0.2c-2.5,0.6-5.6,2.5-6.4,8.8c-0.2,1.6-0.2,3.5-0.1,5.8
												c-2.3,0.2-4.3,0.4-5.9,0.3c-8.2-0.2-7.8-3.6-7.8-3.6c-1-5.9,3.4-11.4,3.4-11.4h7.4v-0.1L185.4,134.5L185.4,134.5z"/>
											<path class="st12" d="M177.8,149.2c-2.3,0.2-4.3,0.4-5.9,0.3c0.1,0,0.2-0.1,0.2-0.1c1.4-0.5,3.3-2.7,4.8-4.7
												c0.3-0.5,0.6-0.9,1-1.3C177.6,145.1,177.6,147,177.8,149.2z"/>
										</g>
										<path class="st11" d="M182.9,116.6c1.8,2.4,0.6,5.7-1.1,6.8c0,0-0.2,1.1-0.3,2.4c-0.2,2.2-0.3,4.3-0.1,6.5l0.3,2.8
											L168,135l-1.6-19l1.8-7l2.3-0.2c0.5-0.1,1.4-0.1,2.3-0.1c0.5,0,0.9,0,1.2,0l4.3,0.6c0.1-0.2,5.4,2.6,5.4,2.8L182.9,116.6z
											"/>
										<path class="st15" d="M164.8,133.9l15.6-3.8l-0.2-2.7l-13.4,1.7l1.2-7.9c0.1-0.3,0.1-0.7,0.2-1c0.2-1.6,0.3-3.2,0.4-4.9
											c0.1-2.2,0-4.2-0.2-6.4l-1.1,0.3c-2.3,0.6-3.9,2.7-4,5.1l-0.1,0.9l-0.3,4.9l-0.8,11.2C161.7,133,163.2,134.3,164.8,133.9z
											"/>
										<path class="st16" d="M172.8,108.6L172.8,108.6c0.6,0,1.2-0.6,1.1-1.2c0-0.4,0-0.7,0-0.9v-0.4l0.1-1.7l4.4,1.2l-0.2,2.7
											v0.1c0,0.5,0.2,0.9,0.6,1c0.2,0.2,0.6,0.3,0.9,0.5c-0.2,1.8-1.8,3.1-3.6,3.1c-2,0-3.6-1.6-3.6-3.6
											C172.6,109.1,172.7,108.9,172.8,108.6z"/>
										<path class="st17" d="M178.5,105.6l-0.2,2.6c0,0-0.1,0-0.2,0c-1.7,0.1-3.3-0.7-4.2-2.1l0.1-1.7L178.5,105.6z"/>
										<path class="st12" d="M183.1,116.5c-0.1-0.2-0.2-0.1-0.2,0.1c0.4,1.1,0.9,2.2,0.7,3.5c-0.2,1.4-1,2.9-2.5,3.3
											c-0.2,0.1-0.1,0.2,0.1,0.2c1.3-0.3,2-1.3,2.4-2.5C184.2,119.5,183.7,118.2,183.1,116.5z"/>
										<path class="st12" d="M177.8,117.1c0-0.2-0.2-0.2-0.2,0c0,1.2,0.2,2.5-0.5,3.6c-0.7,1.3-2.1,2.2-3.8,2
											c-0.2,0-0.2,0.2,0,0.2c1.4,0.2,2.6-0.3,3.4-1.3C177.8,120.3,177.8,118.8,177.8,117.1z"/>
										<g>
											<path class="st16" d="M183.4,97.3c-0.2,0-0.6,0.1-0.9,0.2c-0.4-1.8-1.4-3.7-2.6-5c-0.5-0.6-1-1-1.7-1.3
												c-0.3-0.2-0.6-0.2-1-0.3c-0.2,0-0.5,0-0.7,0c-0.2,0-0.5,0-0.7,0c-0.3,0-0.6,0.2-1,0.3c-0.6,0.2-1.2,0.7-1.7,1.4
												c-1.1,1.4-2.1,3.3-2.4,5c-0.3-0.2-0.6-0.2-0.9-0.2c-0.9,0.1-1.2,1.5-0.9,2.6c0.3,1.4,1.4,1.8,2.3,2
												c0.5,0.9,1.1,1.8,1.8,2.5c0.8,0.9,1.8,1.5,2.9,1.8h0.1c0.1,0,0.2,0,0.2,0.1c0.1,0,0.1,0,0.2,0h0.1c0.1,0,0.2,0,0.2,0
												s0.2,0,0.2,0h0.1c0.1,0,0.1,0,0.2,0c0.1,0,0.2,0,0.2-0.1h0.1c1.1-0.3,2.1-1,2.8-1.8c0.7-0.7,1.3-1.7,1.8-2.6
												c1-0.3,2-0.7,2.2-2.1C184.6,98.7,184.2,97.4,183.4,97.3z"/>
											<g>
												<g>
													<path class="st12" d="M176.5,103.7c-0.6-0.2-1.4-0.6-1.6-1.7c0-0.1,0-0.2,0.1-0.2c0.1,0,0.2,0,0.2,0.1
														c0.6,1.8,2.5,1.6,2.6,1.5c0.1,0,0.2,0.1,0.2,0.2c0,0.1-0.1,0.2-0.2,0.2C177.8,103.8,177.1,103.9,176.5,103.7z"/>
												</g>
												<g>
													
														<ellipse transform="matrix(0.9967 -8.157580e-02 8.157580e-02 0.9967 -7.5568 14.5987)" class="st12" cx="174.9" cy="99.8" rx="0.6" ry="0.6"/>
												</g>
												<g>
													
														<ellipse transform="matrix(0.9967 -8.150950e-02 8.150950e-02 0.9967 -7.5294 14.9513)" class="st12" cx="179.4" cy="99.7" rx="0.6" ry="0.6"/>
												</g>
												<g>
													<path class="st12" d="M173.7,98.4L173.7,98.4c-0.1-0.1-0.2-0.2-0.1-0.2c0.4-1,1.3-1,1.7-0.8c0.1,0,0.2,0.2,0.1,0.2
														c0,0.1-0.1,0.2-0.2,0.1c0,0-0.9-0.3-1.3,0.6C173.8,98.4,173.8,98.5,173.7,98.4z"/>
												</g>
												<g>
													<path class="st12" d="M178.6,97.8L178.6,97.8c-0.1-0.1,0-0.2,0.1-0.2c1-0.5,1.6,0.1,1.8,0.5c0.1,0.1,0,0.2-0.1,0.2
														c-0.1,0.1-0.2,0-0.2-0.1c0,0-0.5-0.8-1.4-0.3C178.6,97.9,178.6,97.9,178.6,97.8z"/>
												</g>
												<g>
													<path class="st12" d="M177.6,102c-0.1,0-0.2-0.1-0.2-0.2c0-0.1,0.1-0.2,0.2-0.2c0,0,0.3,0,0.4-0.2
														c0-0.1,0.1-0.3-0.4-0.9c-0.1-0.1-0.1-0.2,0-0.2c0.1-0.1,0.2-0.1,0.2,0c0.4,0.5,0.6,0.9,0.4,1.2
														C178.1,102,177.6,102,177.6,102L177.6,102z"/>
												</g>
											</g>
											<path class="st18" d="M181.4,103.7c0.1,1,1,1.7,1.9,1.6c1-0.1,1.7-1,1.6-1.9c-0.1-0.4-0.2-0.8-0.6-1.1c0-0.1,0-0.2,0-0.2
												c-0.1-0.6-0.6-1.1-1.3-1c-0.6,0.1-1,0.6-1,1C181.6,102.4,181.4,103.1,181.4,103.7z M184,102c-0.3-0.2-0.6-0.2-1-0.2
												c-0.2,0-0.3,0.1-0.5,0.1c0.1-0.2,0.3-0.5,0.6-0.5C183.6,101.3,183.9,101.6,184,102z M183,102.1c0.4,0,0.7,0.1,1,0.3
												c-0.1,0.3-0.3,0.5-0.6,0.6c-0.4,0.1-0.8-0.2-0.9-0.6C182.6,102.2,182.8,102.1,183,102.1z M181.8,103.7
												c-0.1-0.5,0.2-0.9,0.4-1.2c0.2,0.5,0.6,0.9,1.2,0.8c0.4-0.1,0.7-0.3,0.9-0.6c0.2,0.2,0.2,0.5,0.3,0.7
												c0.1,0.8-0.5,1.5-1.3,1.6C182.5,105.1,181.8,104.5,181.8,103.7z"/>
											<path class="st18" d="M168.5,103.8c0.1,1,1,1.7,1.9,1.6c1-0.1,1.7-1,1.6-1.9c-0.1-0.4-0.2-0.8-0.6-1.1c0-0.1,0-0.2,0-0.2
												c-0.1-0.6-0.6-1.1-1.3-1c-0.6,0.1-1,0.6-1,1C168.7,102.5,168.5,103.1,168.5,103.8z M171.1,102c-0.3-0.2-0.6-0.2-1-0.2
												c-0.2,0-0.3,0.1-0.5,0.1c0.1-0.2,0.3-0.5,0.6-0.5C170.7,101.4,171,101.7,171.1,102z M170.2,102.2c0.4,0,0.7,0.1,1,0.3
												c-0.1,0.3-0.3,0.5-0.6,0.6c-0.4,0.1-0.8-0.2-0.9-0.6C169.8,102.3,169.9,102.2,170.2,102.2z M168.9,103.8
												c-0.1-0.5,0.2-0.9,0.4-1.2c0.2,0.5,0.6,0.9,1.2,0.8c0.4-0.1,0.7-0.3,0.9-0.6c0.2,0.2,0.2,0.5,0.3,0.7
												c0.1,0.8-0.5,1.5-1.3,1.6C169.7,105.1,169,104.5,168.9,103.8z"/>
										</g>
										<g>
											<g>
												<path class="st19" d="M179.1,105.8L179.1,105.8L179.1,105.8L179.1,105.8z"/>
											</g>
										</g>
										<path class="st12" d="M190.6,121.5h-3.8c-0.4,0-0.6,0.2-0.8,0.6l-2.9,9.4c-0.2,0.6,0.2,1,0.8,1h4.1c0.4,0,0.7-0.2,0.8-0.6
											l2.6-9.4C191.5,121.9,191.1,121.5,190.6,121.5z"/>
										<g>
											<path class="st16" d="M181.1,130.1c1.2,0.8,7.4,1.6,6.4-0.6c0,0,1.2-1-0.2-1.7c0,0-0.1-1-1.4-1.1c0,0-0.6,0.1-0.1,0.7
												l0.2,0.2c0,0-1.4,0.3-1.7-0.1l0.5-1.5c0,0-0.8,0-3.7,1.3l-1.6,0.3l0.6,2.6L181.1,130.1z"/>
											<path class="st17" d="M187.2,127.7c-0.8,0.6-1.8,0.9-2.8,0.8c-0.2,0-0.2,0.2,0,0.2c1,0.1,2-0.2,2.9-0.8
												C187.4,127.8,187.4,127.6,187.2,127.7z"/>
											<path class="st17" d="M187.8,128.3c-0.8,0.6-1.8,0.9-2.8,0.9c-0.2,0-0.2,0.2,0,0.2c1,0,2.1-0.3,3-1
												C188.1,128.4,187.9,128.3,187.8,128.3z"/>
											<path class="st17" d="M187.4,129.5c-0.8,0.5-1.8,0.6-2.7,0.4c-0.2,0-0.2,0.2-0.1,0.2c1,0.2,2,0.1,2.9-0.5
												C187.7,129.5,187.5,129.4,187.4,129.5z"/>
										</g>
										<g>
											<path class="st12" d="M182.9,91.6c-1.4,0-2.6-0.7-3.8-1.4c-1.2-0.6-2.6-1.1-3.7-0.3c-0.3,0.2-0.4,0.2-0.8,0.2
												c-0.3-0.1-0.6-0.1-0.9-0.1c-0.8,0.1-1.5,0.6-2,1.2c-0.6,0.8-1.1,2.1-1.3,3c-0.2,1.4-0.3,2.6-0.9,3.9
												c0.4,0.2,0.8-0.4,1-0.6c0,0.7-0.1,1.5,0.1,2.2c0.2,0.9,0.9,1.5,1.1,2.3c0-0.6,0.2-1.4,0.2-2.1c0.1-0.5,0.1-1.3,0.3-1.8
												c0.4-0.2,0.9-0.6,1.1-0.8c0.5-0.5,1.4-1.4,1.4-2c0.8,1,1.9-1.4,2.3-1.8c0.3,0.6,0.6,1.1,1.2,1.4c0.5,0.3,1.1,0.3,1.6,0.6
												c0.3,0.2,0.7,1,1,1.4c0.4,0.5,0.8,1,1.4,1.1c0.4-2.2,0.4-4.8-0.9-6.6C181.9,91.9,182.6,91.8,182.9,91.6z"/>
										</g>
										<path class="st12" d="M182.6,97.1l-2.2-1c0,0,1.8,3.1,1.1,6C181.6,102.1,182.7,100.8,182.6,97.1z"/>
									</g>
								</g>
							</g>
						</g>
					</g>
					<g>
						<g>
							<rect x="166" y="155.4" class="st12" width="79.4" height="1.2"/>
						</g>
						<g>
							<rect x="166" y="145.7" class="st12" width="79.4" height="1.2"/>
						</g>
						<g>
							<path class="st12" d="M185.6,150.2h59.1c0.4,0,0.7,0.3,0.7,0.7l0,0c0,0.4-0.3,0.7-0.7,0.7h-59.1c-0.4,0-0.7-0.3-0.7-0.7l0,0
								C185,150.5,185.3,150.2,185.6,150.2z"/>
						</g>
						<g>
							<path class="st12" d="M185.6,140.7h59.1c0.4,0,0.7,0.3,0.7,0.7l0,0c0,0.4-0.3,0.7-0.7,0.7h-59.1c-0.4,0-0.7-0.3-0.7-0.7l0,0
								C185,141.1,185.3,140.7,185.6,140.7z"/>
						</g>
						<circle class="st13" cx="265" cy="148" r="15.5"/>
						<g>
							<g>
								<defs>
									<circle id="SVGID_5_" cx="265" cy="148" r="15.5"/>
								</defs>
								<clipPath id="SVGID_6_">
									<use xlink:href="#SVGID_5_"  style="overflow:visible;"/>
								</clipPath>
								<g class="st20">
									<g>
										<g>
											<path id="XMLID_33_" class="st15" d="M256.5,182.6v1.4c0,1.5,0.6,3,1.6,4l3.2,3.2c1.8-5.9,3.4-33,3.4-33h1.4
												c-0.4,3.5,3.7,27.1,4.6,32.1l1.8-1.7c1-1,1.6-2.3,1.5-3.8l-0.2-3.8c0.1-0.3,0.1-0.6,0-0.9l-0.6-2.9c0,0-0.2-14,3.5-22.5
												l-8.2-2.6l-5.6-0.2l-8.6,3C254,155.1,257.5,169.9,256.5,182.6z"/>
										</g>
										<g>
											<defs>
												<path id="SVGID_7_" d="M256.5,182.6v1.4c0,1.5,0.6,3,1.6,4l3.2,3.2c1.8-5.9,3.4-33,3.4-33h1.4
													c-0.4,3.5,3.7,27.1,4.6,32.1l1.8-1.7c1-1,1.6-2.3,1.5-3.8l-0.2-3.8c0.1-0.3,0.1-0.6,0-0.9l-0.6-2.9c0,0-0.2-14,3.5-22.5
													l-8.2-2.6l-5.6-0.2l-8.6,3C254,155.1,257.5,169.9,256.5,182.6z"/>
											</defs>
											<defs>
												<path id="SVGID_8_" d="M256.5,182.6v1.4c0,1.5,0.6,3,1.6,4l3.2,3.2c1.8-5.9,3.4-33,3.4-33h1.4
													c-0.4,3.5,3.7,27.1,4.6,32.1l1.8-1.7c1-1,1.6-2.3,1.5-3.8l-0.2-3.8c0.1-0.3,0.1-0.6,0-0.9l-0.6-2.9c0,0-0.2-14,3.5-22.5
													l-8.2-2.6l-5.6-0.2l-8.6,3C254,155.1,257.5,169.9,256.5,182.6z"/>
											</defs>
											<defs>
												<path id="SVGID_9_" d="M256.5,182.6v1.4c0,1.5,0.6,3,1.6,4l3.2,3.2c1.8-5.9,3.4-33,3.4-33h1.4
													c-0.4,3.5,3.7,27.1,4.6,32.1l1.8-1.7c1-1,1.6-2.3,1.5-3.8l-0.2-3.8c0.1-0.3,0.1-0.6,0-0.9l-0.6-2.9c0,0-0.2-14,3.5-22.5
													l-8.2-2.6l-5.6-0.2l-8.6,3C254,155.1,257.5,169.9,256.5,182.6z"/>
											</defs>
											<defs>
												<path id="SVGID_10_" d="M256.5,182.6v1.4c0,1.5,0.6,3,1.6,4l3.2,3.2c1.8-5.9,3.4-33,3.4-33h1.4
													c-0.4,3.5,3.7,27.1,4.6,32.1l1.8-1.7c1-1,1.6-2.3,1.5-3.8l-0.2-3.8c0.1-0.3,0.1-0.6,0-0.9l-0.6-2.9c0,0-0.2-14,3.5-22.5
													l-8.2-2.6l-5.6-0.2l-8.6,3C254,155.1,257.5,169.9,256.5,182.6z"/>
											</defs>
											<defs>
												<path id="SVGID_11_" d="M256.5,182.6v1.4c0,1.5,0.6,3,1.6,4l3.2,3.2c1.8-5.9,3.4-33,3.4-33h1.4
													c-0.4,3.5,3.7,27.1,4.6,32.1l1.8-1.7c1-1,1.6-2.3,1.5-3.8l-0.2-3.8c0.1-0.3,0.1-0.6,0-0.9l-0.6-2.9c0,0-0.2-14,3.5-22.5
													l-8.2-2.6l-5.6-0.2l-8.6,3C254,155.1,257.5,169.9,256.5,182.6z"/>
											</defs>
											<defs>
												<path id="SVGID_12_" d="M256.5,182.6v1.4c0,1.5,0.6,3,1.6,4l3.2,3.2c1.8-5.9,3.4-33,3.4-33h1.4
													c-0.4,3.5,3.7,27.1,4.6,32.1l1.8-1.7c1-1,1.6-2.3,1.5-3.8l-0.2-3.8c0.1-0.3,0.1-0.6,0-0.9l-0.6-2.9c0,0-0.2-14,3.5-22.5
													l-8.2-2.6l-5.6-0.2l-8.6,3C254,155.1,257.5,169.9,256.5,182.6z"/>
											</defs>
											<clipPath id="SVGID_13_">
												<use xlink:href="#SVGID_7_"  style="overflow:visible;"/>
											</clipPath>
											<clipPath id="SVGID_14_" class="st21">
												<use xlink:href="#SVGID_8_"  style="overflow:visible;"/>
											</clipPath>
											<clipPath id="SVGID_15_" class="st22">
												<use xlink:href="#SVGID_9_"  style="overflow:visible;"/>
											</clipPath>
											<clipPath id="SVGID_16_" class="st23">
												<use xlink:href="#SVGID_10_"  style="overflow:visible;"/>
											</clipPath>
											<clipPath id="SVGID_17_" class="st24">
												<use xlink:href="#SVGID_11_"  style="overflow:visible;"/>
											</clipPath>
											<clipPath id="SVGID_18_" class="st25">
												<use xlink:href="#SVGID_12_"  style="overflow:visible;"/>
											</clipPath>
											<path class="st26" d="M252.4,168.7c7.2,1.4,14.6,1.6,21.9,0.8c0.1,0,0.1,0.2,0,0.2c-7.4,0.8-14.7,0.5-21.9-0.8
												C252.2,168.9,252.3,168.7,252.4,168.7z"/>
											<path class="st26" d="M252.7,170.3c7.1,1,14.2,1.3,21.4,0.7c0.1,0,0.1,0.2,0,0.2c-7.1,0.6-14.3,0.3-21.4-0.7
												C252.6,170.5,252.6,170.3,252.7,170.3z"/>
											<path class="st26" d="M251.4,171c7.4,1.4,15,1.8,22.5,1.3c0.1,0,0.1,0.2,0,0.2c-7.5,0.6-15.1,0.1-22.5-1.3
												C251.2,171.1,251.3,170.9,251.4,171z"/>
											<path class="st26" d="M251.6,180.7c7.4,2.6,16.2,4.3,22.9-1c0.1-0.1,0.2,0.1,0.2,0.2c-6.7,5.4-15.6,3.8-23,1.1
												C251.4,180.9,251.4,180.7,251.6,180.7z"/>
											<path class="st26" d="M253.2,182.3c6.9,3.2,15,2.8,21.6-1c0.1-0.1,0.2,0.1,0.1,0.2c-6.6,3.9-14.8,4.3-21.8,1
												C253,182.3,253.1,182.2,253.2,182.3z"/>
											<path class="st26" d="M255,184.3c6.3,3.3,14,2.7,19.8-1.2c0.1-0.1,0.2,0.1,0.1,0.2c-5.9,4-13.7,4.5-20,1.2
												C254.7,184.5,254.9,184.3,255,184.3z"/>
										</g>
										<path class="st27" d="M269.6,184.4c-0.9-5-3.9-22.6-3.5-26.2h-1.4c0,0-1.5,21.7-2.5,26.8L269.6,184.4z"/>
										<path class="st15" d="M272.7,160.7l2.2,14.2c1-0.4,2.9-0.6,4.4-0.7c0.2-10.2-0.4-18.2-3.2-19.4L272.7,160.7z"/>
										<path class="st15" d="M251.4,174.1c1.4,0.2,3.3,0.3,4.4,0.7l2.2-14.2l-3.6-5.7C251.5,156.3,251.2,164.7,251.4,174.1z"/>
										<g>
											<g>
												<path class="st28" d="M265.8,158.4c0-0.1,0.2-0.1,0.2,0c0.1,2.2,0.1,4.6,0.6,6.8c0.2-1.8,0.6-3.6,1.9-5
													c-0.4-0.2-0.9-0.5-1.2-0.7c-0.1,0-0.2-0.1-0.1-0.2c1.1-1.9,2.2-3.8,3.5-5.5c-0.9-0.6-1.8-1-2.6-1.4
													c-0.1-0.1-0.1-0.2,0.1-0.2c1,0.4,1.9,0.9,2.8,1.4h0.1c0.1,0,0.1,0.1,0.2,0.1c0.1,0.1,0,0.2-0.1,0.2l0,0l0,0
													c0,0.1-0.2,0.1-0.2,0c0,0.2-0.6,1-0.8,1.2c-0.3,0.5-0.6,1-0.9,1.4c-0.6,0.9-1.1,1.8-1.7,2.8c0.4,0.3,0.8,0.6,1.3,0.7
													c0.1,0,0.1,0.1,0,0.1v0.1c-1.4,1.5-1.8,3.4-1.9,5.4c0,0,0,0,0,0.1l0,0c0,0-0.1,0.1-0.1,0l0,0l0,0l0,0
													C265.8,163.5,265.9,160.9,265.8,158.4z"/>
												<path class="st28" d="M264.7,158.4c0-0.1-0.2-0.1-0.2,0c-0.1,2.2-0.1,4.6-0.6,6.8c-0.2-1.8-0.6-3.6-1.9-5
													c0.4-0.2,0.9-0.5,1.2-0.7c0.1,0,0.2-0.1,0.1-0.2c-1.1-1.9-2.2-3.8-3.5-5.5c0.9-0.6,1.8-1,2.6-1.4
													c0.1-0.1,0.1-0.2-0.1-0.2c-1,0.4-1.9,0.9-2.8,1.4h-0.1c-0.1,0-0.1,0.1-0.2,0.1c-0.1,0.1,0,0.2,0.1,0.2l0,0l0,0
													c0,0.1,0.2,0.1,0.2,0c0,0.2,0.6,1,0.8,1.2c0.3,0.5,0.6,1,0.9,1.4c0.6,0.9,1.1,1.8,1.7,2.8c-0.4,0.3-0.8,0.6-1.3,0.7
													c-0.1,0-0.1,0.1,0,0.1v0.1c1.4,1.5,1.8,3.4,1.9,5.4c0,0,0,0,0,0.1l0,0c0,0,0.1,0.1,0.1,0l0,0l0,0l0,0
													C264.6,163.5,264.6,160.9,264.7,158.4z"/>
												<path class="st28" d="M257.5,164.3C257.5,164.2,257.5,164.2,257.5,164.3c1.5-0.2,3-0.2,4.5,0c0.2,0,0.2,0.2,0,0.2
													c-1.4-0.2-2.9-0.2-4.3-0.1c0.1,1.2,0.2,2.4,0.6,3.5l0,0c1,0.2,2.1,0.2,3.1,0.2c0.6-1.1,0.9-2.3,0.6-3.6
													c0-0.2,0.2-0.2,0.2-0.1c0.2,1.3,0,2.6-0.6,3.7c0,0.1,0,0.2-0.1,0.2c-1.1,0.1-2.2,0-3.3-0.2c-0.1,0-0.1,0-0.2-0.1
													C257.8,166.8,257.5,165.6,257.5,164.3L257.5,164.3z"/>
												<path class="st28" d="M268,164.3C268,164.2,268,164.2,268,164.3c1.5-0.2,3-0.2,4.5,0c0.2,0,0.2,0.2,0,0.2
													c-1.4-0.2-2.9-0.2-4.3-0.1c0.1,1.2,0.2,2.4,0.6,3.5l0,0c1,0.2,2.1,0.2,3.1,0.2c0.6-1.1,0.9-2.3,0.6-3.6
													c0-0.2,0.2-0.2,0.2-0.1c0.2,1.3,0,2.6-0.6,3.7c0,0.1,0,0.2-0.1,0.2c-1.1,0.1-2.2,0-3.3-0.2c-0.1,0-0.1,0-0.2-0.1
													C268.2,166.8,268.1,165.6,268,164.3L268,164.3z"/>
											</g>
										</g>
										<g>
											<path class="st29" d="M262.6,146.4v6.2c0,0.3,0.1,0.7,0.2,1.2c0.3,1.9,1.4,5,2.6,5c1.5,0,2.7-4.6,2.7-6.1v-6.2
												c0-1-0.9-1.9-1.9-1.9h-1.6C263.4,144.5,262.6,145.4,262.6,146.4z"/>
											<path class="st12" d="M262.6,146.3v5c0,0.2,0.1,0.6,0.2,1c0.2,0,0.5,0.1,0.7,0.1c1.9,0,3.7-1.1,4.6-2.8v-3.2
												c0-0.9-0.9-1.6-1.9-1.6h-1.6C263.4,144.7,262.6,145.4,262.6,146.3z"/>
											<path class="st29" d="M272.2,144.9c-0.2,1.2-1.1,1.6-1.9,1.8l0,0c-0.4,0.8-0.9,1.6-1.5,2.2c-0.6,0.8-1.4,1.4-2.5,1.7
												h-0.1c-0.1,0-0.1,0-0.2,0.1H266h-0.1c-0.1,0-0.2,0-0.2,0c-0.1,0-0.2,0-0.2,0h-0.1h-0.1c-0.1,0-0.1,0-0.2,0H265
												c-1-0.2-1.8-0.8-2.6-1.5c-0.6-0.6-1.2-1.4-1.6-2.2h-0.1c-0.8-0.2-1.7-0.6-2-1.8c-0.2-1,0-2.2,0.8-2.3
												c0.2,0,0.5,0.1,0.8,0.2c0.3-1.6,1.1-3.3,2.1-4.5c0.4-0.6,0.9-1,1.4-1.2c0.3-0.2,0.6-0.2,0.9-0.3c0.2,0,0.4,0,0.6,0
												c0.2,0,0.4,0,0.6,0c0.3,0,0.6,0.1,0.9,0.2c0.6,0.2,1,0.6,1.5,1.1c1,1.1,1.9,2.8,2.3,4.4c0.2-0.2,0.6-0.2,0.8-0.2
												C272.2,142.7,272.5,143.9,272.2,144.9z"/>
											<g>
												
													<ellipse transform="matrix(0.9894 -0.1449 0.1449 0.9894 -18.117 40.2541)" class="st12" cx="267.3" cy="144.5" rx="0.5" ry="0.5"/>
												
													<ellipse transform="matrix(0.9894 -0.1449 0.1449 0.9894 -18.172 39.6518)" class="st12" cx="263.1" cy="144.6" rx="0.5" ry="0.5"/>
												<g>
													<path class="st12" d="M268.2,143.5c-0.1,0-0.2,0-0.2-0.1c-0.6-0.8-1.4-0.3-1.4-0.3c-0.1,0.1-0.2,0-0.2-0.1
														c-0.1-0.1,0-0.2,0.1-0.2c0.4-0.2,1.2-0.5,1.8,0.4C268.3,143.3,268.3,143.4,268.2,143.5
														C268.2,143.5,268.2,143.5,268.2,143.5z"/>
												</g>
												<g>
													<g>
														<path class="st28" d="M265.4,147.9c0-0.1,1.8-1.3,1.9-1.3c0.1,0,0.2,0.2,0.2,0.2c-0.1,0.6-0.6,1.4-1.9,1.3
															C265.4,148.1,265.4,148,265.4,147.9L265.4,147.9z"/>
													</g>
												</g>
												<g>
													<path class="st12" d="M263.8,143.1c0,0-0.1,0.1-0.2,0c-0.8-0.2-1.1,0.4-1.1,0.5c0,0.1-0.1,0.1-0.2,0.1
														c-0.1,0-0.1-0.1-0.1-0.2c0.2-0.3,0.6-0.9,1.4-0.6C263.8,142.8,263.8,142.9,263.8,143.1
														C263.8,143,263.8,143.1,263.8,143.1z"/>
												</g>
												<g>
													<path class="st12" d="M265.4,146.9c-0.2,0.2-0.4,0.2-0.6,0.3c-0.1,0-0.2,0-0.3-0.1s-0.2-0.2-0.2-0.3
														c-0.1-0.2-0.1-0.6,0-0.9l0.3-1.8c0-0.1,0.1-0.1,0.2-0.1s0.1,0.1,0.1,0.2l-0.3,1.8c-0.1,0.4-0.1,0.6,0,0.8
														c0,0.1,0.1,0.1,0.1,0.1c0.2,0.1,0.4,0,0.6-0.2l0,0c0.1-0.1,0.2-0.1,0.2,0l0,0C265.5,146.8,265.5,146.9,265.4,146.9z"/>
												</g>
											</g>
										</g>
										<g>
											<path class="st12" d="M270.8,140.2c-0.2-0.4-0.3-0.7-0.4-1.1c0.4-0.2,1,0.1,1.4-0.3c-0.2-0.2-0.6-0.2-0.9-0.3
												c-0.3-0.2-0.6-0.2-0.9-0.5c-0.6-0.5-1.1-1-1.7-1.4c-0.6-0.5-1.4-1-2-1.1c-1.3-0.3-2.4,0-3.6,0.5
												c-1.5,0.6-2.8,1.6-4.4,1.8c0.2,0.2,0.8,0.2,1.1,0.2c0.3,0.1,0.7,0.1,1,0c-0.8,0.4-1.4,1-1.9,1.8c-0.4,0.7-0.7,1.4-1,2.1
												c-0.2,0.3-0.3,0.6-0.5,0.8c-0.1,0.1-0.2,0.2-0.3,0.3c0.3,0.2,0.8,0.3,1.1,0.3c0.4,0.1,0.8,0.1,1.2,0.1
												c0.4,0,0.8-0.2,1.2-0.3c0,0.3,0,0.6,0.1,0.9c0.1,0.6,0.2,1.1,0.5,1.7c0.2-0.5,0.2-1,0.3-1.6c0.2-0.6,0.4-1.3,0.6-1.8
												c0.4-0.1,0.8-0.2,1.3-0.3c0.6-0.2,1.2-0.6,1.8-0.9c0.4-0.2,0.7-0.6,1.1-0.9c-0.1,0.2-0.2,0.5-0.2,0.7
												c-0.1,0.4-0.2,0.7-0.3,1.1c0.3-0.2,0.7-0.4,1-0.6c0.4-0.3,0.7-0.7,1.1-1c0.1,1.1,1,1.9,1.5,2.8c0.4,0.7,0.6,1.4,0.7,2.2
												c0.1,0.4,0.2,1,0,1.4c0.2-0.2,0.2-0.5,0.3-0.7c0.2-0.3,0.3-0.6,0.5-0.9c0.3-0.6,0.6-1.3,0.8-1.9c0.2-0.6,0.2-1.3,0-1.9
												C271.1,140.9,271,140.5,270.8,140.2z"/>
										</g>
									</g>
								</g>
							</g>
							<g>
								<g>
									<path class="st11" d="M208.6,284.2h-27.4c-2.6,0-4.6-2-4.6-4.6v-27.4c0-2.6,2-4.6,4.6-4.6h27.4c2.6,0,4.6,2,4.6,4.6v27.3
										C213.3,282.1,211.2,284.2,208.6,284.2z"/>
								</g>
								<g>
									<g>
										<g>
											<path class="st4" d="M205.7,273.8c0,0,0-0.2,0-0.3c0-0.2,0-0.6,0-0.9c0-0.8-0.1-1.9-0.1-3.4c-0.1-2.9-0.2-6.9-0.2-11.8
												l0.2,0.2c-6,0.1-13.3,0.2-21.1,0.2c-0.1,0.1,0.5-0.5,0.2-0.2l0,0l0,0l0,0l0,0v0.1v0.2v0.3v0.6v1.1c0,0.7,0,1.4,0,2.2
												c0,1.4,0,2.8,0,4.2c0,2.7,0,5.4,0.1,7.8l-0.2-0.2c6.2,0,11.4,0,15.2,0c1.8,0,3.3,0,4.3,0c0.5,0,0.9,0,1.2,0
												C205.5,273.8,205.6,273.8,205.7,273.8c0,0-0.2,0-0.4,0c-0.3,0-0.6,0-1.1,0c-1,0-2.5,0.1-4.3,0.1c-3.8,0.1-9,0.2-15.3,0.2
												h-0.2v-0.2c0-2.5-0.1-5-0.1-7.8c0-1.4,0-2.7-0.1-4.2c0-0.7,0-1.4,0-2.2v-1.1V258v-0.3v-0.2v-0.1l0,0l0,0l0,0l0,0
												c-0.2,0.2,0.3-0.3,0.2-0.2c7.8-0.1,15.1-0.1,21.1-0.2h0.2v0.2c0,4.9,0,9,0,11.9c0,1.4,0,2.5,0,3.3c0,0.4,0,0.6,0,0.8
												C205.7,273.7,205.7,273.8,205.7,273.8z"/>
										</g>
									</g>
									<g>
										<g>
											<path class="st4" d="M191.5,254.4c0-0.1,0.6-0.1,1.8-0.2s2.8-0.1,4.8-0.2h0.1l0.1,0.1c0.6,1,1.2,2,1.8,3.1l0.2,0.3H200
												c-0.6,0-1.4,0-2,0c-3.4,0-6.4,0-8.6,0h-0.3l0.2-0.2C190.5,255.5,191.4,254.3,191.5,254.4c0,0-0.2,0.3-0.6,0.8
												c-0.4,0.6-0.8,1.4-1.4,2.4l-0.2-0.2c2.2-0.1,5.2-0.1,8.6-0.2c0.6,0,1.4,0,2,0l-0.2,0.3c-0.6-1.1-1.3-2.2-1.8-3.1l0.2,0.1
												c-2,0-3.7,0-4.8-0.1C192.2,254.5,191.5,254.5,191.5,254.4z"/>
										</g>
									</g>
									<g>
										<g>
											<path class="st4" d="M199.4,267.1c-0.1,0,0.1-0.5,0.2-1.2s-0.1-1.8-0.8-3c-0.7-1.1-2.2-2.1-4-2c-1.7,0-3.7,1.2-4.3,3.1
												c-0.6,1.9,0.1,4,1.5,5.1c1.4,1.1,3.1,1.3,4.4,0.8c1.3-0.5,2.1-1.3,2.6-1.8C199.2,267.5,199.4,267.1,199.4,267.1
												s0,0.1-0.1,0.3c-0.1,0.2-0.2,0.5-0.4,0.8c-0.4,0.6-1.2,1.6-2.6,2.1c-1.4,0.6-3.3,0.4-4.7-0.8c-0.7-0.6-1.4-1.4-1.6-2.5
												c-0.3-1-0.3-2.1,0-3.1c0.4-1,1-1.9,1.9-2.6c0.8-0.6,1.8-0.9,2.8-0.9c1.9,0,3.5,1,4.2,2.2c0.7,1.2,0.9,2.5,0.7,3.2
												c-0.1,0.4-0.2,0.6-0.2,0.9C199.4,267.1,199.4,267.1,199.4,267.1z"/>
										</g>
									</g>
								</g>
							</g>
							<g>
								<g>
									<path class="st30" d="M260.4,235.2l-27.4,0.2c-2.6,0-4.6-2-4.6-4.6l-0.2-27.4c0-2.6,2-4.6,4.6-4.6l27.4-0.2
										c2.6,0,4.6,2,4.6,4.6l0.2,27.4C265,233.1,262.9,235.2,260.4,235.2z"/>
								</g>
								<g>
									<g>
										<g>
											<path class="st28" d="M258.2,216.5c-0.1,0,0-1.1-0.6-2.9c-0.5-1.8-1.7-4.5-4.5-6.6c-1.4-1-3-1.8-5-2.2
												c-1.9-0.3-4.2-0.2-6.2,0.6c-1,0.4-2.1,1-3,1.6c-1,0.6-1.8,1.6-2.6,2.6c-1.4,1.9-2.2,4.5-2.2,7c0.1,2.6,0.9,5,2.4,7
												c0.7,1,1.6,1.8,2.6,2.6c1,0.6,1.9,1.3,3,1.6c2.1,0.8,4.3,0.8,6.2,0.5c1.9-0.4,3.7-1.3,5-2.2c2.7-2.1,3.9-4.7,4.4-6.6
												C258.2,217.5,258.2,216.5,258.2,216.5c0,0,0,0.1,0,0.2s0,0.4,0,0.6c0,0.2,0,0.6-0.1,1c-0.1,0.4-0.1,0.8-0.2,1.3
												c-0.2,1-0.6,2.1-1.3,3.3s-1.7,2.5-3,3.5c-1.4,1-3.1,2-5.1,2.4c-2,0.4-4.3,0.4-6.5-0.5c-1.1-0.4-2.2-0.9-3.1-1.6
												c-1-0.6-1.8-1.6-2.6-2.6c-1.6-2-2.5-4.6-2.5-7.3c0-2.6,0.8-5.3,2.4-7.3c0.7-1,1.6-1.9,2.6-2.6c1-0.7,2-1.4,3.1-1.7
												c2.2-0.8,4.5-0.9,6.5-0.6c2,0.4,3.8,1.3,5.2,2.3c1.4,1,2.4,2.3,3.1,3.5c0.6,1.2,1.1,2.3,1.4,3.3c0.2,0.5,0.2,0.9,0.2,1.3
												s0.1,0.6,0.1,1c0,0.2,0,0.5,0,0.6C258.2,216.4,258.2,216.5,258.2,216.5z"/>
										</g>
									</g>
									<g>
										<g>
											<path class="st28" d="M243.1,210.8c0,0,0.2,0.1,0.6,0.4c0.6,0.3,1.2,0.6,2,1c1.7,0.9,4.2,2.2,7.1,3.8l0.3,0.2l-0.3,0.2
												c-1.5,0.9-3.1,1.8-4.7,2.7c-1.7,1-3.4,1.9-4.9,2.8l-0.3,0.2v-0.4c0-3.3,0-6.1,0.1-8c0-0.9,0-1.6,0-2.2
												C243.1,211.1,243.1,210.8,243.1,210.8s0,0.3,0.1,0.9c0,0.6,0.1,1.4,0.1,2.3c0.1,1.9,0.2,4.7,0.2,7.8l-0.3-0.2
												c1.5-0.9,3.1-1.8,4.8-2.8c1.7-1,3.3-1.9,4.7-2.7v0.4c-2.7-1.6-5.1-3-6.8-3.9c-0.8-0.5-1.5-0.9-2-1.2
												C243.4,211.1,243.2,210.8,243.1,210.8z"/>
										</g>
									</g>
								</g>
							</g>
							<g>
								<g>
									<g>
										<g>
											
												<ellipse transform="matrix(1 -8.265256e-03 8.265256e-03 1 -1.9378 1.72)" class="st31" cx="207.1" cy="235.3" rx="1.3" ry="0.2"/>
										</g>
									</g>
									<g>
										<g>
											
												<ellipse transform="matrix(1 -8.264964e-03 8.264964e-03 1 -1.9386 1.6776)" class="st31" cx="202" cy="235.4" rx="1.3" ry="0.2"/>
										</g>
									</g>
									<g>
										<g>
											
												<ellipse transform="matrix(1 -8.265256e-03 8.265256e-03 1 -1.9388 1.6353)" class="st31" cx="196.9" cy="235.4" rx="1.3" ry="0.2"/>
										</g>
									</g>
									<g>
										<g>
											
												<ellipse transform="matrix(1 -8.265256e-03 8.265256e-03 1 -1.939 1.5923)" class="st31" cx="191.7" cy="235.4" rx="1.3" ry="0.2"/>
										</g>
									</g>
									<g>
										<g>
											
												<ellipse transform="matrix(1 -8.265256e-03 8.265256e-03 1 -1.9392 1.55)" class="st31" cx="186.6" cy="235.4" rx="1.3" ry="0.2"/>
										</g>
									</g>
									<g>
										<g>
											<path class="st31" d="M180.2,235.4c0-0.2,0.6-0.2,1.3-0.2s1.3,0.1,1.3,0.2c0,0.2-0.6,0.2-1.3,0.2
												C180.8,235.7,180.2,235.5,180.2,235.4z"/>
										</g>
									</g>
									<g>
										<g>
											<path class="st31" d="M176.6,232.2c0.2,0,0.4,0.5,0.7,1c0.4,0.6,0.7,1,0.6,1.1c-0.1,0.1-0.6-0.2-1-0.8
												C176.6,232.9,176.5,232.2,176.6,232.2z"/>
										</g>
									</g>
									<g>
										<g>
											
												<ellipse transform="matrix(1 -8.265255e-03 8.265255e-03 1 -1.882 1.4658)" class="st31" cx="176.4" cy="228.4" rx="0.2" ry="1.3"/>
										</g>
									</g>
									<g>
										<g>
											
												<ellipse transform="matrix(1 -8.265255e-03 8.265255e-03 1 -1.8397 1.465)" class="st31" cx="176.3" cy="223.3" rx="0.2" ry="1.3"/>
										</g>
									</g>
									<g>
										<g>
											
												<ellipse transform="matrix(1 -8.264983e-03 8.264983e-03 1 -1.7973 1.4648)" class="st31" cx="176.3" cy="218.2" rx="0.2" ry="1.3"/>
										</g>
									</g>
									<g>
										<g>
											
												<ellipse transform="matrix(1 -8.264983e-03 8.264983e-03 1 -1.755 1.4639)" class="st31" cx="176.2" cy="213.1" rx="0.2" ry="1.3"/>
										</g>
									</g>
									<g>
										<g>
											
												<ellipse transform="matrix(1 -8.298310e-03 8.298310e-03 1 -1.7202 1.469)" class="st31" cx="176.2" cy="208" rx="0.2" ry="1.3"/>
										</g>
									</g>
									<g>
										<g>
											<path class="st31" d="M176.6,201.7c0.1,0.1-0.1,0.6-0.2,1.3c-0.1,0.6-0.2,1.3-0.3,1.3c-0.1,0-0.3-0.6-0.2-1.4
												C176.1,202.1,176.5,201.6,176.6,201.7z"/>
										</g>
									</g>
									<g>
										<g>
											<path class="st31" d="M180.7,199c0,0.2-0.6,0.2-1.2,0.4c-0.6,0.2-1.1,0.5-1.2,0.3c-0.1-0.1,0.4-0.6,1.1-0.7
												C180.1,198.7,180.7,198.9,180.7,199z"/>
										</g>
									</g>
									<g>
										<g>
											
												<ellipse transform="matrix(1 -8.265256e-03 8.265256e-03 1 -1.6384 1.5316)" class="st31" cx="184.5" cy="199" rx="1.3" ry="0.2"/>
										</g>
									</g>
									<g>
										<g>
											
												<ellipse transform="matrix(1 -8.232201e-03 8.232201e-03 1 -1.631 1.5676)" class="st31" cx="189.6" cy="198.9" rx="1.3" ry="0.2"/>
										</g>
									</g>
									<g>
										<g>
											
												<ellipse transform="matrix(1 -8.265256e-03 8.265256e-03 1 -1.6373 1.6169)" class="st31" cx="194.8" cy="198.9" rx="1.3" ry="0.2"/>
										</g>
									</g>
									<g>
										<g>
											
												<ellipse transform="matrix(1 -8.264983e-03 8.264983e-03 1 -1.6364 1.6592)" class="st31" cx="199.9" cy="198.8" rx="1.3" ry="0.2"/>
										</g>
									</g>
									<g>
										<g>
											
												<ellipse transform="matrix(1 -8.265276e-03 8.265276e-03 1 -1.6363 1.7009)" class="st31" cx="205" cy="198.8" rx="1.3" ry="0.2"/>
										</g>
									</g>
									<g>
										<g>
											<path class="st31" d="M211.1,199.9c-0.1,0.1-0.6-0.2-1.2-0.6c-0.6-0.3-1.1-0.5-1.1-0.6c0-0.1,0.6-0.2,1.4,0.2
												C210.8,199.4,211.2,199.8,211.1,199.9z"/>
										</g>
									</g>
									<g>
										<g>
											<path class="st31" d="M212.6,204.6c-0.2,0-0.2-0.6-0.2-1.3c0-0.6-0.1-1.2,0-1.3c0.1-0.1,0.4,0.6,0.5,1.3
												C212.9,204,212.7,204.6,212.6,204.6z"/>
										</g>
									</g>
									<g>
										<g>
											
												<ellipse transform="matrix(1 -8.264983e-03 8.264983e-03 1 -1.7154 1.7646)" class="st31" cx="212.6" cy="208.4" rx="0.2" ry="1.3"/>
										</g>
									</g>
									<g>
										<g>
											
												<ellipse transform="matrix(1 -8.265255e-03 8.265255e-03 1 -1.7577 1.7655)" class="st31" cx="212.7" cy="213.5" rx="0.2" ry="1.3"/>
										</g>
									</g>
									<g>
										<g>
											
												<ellipse transform="matrix(1 -8.265255e-03 8.265255e-03 1 -1.7994 1.7657)" class="st31" cx="212.7" cy="218.6" rx="0.2" ry="1.3"/>
										</g>
									</g>
									<g>
										<g>
											
												<ellipse transform="matrix(1 -8.265255e-03 8.265255e-03 1 -1.8424 1.7665)" class="st31" cx="212.8" cy="223.8" rx="0.2" ry="1.3"/>
										</g>
									</g>
									<g>
										<g>
											
												<ellipse transform="matrix(1 -8.265255e-03 8.265255e-03 1 -1.8847 1.7667)" class="st31" cx="212.8" cy="228.9" rx="0.2" ry="1.3"/>
										</g>
									</g>
									<g>
										<g>
											<path class="st31" d="M210.7,234.5c-0.1-0.1,0.4-0.5,0.8-1c0.5-0.6,0.7-1,0.9-0.9c0.1,0.1,0,0.6-0.6,1.2
												C211.4,234.4,210.8,234.7,210.7,234.5z"/>
										</g>
									</g>
								</g>
							</g>
							<g>
								<g>
									<g>
										<g>
											
												<ellipse transform="matrix(1 -8.264983e-03 8.264983e-03 1 -2.3393 2.1454)" class="st31" cx="258.4" cy="284.1" rx="1.3" ry="0.2"/>
										</g>
									</g>
									<g>
										<g>
											
												<ellipse transform="matrix(1 -8.264983e-03 8.264983e-03 1 -2.3402 2.1038)" class="st31" cx="253.4" cy="284.2" rx="1.3" ry="0.2"/>
										</g>
									</g>
									<g>
										<g>
											
												<ellipse transform="matrix(1 -8.265256e-03 8.265256e-03 1 -2.3404 2.0615)" class="st31" cx="248.2" cy="284.2" rx="1.3" ry="0.2"/>
										</g>
									</g>
									<g>
										<g>
											
												<ellipse transform="matrix(1 -8.265277e-03 8.265277e-03 1 -2.3413 2.0186)" class="st31" cx="243" cy="284.3" rx="1.3" ry="0.2"/>
										</g>
									</g>
									<g>
										<g>
											
												<ellipse transform="matrix(1 -8.265256e-03 8.265256e-03 1 -2.3414 1.9762)" class="st31" cx="237.9" cy="284.3" rx="1.3" ry="0.2"/>
										</g>
									</g>
									<g>
										<g>
											<path class="st31" d="M231.5,284.3c0-0.2,0.6-0.2,1.3-0.2c0.6,0,1.3,0.1,1.3,0.2c0,0.2-0.6,0.2-1.3,0.2
												C232.2,284.5,231.5,284.4,231.5,284.3z"/>
										</g>
									</g>
									<g>
										<g>
											<path class="st31" d="M227.9,281.1c0.2,0,0.4,0.5,0.7,1c0.4,0.6,0.7,1,0.6,1.1c-0.1,0.1-0.6-0.2-1-0.8
												C227.8,281.7,227.8,281.1,227.9,281.1z"/>
										</g>
									</g>
									<g>
										<g>
											
												<ellipse transform="matrix(1 -8.265256e-03 8.265256e-03 1 -2.2842 1.8914)" class="st31" cx="227.7" cy="277.3" rx="0.2" ry="1.3"/>
										</g>
									</g>
									<g>
										<g>
											
												<ellipse transform="matrix(1 -8.264983e-03 8.264983e-03 1 -2.2412 1.8911)" class="st31" cx="227.7" cy="272.1" rx="0.2" ry="1.3"/>
										</g>
									</g>
									<g>
										<g>
											
												<ellipse transform="matrix(1 -8.234740e-03 8.234740e-03 1 -2.1909 1.8833)" class="st31" cx="227.6" cy="267" rx="0.2" ry="1.3"/>
										</g>
									</g>
									<g>
										<g>
											
												<ellipse transform="matrix(1 -8.265255e-03 8.265255e-03 1 -2.1566 1.8902)" class="st31" cx="227.6" cy="261.9" rx="0.2" ry="1.3"/>
										</g>
									</g>
									<g>
										<g>
											
												<ellipse transform="matrix(1 -8.265256e-03 8.265256e-03 1 -2.115 1.8893)" class="st31" cx="227.5" cy="256.8" rx="0.2" ry="1.3"/>
										</g>
									</g>
									<g>
										<g>
											<path class="st31" d="M228,250.5c0.1,0.1-0.1,0.6-0.2,1.3c-0.1,0.6-0.2,1.3-0.3,1.3c-0.1,0-0.3-0.6-0.2-1.4
												C227.4,251,227.8,250.4,228,250.5z"/>
										</g>
									</g>
									<g>
										<g>
											<path class="st31" d="M232.1,247.9c0,0.2-0.6,0.2-1.2,0.4c-0.6,0.2-1.1,0.5-1.2,0.3c-0.1-0.1,0.4-0.6,1.1-0.7
												C231.4,247.6,232.1,247.8,232.1,247.9z"/>
										</g>
									</g>
									<g>
										<g>
											
												<ellipse transform="matrix(1 -8.265256e-03 8.265256e-03 1 -2.0406 1.9578)" class="st31" cx="235.8" cy="247.9" rx="1.3" ry="0.2"/>
										</g>
									</g>
									<g>
										<g>
											
												<ellipse transform="matrix(1 -8.265234e-03 8.265234e-03 1 -2.0398 2.0001)" class="st31" cx="241" cy="247.8" rx="1.3" ry="0.2"/>
										</g>
									</g>
									<g>
										<g>
											
												<ellipse transform="matrix(1 -8.265256e-03 8.265256e-03 1 -2.0396 2.0431)" class="st31" cx="246.2" cy="247.8" rx="1.3" ry="0.2"/>
										</g>
									</g>
									<g>
										<g>
											
												<ellipse transform="matrix(1 -8.265256e-03 8.265256e-03 1 -2.0388 2.0847)" class="st31" cx="251.2" cy="247.7" rx="1.3" ry="0.2"/>
										</g>
									</g>
									<g>
										<g>
											
												<ellipse transform="matrix(1 -8.264983e-03 8.264983e-03 1 -2.0385 2.127)" class="st31" cx="256.3" cy="247.7" rx="1.3" ry="0.2"/>
										</g>
									</g>
									<g>
										<g>
											<path class="st31" d="M262.4,248.8c-0.1,0.1-0.6-0.2-1.2-0.6c-0.6-0.3-1.1-0.5-1.1-0.6c0-0.1,0.6-0.2,1.4,0.2
												C262.1,248.2,262.6,248.7,262.4,248.8z"/>
										</g>
									</g>
									<g>
										<g>
											<path class="st31" d="M263.9,253.4c-0.2,0-0.2-0.6-0.2-1.3c0-0.6-0.1-1.2,0-1.3c0.1-0.1,0.4,0.6,0.5,1.3
												C264.2,252.9,264.1,253.4,263.9,253.4z"/>
										</g>
									</g>
									<g>
										<g>
											
												<ellipse transform="matrix(1 -8.265255e-03 8.265255e-03 1 -2.1177 2.1915)" class="st31" cx="264.1" cy="257.3" rx="0.2" ry="1.3"/>
										</g>
									</g>
									<g>
										<g>
											
												<ellipse transform="matrix(1 -8.264983e-03 8.264983e-03 1 -2.1599 2.1916)" class="st31" cx="264.1" cy="262.4" rx="0.2" ry="1.3"/>
										</g>
									</g>
									<g>
										<g>
											
												<ellipse transform="matrix(1 -8.264983e-03 8.264983e-03 1 -2.2016 2.1918)" class="st31" cx="264.1" cy="267.5" rx="0.2" ry="1.3"/>
										</g>
									</g>
									<g>
										<g>
											
												<ellipse transform="matrix(1 -8.264983e-03 8.264983e-03 1 -2.2439 2.1926)" class="st31" cx="264.2" cy="272.6" rx="0.2" ry="1.3"/>
										</g>
									</g>
									<g>
										<g>
											
												<ellipse transform="matrix(1 -8.265255e-03 8.265255e-03 1 -2.2863 2.1929)" class="st31" cx="264.2" cy="277.7" rx="0.2" ry="1.3"/>
										</g>
									</g>
									<g>
										<g>
											<path class="st31" d="M262.1,283.4c-0.1-0.1,0.4-0.5,0.8-1c0.5-0.6,0.7-1,0.9-0.9c0.1,0.1,0,0.6-0.6,1.2
												C262.8,283.3,262.2,283.5,262.1,283.4z"/>
										</g>
									</g>
								</g>
							</g>
							<g>
								<path class="st30" d="M252.6,321.3h-57.8c-4.2,0-7.6-3.4-7.6-7.6l0,0c0-4.2,3.4-7.6,7.6-7.6h57.8c4.2,0,7.6,3.4,7.6,7.6l0,0
									C260.2,317.9,256.8,321.3,252.6,321.3z"/>
								<g>
									<path class="st28" d="M213.9,317.6c-1.5,0-2.6-0.9-2.6-2.1h1c0.1,0.6,0.5,1.3,1.6,1.3c1,0,1.5-0.6,1.5-1.3
										c0-2.1-4.2-0.7-4.2-3.6c0-1.3,1-2.1,2.6-2.1c1.4,0,2.4,0.8,2.6,2h-1.1c-0.1-0.5-0.6-1.1-1.4-1.1c-0.8,0-1.4,0.4-1.4,1.2
										c0,2,4.1,0.7,4.1,3.6C216.5,316.6,215.5,317.6,213.9,317.6z"/>
									<path class="st28" d="M222,310.7h-3.1v2.6h2.8v0.8h-2.8v2.6h3.1v0.8h-4.1v-7.7h4.1V310.7z"/>
									<path class="st28" d="M229.5,309.9v7.7h-1l-4-6.1v6.1h-1v-7.7h1l4,6.1v-6.1H229.5z"/>
									<path class="st28" d="M237.7,313.7c0,2.4-1.5,3.8-4.1,3.8h-2.4v-7.6h2.4C236.1,309.9,237.7,311.4,237.7,313.7z
										 M233.6,316.7c2,0,3-1.1,3-3c0-1.8-1-3-3-3h-1.4v6H233.6z"/>
								</g>
							</g>
						</g>
					</g>
				</g>
			</g>
		</g>
		<g>
			<g>
				<g class="st32">
					<g>
						<path class="st2" d="M59.3,48.7l-1.4,0.8l0,0c-0.3,0.2-0.6,0.1-0.8-0.2c-0.2-0.2-0.1-0.6,0.2-0.8l1.4-0.9
							c0.3-0.2,0.6-0.1,0.8,0.2C59.6,48.1,59.6,48.6,59.3,48.7L59.3,48.7L59.3,48.7z"/>
						<path class="st2" d="M56,50.9c-0.9,0.6-1.7,1.3-2.5,2c-0.2,0.2-0.6,0.2-0.8-0.1c-0.2-0.2-0.2-0.6,0.1-0.8
							c0.8-0.7,1.7-1.4,2.6-2.1c0.2-0.2,0.6-0.2,0.8,0.1C56.3,50.3,56.2,50.7,56,50.9L56,50.9z"/>
						<path class="st2" d="M51.8,54.5c-0.8,0.7-1.5,1.5-2.2,2.2c-0.2,0.2-0.6,0.2-0.8,0c-0.2-0.2-0.2-0.6,0-0.8
							c0.7-0.8,1.5-1.6,2.2-2.3c0.2-0.2,0.6-0.2,0.8,0C52,53.9,52,54.3,51.8,54.5L51.8,54.5z"/>
						<path class="st2" d="M48,58.6c-0.6,0.8-1.4,1.7-1.9,2.5c-0.2,0.2-0.6,0.3-0.8,0.1C45,61,45,60.6,45.1,60.3
							c0.6-0.9,1.3-1.8,2-2.6c0.2-0.2,0.6-0.2,0.8-0.1C48.2,57.9,48.2,58.3,48,58.6L48,58.6z"/>
						<path class="st2" d="M44.6,63.1c-0.6,0.9-1.1,1.8-1.7,2.7c-0.2,0.2-0.5,0.3-0.7,0.2c-0.2-0.2-0.3-0.5-0.2-0.7
							c0.6-1,1.1-1.8,1.7-2.8c0.2-0.2,0.5-0.3,0.7-0.2C44.6,62.5,44.8,62.8,44.6,63.1L44.6,63.1z"/>
						<path class="st2" d="M41.8,67.9c-0.5,1-0.9,1.9-1.3,2.9c-0.1,0.2-0.4,0.4-0.7,0.3c-0.2-0.1-0.4-0.4-0.3-0.7c0.4-1,0.9-2,1.4-3
							c0.2-0.2,0.5-0.4,0.7-0.2C41.9,67.3,42,67.6,41.8,67.9L41.8,67.9z"/>
						<path class="st2" d="M39.8,73c-0.3,1-0.6,2-0.8,3c-0.1,0.2-0.3,0.5-0.6,0.4c-0.2-0.1-0.5-0.3-0.4-0.6c0.2-1,0.5-2.2,0.8-3.2
							c0.1-0.2,0.4-0.4,0.6-0.3C39.7,72.4,39.8,72.7,39.8,73L39.8,73z"/>
						<path class="st2" d="M38.6,78.4c-0.2,1-0.2,2.1-0.2,3.1c0,0.2-0.2,0.5-0.5,0.5c-0.2,0-0.5-0.2-0.5-0.5c0-1.1,0.1-2.2,0.2-3.3
							c0-0.2,0.3-0.5,0.6-0.5C38.4,77.9,38.6,78.1,38.6,78.4L38.6,78.4z"/>
						<path class="st2" d="M38.6,83.9c0.2,1,0.3,2.1,0.6,3c0.1,0.2-0.1,0.6-0.3,0.6s-0.6-0.1-0.6-0.3c-0.3-1-0.6-2.2-0.7-3.2
							c0-0.2,0.2-0.5,0.4-0.6C38.2,83.5,38.5,83.6,38.6,83.9L38.6,83.9z"/>
						<path class="st2" d="M40,89.1c0.5,1,1,1.8,1.6,2.7c0.2,0.2,0.1,0.5-0.1,0.6c-0.2,0.2-0.5,0.1-0.6-0.1
							c-0.6-0.9-1.2-1.8-1.7-2.9c-0.1-0.2,0-0.6,0.2-0.6C39.7,88.8,39.9,88.9,40,89.1L40,89.1z"/>
						<path class="st2" d="M43.1,93.7c0.7,0.8,1.5,1.5,2.3,2.2c0.2,0.2,0.2,0.5,0.1,0.6c-0.2,0.2-0.5,0.2-0.6,0.1
							c-0.9-0.6-1.7-1.4-2.4-2.2c-0.2-0.2-0.2-0.5,0-0.6C42.6,93.5,42.9,93.5,43.1,93.7L43.1,93.7z"/>
						<path class="st2" d="M47.4,97.1c0.9,0.6,1.8,1.1,2.7,1.6l0,0c0.2,0.1,0.3,0.4,0.2,0.6c-0.1,0.2-0.4,0.3-0.6,0.2
							c-1-0.5-1.9-1-2.9-1.6l0,0c-0.2-0.2-0.2-0.4-0.2-0.6C46.8,97.1,47.1,97.1,47.4,97.1L47.4,97.1z"/>
						<path class="st2" d="M52.2,99.7c1,0.4,2,0.7,3,1c0.2,0.1,0.3,0.3,0.3,0.6c-0.1,0.2-0.3,0.3-0.6,0.3c-1-0.3-2.1-0.6-3.1-1
							c-0.2-0.1-0.3-0.3-0.2-0.6C51.8,99.7,52,99.6,52.2,99.7L52.2,99.7z"/>
						<path class="st2" d="M57.6,101.2c1,0.2,2.1,0.3,3.1,0.4c0.2,0,0.4,0.2,0.4,0.5s-0.2,0.4-0.4,0.4c-1.1-0.1-2.2-0.2-3.2-0.4
							c-0.2-0.1-0.4-0.2-0.3-0.5C57.1,101.4,57.4,101.2,57.6,101.2L57.6,101.2z"/>
						<path class="st2" d="M63.1,101.8c1,0,2.1-0.1,3.2-0.2c0.2,0,0.4,0.2,0.4,0.3c0,0.2-0.2,0.4-0.3,0.4c-1,0.2-2.2,0.2-3.3,0.2
							c-0.2,0-0.4-0.2-0.4-0.4S62.9,101.8,63.1,101.8L63.1,101.8z"/>
						<path class="st2" d="M68.6,101.1c1-0.2,2.1-0.5,3-0.8c0.2-0.1,0.4,0.1,0.5,0.2c0.1,0.2-0.1,0.4-0.2,0.5
							c-1,0.3-2.1,0.6-3.1,0.9c-0.2,0.1-0.4-0.1-0.5-0.3C68.2,101.5,68.4,101.2,68.6,101.1L68.6,101.1z"/>
						<path class="st2" d="M73.9,99.5c1-0.4,1.9-0.9,2.8-1.4c0.2-0.1,0.4-0.1,0.5,0.1c0.1,0.2,0.1,0.4-0.1,0.5c-1,0.6-1.9,1-2.9,1.5
							c-0.2,0.1-0.4,0-0.5-0.2C73.6,99.8,73.7,99.6,73.9,99.5L73.9,99.5z"/>
						<path class="st2" d="M78.6,96.7c0.8-0.6,1.5-1.4,2.2-2.2c0.1-0.2,0.3-0.2,0.5-0.1c0.2,0.1,0.2,0.3,0.1,0.5
							c-0.6,0.9-1.4,1.7-2.2,2.4c-0.2,0.2-0.4,0.1-0.5-0.1C78.6,97,78.5,96.8,78.6,96.7L78.6,96.7z"/>
						<path class="st2" d="M81.9,92.4c0.4-1,0.6-2,0.6-3c0-0.2,0.2-0.3,0.3-0.3s0.3,0.2,0.3,0.3c0,1.1-0.2,2.2-0.6,3.3
							c-0.1,0.2-0.2,0.2-0.5,0.2C81.8,92.7,81.8,92.6,81.9,92.4L81.9,92.4z"/>
						<path class="st2" d="M82.3,87.1c-0.1-0.5-0.2-1-0.4-1.5c-0.2-0.5-0.4-1-0.6-1.4l0,0c-0.1-0.2,0-0.3,0.2-0.4
							c0.2-0.1,0.3,0,0.4,0.2c0.2,0.5,0.5,1,0.6,1.5c0.2,0.5,0.3,1,0.5,1.6c0,0.2-0.1,0.3-0.2,0.4S82.3,87.2,82.3,87.1L82.3,87.1z"
							/>
						<path class="st2" d="M79.9,82.3c-0.7-0.7-1.6-1.4-2.5-1.8c-0.2-0.1-0.2-0.2-0.2-0.4c0.1-0.2,0.2-0.2,0.4-0.2
							c1,0.5,1.9,1.1,2.7,1.9c0.2,0.2,0.1,0.3,0,0.5C80.3,82.4,80.1,82.3,79.9,82.3L79.9,82.3z"/>
						<path class="st2" d="M75.2,79.6c-1-0.2-2.1-0.3-3.1-0.3c-0.2,0-0.3-0.2-0.3-0.3s0.2-0.3,0.3-0.3c1.1,0,2.2,0.1,3.3,0.3
							c0.2,0,0.2,0.2,0.2,0.4C75.5,79.6,75.4,79.7,75.2,79.6L75.2,79.6z"/>
						<path class="st2" d="M69.8,79.5c-1,0.2-2.1,0.3-3.1,0.6c-0.2,0-0.3-0.1-0.3-0.2c0-0.2,0.1-0.3,0.2-0.3c1-0.3,2.1-0.5,3.2-0.6
							c0.2,0,0.3,0.1,0.3,0.2C70,79.3,69.9,79.5,69.8,79.5L69.8,79.5z"/>
						<path class="st2" d="M64.3,80.8c-1,0.4-2,0.8-3,1.3c-0.2,0.1-0.3,0-0.3-0.2c-0.1-0.2,0-0.3,0.2-0.3c1-0.5,2-0.9,3-1.3
							c0.2-0.1,0.3,0,0.3,0.2C64.5,80.7,64.5,80.7,64.3,80.8L64.3,80.8z"/>
						<path class="st2" d="M59.3,83.1c-1,0.6-1.8,1.1-2.7,1.8c-0.1,0.1-0.2,0.1-0.3-0.1c-0.1-0.1-0.1-0.2,0.1-0.3
							c0.9-0.6,1.8-1.2,2.7-1.8c0.2-0.1,0.3,0,0.3,0.1C59.4,82.9,59.4,83.1,59.3,83.1L59.3,83.1z"/>
						<path class="st2" d="M54.7,86.3c-0.8,0.6-1.6,1.4-2.4,2.2c-0.1,0.1-0.2,0.1-0.3,0s-0.1-0.2,0-0.3c0.8-0.8,1.6-1.5,2.4-2.2
							c0.1-0.1,0.2-0.1,0.3,0C54.8,86.1,54.8,86.3,54.7,86.3L54.7,86.3z"/>
						<path class="st2" d="M50.7,90.3c-0.7,0.8-1.4,1.6-2,2.5c-0.1,0.1-0.2,0.2-0.3,0.1c-0.1-0.1-0.2-0.2-0.1-0.3
							c0.6-0.9,1.3-1.8,2-2.6c0.1-0.1,0.2-0.1,0.3,0C50.8,90,50.8,90.2,50.7,90.3L50.7,90.3z"/>
						<path class="st2" d="M47.4,94.7c-0.6,0.9-1,1.8-1.5,2.8c-0.1,0.1-0.2,0.2-0.2,0.1c-0.1-0.1-0.2-0.2-0.1-0.2
							c0.5-1,1-1.9,1.5-2.9c0.1-0.1,0.2-0.2,0.3-0.1C47.4,94.5,47.4,94.7,47.4,94.7L47.4,94.7z"/>
						<path class="st2" d="M44.9,99.8c-0.4,1-0.7,2-1,3c0,0.1-0.2,0.2-0.2,0.2c-0.1,0-0.2-0.2-0.2-0.2c0.2-1,0.6-2.1,1-3.1
							c0-0.1,0.2-0.2,0.2-0.1C44.9,99.5,45,99.6,44.9,99.8L44.9,99.8z"/>
						<path class="st2" d="M43.4,105.1c-0.2,1-0.3,2.1-0.4,3.2c0,0.1-0.1,0.2-0.2,0.2s-0.2-0.1-0.2-0.2c0.1-1,0.2-2.2,0.4-3.2
							c0-0.1,0.1-0.2,0.2-0.2C43.4,105,43.4,105.1,43.4,105.1L43.4,105.1z"/>
						<path class="st2" d="M43,110.7c0,1,0.1,2.2,0.2,3.2c0,0.1-0.1,0.2-0.2,0.2s-0.2-0.1-0.2-0.2c-0.2-1-0.2-2.2-0.2-3.2
							c0-0.1,0.1-0.2,0.2-0.2S43,110.7,43,110.7L43,110.7z"/>
						<path class="st2" d="M43.5,116.3c0.2,1,0.4,2.1,0.7,3.1c0,0.1,0,0.2-0.1,0.2c-0.1,0-0.2,0-0.2-0.1c-0.3-1-0.6-2.1-0.7-3.1
							C43.3,116.3,43.3,116.2,43.5,116.3C43.6,116.2,43.5,116.2,43.5,116.3L43.5,116.3z"/>
						<path class="st2" d="M45,121.7c0.3,1,0.8,2,1.3,3c0,0.1,0,0.2-0.1,0.2c-0.1,0-0.2,0-0.2-0.1c-0.5-1-0.9-1.9-1.3-3
							c0-0.1,0-0.2,0.1-0.2C44.9,121.5,45,121.6,45,121.7L45,121.7z"/>
						<path class="st2" d="M47.4,126.7c0.6,0.9,1.2,1.8,1.9,2.6c0.1,0.1,0,0.2,0,0.2c-0.1,0.1-0.2,0-0.2,0c-0.7-0.8-1.4-1.7-2-2.6
							c0-0.1,0-0.2,0-0.2S47.4,126.7,47.4,126.7L47.4,126.7z"/>
						<path class="st2" d="M51,130.9c0.8,0.7,1.7,1.4,2.6,1.9c0.1,0,0.1,0.1,0,0.2c0,0.1-0.1,0.1-0.2,0c-0.9-0.6-1.8-1.2-2.6-1.9
							c-0.1-0.1-0.1-0.1,0-0.2C51,130.9,51,130.9,51,130.9L51,130.9z"/>
						<path class="st2" d="M55.7,134.1c1,0.5,1.9,1,3,1.3c0.1,0,0.1,0.1,0.1,0.1c0,0.1-0.1,0.1-0.1,0.1c-1-0.4-2-0.8-3-1.3
							C55.6,134.3,55.6,134.2,55.7,134.1C55.6,134,55.7,134,55.7,134.1L55.7,134.1z"/>
						<path class="st2" d="M60.9,136.1c1,0.3,2.1,0.6,3.1,0.8l0.1,0.1l-0.1,0.1c-1-0.2-2.1-0.5-3.1-0.7c-0.1,0-0.1-0.1-0.1-0.1
							L60.9,136.1L60.9,136.1z"/>
						<path class="st2" d="M66.4,137.3c1,0.2,2.2,0.2,3.2,0.3c0,0,0.1,0,0.1,0.1c0,0,0,0.1-0.1,0.1c-1-0.1-2.2-0.2-3.2-0.3
							C66.3,137.4,66.3,137.4,66.4,137.3C66.3,137.3,66.4,137.3,66.4,137.3L66.4,137.3z"/>
						<path class="st2" d="M72,137.8h3.2h0.1c0,0,0,0.1-0.1,0.1L72,137.8C72,137.9,72,137.9,72,137.8L72,137.8L72,137.8z"/>
						<path class="st2" d="M77.6,137.6l3.2-0.2l0,0l0,0L77.6,137.6C77.6,137.7,77.6,137.7,77.6,137.6
							C77.6,137.7,77.6,137.7,77.6,137.6L77.6,137.6z"/>
						<path class="st2" d="M83.3,137.1l3.2-0.5l0,0l0,0L83.3,137.1C83.2,137.1,83.2,137.1,83.3,137.1
							C83.2,137.1,83.2,137.1,83.3,137.1L83.3,137.1z"/>
						<polygon class="st2" points="88.8,136.1 90.4,135.8 88.8,136.2 88.8,136.2 						"/>
					</g>
				</g>
				<g>
					<path class="st2" d="M69.4,20.5c0.1-0.2-11.6,7-11.6,7l3,19.7l5.7-14.7l15.1-2.9l21.5-20.2L69.4,20.5z"/>
					<polygon class="st33" points="103.1,9.4 60.8,47.2 66.5,32.5 					"/>
					<polygon class="st34" points="103.1,9.4 47.1,21.3 57.8,27.5 103.1,9.4 66.5,32.5 84.6,43.6 					"/>
				</g>
			</g>
		</g>
		<g>
			<g>
				<g>
					<path class="st35" d="M35.3,195.7c0,0-26.7-4.2-1.7,65.4h39.6C73.2,261.1,62.6,192.6,35.3,195.7z"/>
					<path class="st36" d="M90.1,241.8l-4.4-0.2c-10.5-0.4-18.9,8.6-17.6,19l11.8,75.1h5l-1.3-64.7c0.1-2,1.8-3.6,3.8-3.6l0,0
						c1.8,0,3.4,1.3,3.7,3l14.9,66.1h3.9L92.2,263l4.2-11.9C98,246.6,94.8,241.9,90.1,241.8z"/>
					<path class="st35" d="M84.4,272.7h-29c-4.2,0-7.7-3.4-7.7-7.7l0,0c0-4.2,3.4-7.7,7.7-7.7h29c4.2,0,7.7,3.4,7.7,7.7l0,0
						C92,269.2,88.6,272.7,84.4,272.7z"/>
				</g>
				<g>
					<g>
						<path class="st12" d="M81.9,182.7c-0.4-0.8-0.9-1.7-1.2-2.6c-1.6-4-2.2-8.2-2.9-12.4c-0.1-0.5-0.3-4-0.6-4.2l-20.3-6.9
							c-0.6,0.2-1.5,2.3-1.8,2.9c-0.6,1.1-1.2,2.2-1.7,3.4c-1,2.4-1.6,4.8-2.1,7.4c-0.7,3.8-1.2,7.5-1.6,11.4
							c-0.3,3.5-0.7,6.7-2.2,9.9c-0.9,1.8-2.6,3.5-3.2,5.4c2.7-0.2,4.4-1.4,6.5-3.3c-0.2,2.1,0.6,4.7,1,6.8c0.9,3.6,2.4,6.9,4.2,9.8
							c1.5,2.5,3.2,4.5,5.4,6.3c0.8,0.7,1.7,1.4,2.6,2c0.9,0.6,1,0.4,1.9-0.1c3.1-1.8,6.5-4,9-7c2.8-3.5,4.6-7.2,6.2-11.7
							c0.6-1.8,1.4-4.1,1.4-6.2c0-1.5-0.9-3-0.9-4.4c1.4,1,2.6,1.8,3.5,3.6c-0.3-0.6,0-2.2,0-3C84.5,187.1,83.1,185,81.9,182.7z"/>
					</g>
					<path class="st15" d="M76.1,206l0.8,6.2l2.4,18.7h5.9l-1.8-18.7l-0.8-8.5l-0.5-5.1c-0.2-2.5-1.6-4.6-3.7-5.9l-1.4-0.9l-0.8,12
						L76.1,206z"/>
					<g>
						<path class="st16" d="M104,305l-5.4,1.8L84,254.6l-1.2-4.3c0,0-1,0.6-2.5,1.5c-1,0.6-2.3,1.5-3.7,2.3c-2.4,1.6-5,3.3-6.6,4.6
							c-1,0.7-1.6,1.3-1.7,1.5l-1.6-8.1l-3.6-18.2l-0.1-0.2h19.3c6.2,0,11.4,4.4,12.4,10.5L104,305z"/>
						<path class="st16" d="M76.8,243.5L76.8,243.5c4.8,0.2,7.6,4.6,7.2,9.4l-4.9,68.2H74l-4.6-68.7
							C69.2,247.5,71.8,243.4,76.8,243.5z"/>
						<path class="st12" d="M103.8,323.5c-2.1-3.8-5-8.7-5.3-17.5c1.1,3.8,2.2,7.4,3.4,10c1.5,3.4,6.4,1.1,5.4-2.6
							c-1.3-4.9-4.2-10.1-4.2-10.1l0,0c5,7,6.6,10.4,6.9,18.1C110.2,325.6,105.9,327.1,103.8,323.5z"/>
						<path class="st16" d="M101.9,315.9c-1.2-2.6-2.2-6.2-3.4-10l4.6-2.7c0,0,2.9,5.2,4.2,10.1
							C108.3,317.1,103.4,319.4,101.9,315.9z"/>
						<path class="st12" d="M74,320.9c0,0,2.6,17.4,7.7,13.6c0.2,1.4,0.6,2.6,1.4,3.4c2.2,2.7-5,3.7-7.8,2.5
							c-2.8-1.2-1.1-10.6-1.1-10.6S70.2,324.2,74,320.9z"/>
						<path class="st16" d="M81.6,334.5c-5,3.8-7.7-13.6-7.7-13.6h5c0.3,0.9,0.6,1.8,0.9,2.6c0.1,0.3,0.2,0.6,0.2,1
							c0.2,0.6,0.2,1.1,0.4,1.7C80.9,328.7,81.3,331.5,81.6,334.5z"/>
						<path class="st16" d="M81.3,246.7c0,1.8-0.4,3.6-1,5.2c-0.6,1.4-1.5,2.8-2.6,4c-2,2.2-4.6,3.7-7.7,4.2
							c-0.6,0.1-1.2,0.2-1.8,0.2c-4.2,0.5-7.8,0.6-10.7,0.6c-14.7-0.3-13.9-6.5-13.9-6.5c-1.9-10.7,6.1-20.4,6.1-20.4h30.2v0.1
							l1.4,11c0,0.1,0,0.2,0,0.2C81.2,245.7,81.3,246.2,81.3,246.7z"/>
						<path class="st15" d="M82.2,233.8c-0.7,0-1.5,0.2-2.3,0.3c-4.4,1-10.2,4.5-11.5,15.8c-0.3,2.9-0.4,6.4-0.1,10.4
							c-4.2,0.5-7.8,0.6-10.7,0.6c-14.7-0.3-13.9-6.5-13.9-6.5c-1.9-10.7,6.1-20.4,6.1-20.4H63l-0.1-0.2H82.2z"/>
						<path class="st12" d="M68.3,260.3c-4.2,0.5-7.8,0.6-10.7,0.6c0.1-0.1,0.2-0.1,0.4-0.2c2.5-0.9,6-4.9,8.7-8.5
							c0.6-0.8,1.2-1.6,1.7-2.3C68,252.8,68,256.3,68.3,260.3z"/>
					</g>
					<path class="st11" d="M77.6,201.5c3.2,4.2,1.2,10.2-2.1,12.2c0,0-0.2,2-0.6,4.2c-0.5,3.8-0.6,7.8-0.1,11.7l0.6,5.1l-24.7-0.2
						l-3-34.3l3.2-12.6l4.2-0.5c0.9-0.1,2.6-0.2,4.2-0.2c0.9,0,1.6,0,2.1,0.1l7.8,1c0.2-0.2,9.8,4.6,9.8,5L77.6,201.5z"/>
					<path class="st15" d="M44.9,232.7l28.1-6.7l-0.4-4.9l-24.3,3.1l2.2-14.2c0.1-0.6,0.2-1.3,0.2-1.9c0.4-2.9,0.6-5.8,0.7-8.7
						c0.1-3.8,0-7.7-0.4-11.5l-2.1,0.6c-4.2,1.2-7,5-7.1,9.2l-0.1,1.6l-0.6,8.7l-1.4,20.2C39.3,231.1,42,233.3,44.9,232.7z"/>
					<path class="st16" d="M59.3,187L59.3,187c1.2,0,2.1-1,2.1-2.2c0-0.6,0-1.3,0-1.5v-0.7l0.2-3.1l8,2.1l-0.3,4.9
						c0,0.1,0,0.1,0,0.2c0,0.8,0.4,1.6,1.2,1.9c0.5,0.2,1,0.5,1.6,0.8c-0.4,3.2-3.1,5.7-6.4,5.7c-3.6,0-6.5-2.9-6.5-6.5
						C59.1,188,59.2,187.5,59.3,187z"/>
					<path class="st17" d="M69.6,181.6l-0.3,4.8c-0.1,0-0.2,0-0.2,0c-3,0.2-5.8-1.4-7.6-3.8l0.2-3.1L69.6,181.6z"/>
					<path class="st12" d="M78,201.3c-0.1-0.2-0.5-0.2-0.4,0.1c0.7,2.1,1.7,4.1,1.4,6.3c-0.4,2.6-1.8,5.1-4.4,5.9
						c-0.2,0.1-0.2,0.5,0.1,0.4c2.2-0.6,3.6-2.3,4.3-4.5C79.9,206.5,78.9,204.3,78,201.3z"/>
					<path class="st12" d="M68.4,202.4c0-0.2-0.5-0.3-0.5-0.1c0,2.2,0.2,4.5-0.9,6.4c-1.4,2.2-3.8,4-6.9,3.6c-0.3-0.1-0.3,0.4,0,0.4
						c2.6,0.3,4.6-0.6,6.2-2.3C68.4,208.1,68.3,205.5,68.4,202.4z"/>
					<g>
						<path class="st16" d="M78.4,166.7c-0.5,0-1,0.2-1.6,0.5c-0.7-3.2-2.5-6.6-4.6-9c-0.9-1.2-1.9-1.9-3-2.4
							c-0.6-0.3-1.2-0.5-1.8-0.5c-0.4,0-0.8,0-1.2,0c-0.4,0-0.8,0-1.2,0.1c-0.6,0.1-1.2,0.2-1.8,0.6c-1.1,0.5-2.1,1.3-3,2.5
							c-2.1,2.4-3.8,5.9-4.4,9.1c-0.6-0.3-1.1-0.5-1.6-0.4c-1.6,0.2-2.1,2.7-1.6,4.6c0.6,2.5,2.5,3.2,4.2,3.7
							c0.8,1.6,1.9,3.2,3.3,4.5c1.4,1.6,3.1,2.7,5.1,3.2c0.1,0,0.1,0,0.2,0s0.2,0.1,0.3,0.1s0.2,0,0.2,0s0.2,0,0.2,0
							c0.2,0,0.3,0,0.5,0c0.2,0,0.3,0,0.5,0c0.1,0,0.2,0,0.2,0c0.1,0,0.2,0,0.2,0c0.1,0,0.2-0.1,0.3-0.1s0.1,0,0.2-0.1
							c2-0.5,3.7-1.7,5-3.4c1.3-1.4,2.4-3,3.1-4.6c1.7-0.5,3.6-1.3,4.1-3.8C80.5,169.3,80,166.7,78.4,166.7z"/>
						<g>
							<g>
								<path class="st12" d="M66,178.2c-1.1-0.3-2.4-1.1-3-3c-0.1-0.2,0.1-0.3,0.2-0.4c0.2-0.1,0.3,0.1,0.4,0.2
									c1,3.4,4.4,2.8,4.6,2.8c0.2,0,0.3,0.1,0.3,0.2c0,0.2-0.1,0.3-0.2,0.3C68.3,178.3,67.2,178.5,66,178.2z"/>
							</g>
							<g>
								
									<ellipse transform="matrix(0.9967 -8.161772e-02 8.161772e-02 0.9967 -13.758 5.7194)" class="st12" cx="63.1" cy="171.1" rx="1" ry="1"/>
							</g>
							<g>
								
									<ellipse transform="matrix(0.9967 -8.157120e-02 8.157120e-02 0.9967 -13.7106 6.3675)" class="st12" cx="71.1" cy="171" rx="1" ry="1"/>
							</g>
							<g>
								<path class="st12" d="M60.8,168.7L60.8,168.7c-0.2-0.1-0.2-0.2-0.2-0.4c0.7-1.8,2.3-1.8,3.1-1.4c0.2,0.1,0.2,0.2,0.2,0.4
									c-0.1,0.2-0.2,0.2-0.4,0.2c-0.1,0-1.6-0.6-2.3,1.1C61.2,168.7,61,168.7,60.8,168.7z"/>
							</g>
							<g>
								<path class="st12" d="M69.6,167.5L69.6,167.5c-0.1-0.2,0-0.3,0.1-0.4c1.7-0.9,2.9,0.2,3.3,0.8c0.1,0.2,0,0.3-0.1,0.4
									c-0.2,0.1-0.3,0.1-0.4-0.1c0-0.1-0.9-1.4-2.6-0.6C69.9,167.6,69.7,167.6,69.6,167.5z"/>
							</g>
							<g>
								<path class="st12" d="M68,175.1c-0.2,0-0.3-0.2-0.3-0.2c0-0.2,0.2-0.3,0.2-0.3c0,0,0.6,0,0.6-0.3c0.1-0.2,0.1-0.6-0.6-1.5
									c-0.1-0.2-0.1-0.3,0-0.4c0.2-0.1,0.3-0.1,0.4,0c0.7,0.9,1,1.6,0.7,2.1C68.8,175.1,68,175.1,68,175.1L68,175.1z"/>
							</g>
						</g>
						<path class="st18" d="M74.8,178.2c0.2,1.8,1.8,3,3.5,2.9c1.8-0.2,3-1.8,2.9-3.5c-0.1-0.8-0.5-1.4-1-2c0-0.2,0-0.2,0-0.4
							c-0.1-1.1-1.1-2-2.2-1.8c-1,0.1-1.8,1-1.8,1.9C75.2,175.9,74.7,177.1,74.8,178.2z M79.6,175.1c-0.6-0.3-1.2-0.5-1.9-0.4
							c-0.3,0-0.6,0.1-0.8,0.2c0.2-0.5,0.6-0.9,1.2-1C78.8,173.9,79.4,174.4,79.6,175.1z M77.8,175.3c0.6-0.1,1.3,0.2,1.8,0.5
							c-0.2,0.6-0.6,1-1.2,1c-0.7,0.1-1.4-0.5-1.5-1.2C77.1,175.5,77.4,175.4,77.8,175.3z M75.5,178.2c-0.1-0.8,0.2-1.6,0.8-2.1
							c0.3,0.9,1.2,1.5,2.2,1.4c0.7-0.1,1.4-0.6,1.7-1.1c0.3,0.4,0.5,0.8,0.6,1.4c0.2,1.4-0.9,2.7-2.3,2.8
							C76.8,180.6,75.6,179.5,75.5,178.2z"/>
						<path class="st18" d="M51.6,178.3c0.2,1.8,1.8,3,3.5,2.9c1.8-0.2,3-1.8,2.9-3.5c-0.1-0.8-0.5-1.4-1-2c0-0.2,0-0.2,0-0.4
							c-0.1-1.1-1.1-2-2.2-1.8c-1,0.1-1.8,1-1.8,1.9C52,176.1,51.5,177.1,51.6,178.3z M56.4,175.2c-0.6-0.3-1.2-0.5-1.9-0.4
							c-0.3,0-0.6,0.1-0.8,0.2c0.2-0.5,0.6-0.9,1.2-1C55.6,174,56.2,174.5,56.4,175.2z M54.5,175.5c0.6-0.1,1.3,0.2,1.8,0.5
							c-0.2,0.6-0.6,1-1.2,1c-0.7,0.1-1.4-0.5-1.5-1.2C53.9,175.6,54.2,175.5,54.5,175.5z M52.2,178.3c-0.1-0.8,0.2-1.6,0.8-2.1
							c0.3,0.9,1.2,1.5,2.2,1.4c0.7-0.1,1.4-0.6,1.7-1.1c0.3,0.4,0.5,0.8,0.6,1.4c0.2,1.4-0.9,2.7-2.3,2.8
							C53.6,180.7,52.4,179.7,52.2,178.3z"/>
					</g>
					<g>
						<g>
							<path class="st19" d="M70.8,181.9L70.8,181.9L70.8,181.9L70.8,181.9z"/>
						</g>
					</g>
					<path class="st12" d="M91.4,210.2h-7c-0.6,0-1.2,0.4-1.4,1l-5.1,17c-0.3,1,0.4,1.9,1.4,1.9h7.3c0.6,0,1.2-0.4,1.4-1l4.8-17
						C93.1,211.1,92.4,210.2,91.4,210.2z"/>
					<g>
						<path class="st16" d="M74.4,225.7c2.2,1.4,13.2,2.9,11.6-1.1c0,0,2.2-1.8-0.4-3.1c0,0-0.2-1.7-2.6-2c0,0-1.1,0.2-0.2,1.3
							l0.4,0.4c0,0-2.5,0.6-3-0.2l0.8-2.6c0,0-1.4,0.1-6.6,2.4l-2.9,0.6l1,4.6L74.4,225.7z"/>
						<path class="st17" d="M85.3,221.4c-1.5,1-3.2,1.5-5,1.4c-0.2,0-0.2,0.4,0,0.4c1.9,0.1,3.7-0.4,5.2-1.5
							C85.7,221.6,85.6,221.2,85.3,221.4z"/>
						<path class="st17" d="M86.4,222.6c-1.5,1.1-3.2,1.7-5.1,1.6c-0.2,0-0.2,0.4,0,0.4c1.9,0,3.8-0.6,5.3-1.7
							C86.8,222.8,86.6,222.4,86.4,222.6z"/>
						<path class="st17" d="M85.6,224.6c-1.5,0.9-3.2,1.1-4.9,0.8c-0.2-0.1-0.4,0.3-0.1,0.4c1.8,0.4,3.6,0.1,5.2-0.8
							C86.1,224.8,85.9,224.5,85.6,224.6z"/>
					</g>
					<g>
						<path class="st12" d="M77.6,156.3c-2.4,0.1-4.6-1.4-6.9-2.6c-2.1-1.2-4.6-2-6.7-0.6c-0.6,0.4-0.6,0.5-1.4,0.3
							c-0.6-0.1-1-0.2-1.6-0.2c-1.4,0.2-2.8,1.1-3.7,2.2c-1.1,1.4-2,3.8-2.3,5.5c-0.5,2.4-0.6,4.8-1.6,7c0.8,0.2,1.4-0.8,1.9-1.1
							c0.1,1.3-0.2,2.6,0.2,3.9c0.5,1.5,1.5,2.7,2.1,4.2c0-1.2,0.2-2.5,0.3-3.7c0.1-1,0.1-2.3,0.5-3.2c0.8-0.4,1.5-1,2.1-1.5
							c0.9-0.9,2.4-2.5,2.6-3.7c1.4,1.8,3.4-2.5,4.2-3.2c0.6,1,1.2,2.1,2.2,2.6c0.9,0.6,2.1,0.6,3,1.1c0.6,0.4,1.3,1.8,1.8,2.6
							c0.6,0.9,1.5,1.7,2.6,1.9c0.7-3.8,0.7-8.6-1.6-11.9C75.8,156.8,76.9,156.7,77.6,156.3z"/>
					</g>
					<path class="st12" d="M77.1,166.3l-4-1.9c0,0,3.1,5.6,2.1,10.8C75.2,175.2,77.2,173.1,77.1,166.3z"/>
				</g>
				<path class="st36" d="M34.8,241.1l4.4-0.2c10.5-0.4,18.9,8.6,17.6,19l-8,75h-5l-2.4-64.6c-0.1-2-1.8-3.6-3.8-3.6l0,0
					c-1.8,0-3.4,1.3-3.7,3l-11.2,65.9h-3.9l14-73.5l-4.2-11.9C27.1,245.9,30.2,241.3,34.8,241.1z"/>
			</g>
			<g>
				<g>
					<g>
						<path class="st11" d="M121.2,192.7c-0.8,11-0.8,22.6-3.1,33.4c0,0.2,0.2,0.2,0.2,0.1c2.3-10.9,2.3-22.4,3.1-33.5
							C121.6,192.5,121.2,192.5,121.2,192.7z"/>
						<g>
							<g>
								<path class="st19" d="M121.5,193c0-0.1,0-0.1,0-0.2c-0.1,0.1-0.2,0.1-0.3,0.2H121.5z"/>
							</g>
							<g>
								<path class="st11" d="M128.4,186.6c-1.5,0.4-3.1,0.5-4.6,0.9c-4.2,1.3-3.4,4.6-2.7,7.8c2.5-1,5.4-1,7.5-2.8
									c2.6-2.1,4.2-5.4,4.2-8.6C131.3,185.1,130.4,186.1,128.4,186.6z"/>
							</g>
						</g>
					</g>
					<g>
						<g>
							<path class="st11" d="M117.3,225.5L117.3,225.5l-0.2-0.1v-0.2c0-0.1,0.1-0.2,0.2-0.2v-50.4c-0.2-0.1-0.2-0.2-0.2-0.2v-0.1
								l0.1-0.1c0.2-0.1,0.4,0.1,0.5,0.2h0.1v50.9h-0.1C117.6,225.4,117.4,225.5,117.3,225.5z"/>
						</g>
						<g>
							<g>
								<path class="st11" d="M126.1,165.8c0.1,1-4.2,2.6-4.9,3c-1.6,0.8-3.6,1.8-4.2,3.7c-0.4,1.3-0.2,2.6,0.4,3.7
									c0.6-0.4,1.2-1.2,1.7-1.8c1.5-1.8,4-2.2,5.5-3.8C125.6,169.2,126.3,167.5,126.1,165.8z"/>
							</g>
						</g>
					</g>
					<g>
						<path class="st11" d="M114.8,195c0-0.2-0.3-0.2-0.3,0c-0.2,9.8,0.2,19.5,0.9,29.3c0,0.2,0.3,0.2,0.3,0
							C115,214.5,114.8,204.7,114.8,195z"/>
						<g>
							<path class="st11" d="M114.3,192c-0.6-1.3-1.7-1.8-2.7-2.7c-1-1-2.2-1.8-3-2.9c-0.8-1.1-1.2-2.3-1.8-3.5
								c-0.6,2.2,1,5.3,1.8,7.3c1.1,2.8,3.2,5,6.2,5.5l0.1,0.1C114.8,194.4,114.8,193.2,114.3,192z"/>
						</g>
					</g>
				</g>
				<path class="st30" d="M119.2,231.4H116c-1.5,0-2.7-1.2-2.7-2.7V201h8.7v27.7C121.9,230.2,120.7,231.4,119.2,231.4z"/>
				<path class="st37" d="M119.2,229.2H116c-1.1,0-2.1-0.9-2.1-2.1v-18.2h7.3v18.2C121.2,228.3,120.3,229.2,119.2,229.2z"/>
			</g>
			<g>
				<path class="st12" d="M40.5,334.6v-90.2h-4.2v90.2l-10.1,1.8c-0.6,0.1-0.9,0.5-0.9,1l0,0c0,0.6,0.6,1,1.2,1h23.9
					c0.6,0,1.2-0.4,1.2-1l0,0c0-0.5-0.4-0.8-0.9-1L40.5,334.6z"/>
				<path class="st30" d="M158.2,238.9H10c-4.1,0-7.4-3.4-7.4-7.4v-0.7h163.1v0.7C165.6,235.5,162.4,238.9,158.2,238.9z"/>
				<path class="st12" d="M149.2,245.7H21.8c-3.8,0-6.8-3-6.8-6.8l0,0h140.9l0,0C155.9,242.7,152.8,245.7,149.2,245.7z"/>
			</g>
		</g>
	</g>
</g>
</svg>
