<svg xmlns="http://www.w3.org/2000/svg" xmlns:xlink="http://www.w3.org/1999/xlink" width="4850" height="91" viewBox="0 0 4850 91">
    <defs>
        <path id="a" d="M0 0h4850v93H0z"/>
    </defs>
    <g fill="none" fill-rule="evenodd" transform="translate(0 -1)">
        <mask id="b" fill="#fff">
            <use xlink:href="#a"/>
        </mask>
        <g mask="url(#b)">
            <path fill="#31CB4B" d="M3344.485 74.611c202.086 0 202.086-69.444 404.17-69.444 202.082 0 202.082 69.444 404.164 69.444 202.08 0 202.08-69.444 404.159-69.444 202.082 0 202.082 69.444 404.164 69.444s202.082-69.444 404.164-69.444l.694 86.555H111.139v-17.11c202.086 0 202.086-69.445 404.172-69.445C717.4 5.167 717.4 74.61 919.485 74.61c202.086 0 202.086-69.444 404.17-69.444 202.082 0 202.082 69.444 404.164 69.444 202.08 0 202.08-69.444 404.159-69.444 202.082 0 202.082 69.444 404.164 69.444s202.082-69.444 404.164-69.444c202.093.158 202.322 69.444 404.179 69.444z"/>
            <path fill="#0CC32F" d="M1605.521 89.808c-1.942-.027-3.87-.056-5.775-.095-.974-.02-1.94-.043-2.904-.065a671.514 671.514 0 0 1-5.475-.153c-.882-.028-1.77-.054-2.643-.083-2.247-.08-4.464-.167-6.657-.264-.374-.017-.759-.03-1.13-.047a696.468 696.468 0 0 1-7.523-.388c-.75-.043-1.486-.092-2.23-.137a609.376 609.376 0 0 1-7.77-.516 627.332 627.332 0 0 1-4.703-.36c-.833-.066-1.672-.133-2.497-.204a582.072 582.072 0 0 1-5.23-.468c-.55-.051-1.112-.1-1.657-.152-2.23-.216-4.425-.444-6.595-.68-.655-.07-1.294-.145-1.943-.22a495.727 495.727 0 0 1-4.572-.531c-.81-.097-1.613-.199-2.414-.299-1.349-.17-2.686-.344-4.013-.52-.798-.109-1.597-.216-2.388-.325-1.41-.195-2.803-.398-4.19-.6-.644-.098-1.297-.188-1.935-.287-1.95-.293-3.877-.597-5.78-.91-.601-.097-1.187-.2-1.784-.3-1.342-.226-2.68-.453-3.999-.687-.78-.136-1.547-.276-2.317-.418a356.63 356.63 0 0 1-3.37-.623 382.322 382.322 0 0 1-5.693-1.115c-.719-.147-1.442-.29-2.155-.438-1.636-.34-3.255-.685-4.858-1.035-.692-.151-1.37-.307-2.057-.46-1.12-.251-2.236-.501-3.34-.757-.79-.183-1.572-.37-2.356-.554a730.94 730.94 0 0 1-2.739-.657c-.81-.198-1.616-.396-2.42-.596-.877-.218-1.75-.44-2.619-.66-.787-.202-1.576-.4-2.357-.605-.947-.247-1.884-.497-2.823-.748-1.311-.35-2.615-.705-3.907-1.062-.82-.225-1.64-.45-2.451-.677-.869-.245-1.728-.49-2.588-.736-.682-.196-1.365-.39-2.042-.588a546.76 546.76 0 0 1-2.641-.776c-.63-.185-1.257-.374-1.884-.561a627.8 627.8 0 0 1-2.712-.819c-.475-.144-.945-.291-1.417-.436a711.576 711.576 0 0 1-6.825-2.136c24.732 3.359 53.34 5.385 87.843 5.385 33.036 0 60.646-1.865 84.646-4.97 29.796 5.544 65.263 9.137 111.188 9.137 10.715 0 20.829-.207 30.468-.575-1.135.29-2.278.579-3.428.865-.864.214-1.735.425-2.607.637a463.453 463.453 0 0 1-20.06 4.396c-.736.145-1.47.29-2.212.43-1.48.283-2.975.56-4.484.833-.72.13-1.447.257-2.175.385a500.35 500.35 0 0 1-3.889.668c-.791.13-1.586.262-2.386.391-1.366.221-2.744.438-4.134.653-.68.103-1.357.207-2.042.308-1.717.256-3.45.505-5.204.748-.6.083-1.21.162-1.814.244-1.5.203-3.015.399-4.545.59-.525.066-1.044.135-1.573.197a505.42 505.42 0 0 1-7.607.873c-1.995.215-4.004.423-6.047.622-.375.036-.759.068-1.135.106-1.851.174-3.725.343-5.618.502l-1.661.142c-2.14.175-4.306.342-6.499.497-.536.04-1.076.075-1.614.111-2.093.145-4.205.28-6.35.407-.28.017-.557.036-.84.052-2.343.134-4.728.255-7.135.37-.57.024-1.143.052-1.716.078-2.418.107-4.864.206-7.349.29l-1.15.037c-2.306.075-4.642.139-7.006.194l-1.404.035c-2.577.055-5.193.097-7.84.129-.568.007-1.14.011-1.711.017-2.747.026-5.52.045-8.345.045-2.898 0-5.745-.018-8.56-.047-.884-.008-1.752-.022-2.627-.034zm-808.333 0c-1.942-.027-3.871-.056-5.775-.095-.973-.02-1.942-.043-2.905-.065a671.175 671.175 0 0 1-5.473-.153c-.883-.028-1.771-.054-2.646-.083a732.55 732.55 0 0 1-6.656-.264c-.373-.017-.758-.03-1.13-.047a696.462 696.462 0 0 1-7.522-.388c-.75-.043-1.486-.092-2.23-.137a609.72 609.72 0 0 1-5.158-.33 616.249 616.249 0 0 1-7.314-.547c-.836-.065-1.672-.132-2.5-.203a591.344 591.344 0 0 1-5.23-.468c-.549-.051-1.11-.1-1.657-.152a551.59 551.59 0 0 1-6.595-.68c-.654-.07-1.293-.145-1.941-.22a490.216 490.216 0 0 1-4.573-.531c-.81-.097-1.612-.199-2.413-.299-1.349-.17-2.687-.344-4.013-.52-.8-.109-1.599-.216-2.389-.325-1.41-.195-2.804-.398-4.189-.6-.644-.098-1.297-.188-1.936-.287a422.582 422.582 0 0 1-5.778-.91c-.602-.097-1.188-.2-1.786-.3-1.341-.226-2.679-.453-3.998-.687-.778-.136-1.548-.276-2.317-.418-1.13-.204-2.254-.41-3.37-.623-.791-.15-1.579-.3-2.36-.453-1.121-.217-2.23-.44-3.332-.663-.719-.146-1.444-.289-2.156-.437-1.635-.34-3.256-.685-4.86-1.035-.69-.151-1.37-.307-2.055-.46-1.12-.251-2.236-.501-3.34-.757-.79-.183-1.573-.37-2.356-.554-.917-.218-1.832-.437-2.739-.657-.81-.198-1.617-.396-2.42-.596-.877-.218-1.75-.44-2.619-.66-.787-.202-1.576-.4-2.357-.605-.947-.247-1.885-.497-2.823-.748-1.312-.35-2.616-.705-3.907-1.062-.82-.225-1.64-.45-2.452-.677-.868-.245-1.728-.49-2.587-.736-.682-.196-1.366-.39-2.042-.588-.885-.258-1.764-.515-2.642-.776-.629-.185-1.257-.374-1.883-.561-.906-.271-1.812-.545-2.712-.819-.475-.144-.945-.291-1.417-.436a711.514 711.514 0 0 1-6.825-2.136c24.732 3.359 53.339 5.385 87.843 5.385 33.036 0 60.647-1.865 84.647-4.97 29.795 5.544 65.261 9.137 111.186 9.137 10.716 0 20.83-.207 30.468-.575-1.134.29-2.277.579-3.429.865-.862.214-1.735.425-2.607.637-.691.168-1.389.335-2.086.502a463.35 463.35 0 0 1-17.972 3.894c-.736.145-1.47.29-2.213.43-1.479.283-2.975.56-4.483.833-.72.13-1.447.257-2.176.385-1.284.226-2.58.448-3.888.668-.792.13-1.586.262-2.385.391-1.368.221-2.745.438-4.136.653-.679.103-1.357.207-2.041.308-1.717.256-3.45.505-5.206.748-.599.083-1.208.162-1.812.244-1.5.203-3.014.399-4.545.59-.525.066-1.044.135-1.572.197a520.628 520.628 0 0 1-7.61.873c-1.993.215-4.003.423-6.046.622-.375.036-.757.068-1.134.106-1.852.174-3.725.343-5.618.502l-1.662.142c-2.138.175-4.305.342-6.5.497-.534.04-1.075.075-1.613.111-2.092.145-4.205.28-6.348.407-.282.017-.56.036-.841.052-2.343.134-4.728.255-7.135.37-.57.024-1.143.052-1.717.078-2.42.107-4.864.206-7.348.29l-1.15.037c-2.306.075-4.643.139-7.007.194l-1.403.035c-2.576.055-5.193.097-7.84.129-.568.007-1.14.011-1.711.017-2.748.026-5.52.045-8.345.045-2.898 0-5.744-.018-8.561-.047-.883-.008-1.75-.022-2.626-.034zm-808.334 0c-1.941-.027-3.87-.056-5.775-.095-.972-.02-1.941-.043-2.904-.065a671.172 671.172 0 0 1-5.473-.153c-.884-.028-1.771-.054-2.646-.083-2.246-.08-4.464-.167-6.656-.264-.373-.017-.758-.03-1.13-.047a696.463 696.463 0 0 1-7.523-.388c-.75-.043-1.486-.092-2.23-.137a609.718 609.718 0 0 1-5.157-.33 616.253 616.253 0 0 1-7.314-.547c-.836-.065-1.672-.132-2.5-.203a591.34 591.34 0 0 1-5.23-.468c-.55-.051-1.11-.1-1.658-.152a551.59 551.59 0 0 1-6.594-.68c-.654-.07-1.293-.145-1.942-.22a490.213 490.213 0 0 1-4.572-.531c-.81-.097-1.612-.199-2.414-.299-1.348-.17-2.686-.344-4.012-.52-.8-.109-1.599-.216-2.39-.325-1.409-.195-2.803-.398-4.188-.6-.644-.098-1.297-.188-1.936-.287a422.58 422.58 0 0 1-5.778-.91c-.603-.097-1.189-.2-1.786-.3-1.342-.226-2.68-.453-3.999-.687-.777-.136-1.547-.276-2.316-.418-1.13-.204-2.254-.41-3.37-.623-.791-.15-1.579-.3-2.36-.453-1.122-.217-2.23-.44-3.333-.663-.718-.146-1.443-.289-2.155-.437-1.635-.34-3.256-.685-4.86-1.035-.69-.151-1.37-.307-2.056-.46-1.12-.251-2.236-.501-3.34-.757-.79-.183-1.572-.37-2.355-.554-.917-.218-1.832-.437-2.74-.657-.81-.198-1.616-.396-2.419-.596-.878-.218-1.75-.44-2.62-.66-.787-.202-1.576-.4-2.356-.605a461.53 461.53 0 0 1-2.824-.748 463.07 463.07 0 0 1-3.907-1.062c-.82-.225-1.64-.45-2.451-.677a667.12 667.12 0 0 1-2.588-.736c-.682-.196-1.365-.39-2.041-.588-.885-.258-1.764-.515-2.642-.776-.63-.185-1.257-.374-1.883-.561-.906-.271-1.813-.545-2.713-.819-.475-.144-.944-.291-1.416-.436a711.507 711.507 0 0 1-6.825-2.136c24.731 3.359 53.338 5.385 87.843 5.385 33.036 0 60.647-1.865 84.647-4.97 29.794 5.544 65.26 9.137 111.186 9.137 10.715 0 20.83-.207 30.468-.575-1.135.29-2.278.579-3.43.865-.862.214-1.734.425-2.606.637a463.382 463.382 0 0 1-20.058 4.396c-.737.145-1.47.29-2.213.43-1.48.283-2.975.56-4.483.833-.721.13-1.448.257-2.177.385-1.283.226-2.58.448-3.887.668-.792.13-1.586.262-2.385.391-1.368.221-2.746.438-4.136.653-.68.103-1.357.207-2.042.308-1.716.256-3.45.505-5.205.748-.599.083-1.209.162-1.813.244-1.5.203-3.014.399-4.544.59-.525.066-1.045.135-1.572.197a520.605 520.605 0 0 1-7.61.873 567.46 567.46 0 0 1-6.046.622c-.375.036-.757.068-1.135.106-1.851.174-3.725.343-5.618.502l-1.66.142c-2.14.175-4.306.342-6.5.497-.536.04-1.076.075-1.615.111-2.091.145-4.204.28-6.347.407-.282.017-.56.036-.842.052a705.66 705.66 0 0 1-7.134.37c-.571.024-1.143.052-1.717.078-2.42.107-4.864.206-7.349.29l-1.15.037c-2.305.075-4.643.139-7.007.194l-1.402.035c-2.577.055-5.193.097-7.84.129-.569.007-1.14.011-1.712.017-2.747.026-5.52.045-8.344.045-2.899 0-5.745-.018-8.561-.047-.884-.008-1.75-.022-2.627-.034zm4041.667 0c-1.942-.027-3.87-.056-5.775-.095-.974-.02-1.94-.043-2.904-.065a671.514 671.514 0 0 1-5.475-.153c-.882-.028-1.77-.054-2.643-.083-2.247-.08-4.464-.167-6.657-.264-.374-.017-.759-.03-1.13-.047a696.468 696.468 0 0 1-7.523-.388c-.75-.043-1.486-.092-2.23-.137a609.376 609.376 0 0 1-7.77-.516 627.332 627.332 0 0 1-4.703-.36c-.833-.066-1.672-.133-2.497-.204a582.072 582.072 0 0 1-5.23-.468c-.55-.051-1.112-.1-1.657-.152-2.23-.216-4.425-.444-6.595-.68-.655-.07-1.294-.145-1.943-.22a495.727 495.727 0 0 1-4.572-.531c-.81-.097-1.613-.199-2.414-.299-1.349-.17-2.686-.344-4.013-.52-.798-.109-1.597-.216-2.388-.325-1.41-.195-2.803-.398-4.19-.6-.644-.098-1.297-.188-1.935-.287-1.95-.293-3.877-.597-5.78-.91-.601-.097-1.187-.2-1.784-.3-1.342-.226-2.68-.453-3.999-.687-.78-.136-1.547-.276-2.317-.418a356.63 356.63 0 0 1-3.37-.623 382.322 382.322 0 0 1-5.693-1.115c-.719-.147-1.442-.29-2.155-.438-1.636-.34-3.255-.685-4.858-1.035-.692-.151-1.37-.307-2.057-.46-1.12-.251-2.236-.501-3.34-.757-.79-.183-1.572-.37-2.356-.554a730.94 730.94 0 0 1-2.739-.657c-.81-.198-1.616-.396-2.42-.596-.877-.218-1.75-.44-2.619-.66-.787-.202-1.576-.4-2.357-.605-.947-.247-1.884-.497-2.823-.748-1.311-.35-2.615-.705-3.907-1.062-.82-.225-1.64-.45-2.451-.677-.869-.245-1.728-.49-2.588-.736-.682-.196-1.365-.39-2.042-.588a546.76 546.76 0 0 1-2.641-.776c-.63-.185-1.257-.374-1.884-.561a627.8 627.8 0 0 1-2.712-.819c-.475-.144-.945-.291-1.417-.436a711.576 711.576 0 0 1-6.825-2.136c24.732 3.359 53.34 5.385 87.843 5.385 33.036 0 60.646-1.865 84.646-4.97 29.796 5.544 65.263 9.137 111.188 9.137 10.715 0 20.829-.207 30.468-.575-1.135.29-2.278.579-3.428.865-.864.214-1.735.425-2.607.637a463.453 463.453 0 0 1-20.06 4.396c-.736.145-1.47.29-2.212.43-1.48.283-2.975.56-4.484.833-.72.13-1.447.257-2.175.385a500.35 500.35 0 0 1-3.889.668c-.791.13-1.586.262-2.386.391-1.366.221-2.744.438-4.134.653-.68.103-1.357.207-2.042.308-1.717.256-3.45.505-5.204.748-.6.083-1.21.162-1.814.244-1.5.203-3.015.399-4.545.59-.525.066-1.044.135-1.573.197a505.42 505.42 0 0 1-7.607.873c-1.995.215-4.004.423-6.047.622-.375.036-.759.068-1.135.106-1.851.174-3.725.343-5.618.502l-1.661.142c-2.14.175-4.306.342-6.499.497-.536.04-1.076.075-1.614.111-2.093.145-4.205.28-6.35.407-.28.017-.557.036-.84.052-2.343.134-4.728.255-7.135.37-.57.024-1.143.052-1.716.078-2.418.107-4.864.206-7.349.29l-1.15.037c-2.306.075-4.642.139-7.006.194l-1.404.035c-2.577.055-5.193.097-7.84.129-.568.007-1.14.011-1.711.017-2.747.026-5.52.045-8.345.045-2.898 0-5.745-.018-8.56-.047-.884-.008-1.752-.022-2.627-.034zm-808.333 0c-1.942-.027-3.871-.056-5.775-.095-.973-.02-1.942-.043-2.905-.065a671.187 671.187 0 0 1-5.473-.153c-.883-.028-1.771-.054-2.646-.083-2.246-.08-4.464-.167-6.656-.264-.373-.017-.758-.03-1.13-.047a696.457 696.457 0 0 1-7.522-.388c-.75-.043-1.486-.092-2.23-.137a609.73 609.73 0 0 1-5.158-.33 616.231 616.231 0 0 1-7.314-.547c-.836-.065-1.672-.132-2.5-.203a591.352 591.352 0 0 1-5.23-.468c-.549-.051-1.11-.1-1.657-.152a551.58 551.58 0 0 1-6.595-.68c-.654-.07-1.293-.145-1.941-.22a490.239 490.239 0 0 1-4.573-.531c-.81-.097-1.612-.199-2.413-.299-1.349-.17-2.687-.344-4.013-.52-.8-.109-1.599-.216-2.389-.325-1.41-.195-2.804-.398-4.189-.6-.644-.098-1.297-.188-1.936-.287a422.603 422.603 0 0 1-5.778-.91c-.602-.097-1.188-.2-1.786-.3-1.341-.226-2.679-.453-3.998-.687-.778-.136-1.548-.276-2.317-.418-1.13-.204-2.254-.41-3.37-.623a372.36 372.36 0 0 1-5.693-1.115c-.718-.147-1.443-.29-2.155-.438-1.635-.34-3.256-.685-4.86-1.035-.69-.151-1.37-.307-2.055-.46-1.12-.251-2.236-.501-3.34-.757-.79-.183-1.573-.37-2.356-.554-.917-.218-1.832-.437-2.739-.657-.81-.198-1.617-.396-2.42-.596-.877-.218-1.75-.44-2.619-.66-.787-.202-1.576-.4-2.357-.605-.947-.247-1.885-.497-2.823-.748-1.312-.35-2.616-.705-3.907-1.062-.82-.225-1.64-.45-2.452-.677-.868-.245-1.728-.49-2.587-.736-.682-.196-1.366-.39-2.042-.588a546.76 546.76 0 0 1-2.642-.776c-.629-.185-1.257-.374-1.883-.561-.906-.271-1.812-.545-2.712-.819-.475-.144-.945-.291-1.417-.436a711.576 711.576 0 0 1-6.825-2.136c24.732 3.359 53.339 5.385 87.843 5.385 33.036 0 60.647-1.865 84.647-4.97 29.795 5.544 65.261 9.137 111.186 9.137 10.716 0 20.83-.207 30.468-.575-1.134.29-2.277.579-3.429.865-.862.214-1.735.425-2.607.637-.691.168-1.389.335-2.086.502a463.35 463.35 0 0 1-17.972 3.894c-.736.145-1.47.29-2.213.43-1.479.283-2.975.56-4.483.833-.72.13-1.447.257-2.176.385-1.284.226-2.58.448-3.888.668-.792.13-1.586.262-2.385.391-1.368.221-2.745.438-4.136.653-.679.103-1.357.207-2.041.308-1.717.256-3.45.505-5.206.748-.599.083-1.208.162-1.812.244-1.5.203-3.014.399-4.545.59-.525.066-1.044.135-1.572.197a520.628 520.628 0 0 1-7.61.873c-1.993.215-4.003.423-6.046.622-.375.036-.757.068-1.134.106-1.852.174-3.725.343-5.618.502l-1.662.142c-2.138.175-4.305.342-6.5.497-.534.04-1.075.075-1.613.111-2.092.145-4.205.28-6.348.407-.282.017-.56.036-.841.052-2.343.134-4.728.255-7.135.37-.57.024-1.143.052-1.717.078-2.42.107-4.864.206-7.348.29l-1.15.037c-2.306.075-4.643.139-7.007.194l-1.403.035c-2.576.055-5.193.097-7.84.129-.568.007-1.14.011-1.711.017-2.748.026-5.52.045-8.345.045-2.898 0-5.744-.018-8.561-.047-.883-.008-1.75-.022-2.626-.034zm1616.666 0c-1.941-.027-3.87-.056-5.775-.095-.973-.02-1.94-.043-2.904-.065a671.514 671.514 0 0 1-5.475-.153c-.882-.028-1.77-.054-2.643-.083-2.247-.08-4.464-.167-6.657-.264-.373-.017-.758-.03-1.13-.047a696.468 696.468 0 0 1-7.523-.388c-.75-.043-1.486-.092-2.23-.137a609.352 609.352 0 0 1-7.77-.516 627.373 627.373 0 0 1-4.702-.36c-.834-.066-1.673-.133-2.498-.204a582.036 582.036 0 0 1-5.23-.468c-.55-.051-1.111-.1-1.657-.152-2.23-.216-4.425-.444-6.595-.68-.655-.07-1.294-.145-1.943-.22a495.727 495.727 0 0 1-4.572-.531c-.81-.097-1.612-.199-2.414-.299-1.348-.17-2.686-.344-4.012-.52-.799-.109-1.597-.216-2.39-.325-1.409-.195-2.802-.398-4.188-.6-.644-.098-1.297-.188-1.936-.287-1.95-.293-3.877-.597-5.78-.91-.6-.097-1.187-.2-1.784-.3-1.342-.226-2.68-.453-3.999-.687-.779-.136-1.547-.276-2.316-.418a356.69 356.69 0 0 1-3.37-.623 382.396 382.396 0 0 1-5.693-1.115c-.72-.147-1.443-.29-2.155-.438-1.636-.34-3.256-.685-4.859-1.035-.691-.151-1.37-.307-2.057-.46-1.12-.251-2.236-.501-3.34-.757-.79-.183-1.572-.37-2.354-.554-.918-.218-1.833-.437-2.742-.657-.808-.198-1.615-.396-2.416-.596-.88-.218-1.752-.44-2.623-.66-.786-.202-1.576-.4-2.355-.605-.947-.247-1.885-.497-2.822-.748-1.313-.35-2.616-.705-3.91-1.062-.818-.225-1.639-.45-2.45-.677-.868-.245-1.728-.49-2.589-.736-.68-.196-1.364-.39-2.04-.588-.885-.258-1.766-.515-2.642-.776-.63-.185-1.257-.374-1.883-.561-.907-.271-1.813-.545-2.713-.819-.473-.144-.944-.291-1.416-.436a711.4 711.4 0 0 1-6.825-2.136c24.731 3.359 53.338 5.385 87.843 5.385 33.036 0 60.645-1.865 84.645-4.97 29.796 5.544 65.263 9.137 111.188 9.137 10.715 0 20.83-.207 30.468-.575-1.135.29-2.278.579-3.428.865-.864.214-1.735.425-2.607.637a463.353 463.353 0 0 1-20.06 4.396c-.736.145-1.469.29-2.212.43-1.48.283-2.975.56-4.483.833-.721.13-1.448.257-2.175.385-1.286.226-2.582.448-3.89.668-.79.13-1.585.262-2.385.391-1.367.221-2.745.438-4.135.653-.68.103-1.357.207-2.042.308-1.716.256-3.45.505-5.204.748-.6.083-1.21.162-1.814.244-1.5.203-3.015.399-4.544.59-.525.066-1.045.135-1.574.197a505.419 505.419 0 0 1-7.607.873c-1.994.215-4.004.423-6.047.622-.375.036-.758.068-1.135.106-1.851.174-3.725.343-5.618.502l-1.66.142c-2.14.175-4.306.342-6.5.497-.536.04-1.076.075-1.613.111-2.093.145-4.206.28-6.35.407-.28.017-.557.036-.84.052-2.344.134-4.728.255-7.135.37-.571.024-1.143.052-1.717.078-2.418.107-4.864.206-7.349.29l-1.15.037c-2.305.075-4.641.139-7.005.194l-1.404.035c-2.578.055-5.193.097-7.84.129-.569.007-1.14.011-1.712.017-2.747.026-5.52.045-8.344.045-2.899 0-5.746-.018-8.561-.047-.884-.008-1.752-.022-2.627-.034zm-2425 0c-1.941-.027-3.87-.056-5.775-.095-.972-.02-1.941-.043-2.904-.065a671.162 671.162 0 0 1-5.473-.153c-.884-.028-1.771-.054-2.646-.083-2.246-.08-4.464-.167-6.656-.264-.373-.017-.758-.03-1.13-.047a696.468 696.468 0 0 1-7.523-.388c-.75-.043-1.486-.092-2.23-.137a609.703 609.703 0 0 1-5.157-.33 616.273 616.273 0 0 1-7.314-.547c-.836-.065-1.672-.132-2.5-.203a591.316 591.316 0 0 1-5.23-.468c-.55-.051-1.11-.1-1.658-.152a551.578 551.578 0 0 1-6.594-.68c-.654-.07-1.293-.145-1.942-.22a490.2 490.2 0 0 1-4.572-.531c-.81-.097-1.612-.199-2.414-.299-1.348-.17-2.686-.344-4.012-.52-.8-.109-1.599-.216-2.39-.325-1.409-.195-2.803-.398-4.188-.6-.644-.098-1.297-.188-1.936-.287a422.58 422.58 0 0 1-5.778-.91c-.603-.097-1.189-.2-1.786-.3-1.342-.226-2.68-.453-3.999-.687-.777-.136-1.547-.276-2.316-.418a356.69 356.69 0 0 1-3.37-.623c-.791-.15-1.579-.3-2.36-.453-1.122-.217-2.23-.44-3.333-.663-.718-.146-1.443-.289-2.155-.437-1.635-.34-3.256-.685-4.86-1.035-.69-.151-1.37-.307-2.056-.46-1.12-.251-2.236-.501-3.34-.757-.79-.183-1.572-.37-2.355-.554-.917-.218-1.832-.437-2.74-.657-.81-.198-1.616-.396-2.419-.596-.878-.218-1.75-.44-2.62-.66-.787-.202-1.576-.4-2.356-.605-.947-.247-1.885-.497-2.824-.748-1.31-.35-2.615-.705-3.907-1.062-.82-.225-1.64-.45-2.451-.677-.868-.245-1.728-.49-2.588-.736-.682-.196-1.365-.39-2.041-.588-.885-.258-1.764-.515-2.642-.776-.63-.185-1.257-.374-1.883-.561a627.8 627.8 0 0 1-2.713-.819c-.475-.144-.944-.291-1.416-.436a711.4 711.4 0 0 1-6.825-2.136c24.731 3.359 53.338 5.385 87.843 5.385 33.036 0 60.647-1.865 84.647-4.97 29.794 5.544 65.26 9.137 111.186 9.137 10.715 0 20.83-.207 30.468-.575-1.135.29-2.278.579-3.43.865-.862.214-1.734.425-2.606.637a463.353 463.353 0 0 1-20.058 4.396c-.737.145-1.47.29-2.213.43-1.48.283-2.975.56-4.483.833-.721.13-1.448.257-2.177.385-1.283.226-2.58.448-3.887.668-.792.13-1.586.262-2.385.391-1.368.221-2.746.438-4.136.653-.68.103-1.357.207-2.042.308-1.716.256-3.45.505-5.205.748-.599.083-1.209.162-1.813.244-1.5.203-3.014.399-4.544.59-.525.066-1.045.135-1.572.197a520.572 520.572 0 0 1-7.61.873 567.46 567.46 0 0 1-6.046.622c-.375.036-.757.068-1.135.106-1.851.174-3.725.343-5.618.502l-1.66.142c-2.14.175-4.306.342-6.5.497-.536.04-1.076.075-1.615.111-2.091.145-4.204.28-6.347.407-.282.017-.56.036-.842.052-2.343.134-4.727.255-7.134.37-.571.024-1.143.052-1.717.078-2.42.107-4.864.206-7.349.29l-1.15.037c-2.305.075-4.643.139-7.007.194l-1.402.035c-2.577.055-5.193.097-7.84.129-.569.007-1.14.011-1.712.017-2.747.026-5.52.045-8.344.045-2.899 0-5.745-.018-8.561-.047-.884-.008-1.75-.022-2.627-.034z"/>
            <path fill="#2CB543" d="M1239.006 10.128c23.995-3.104 51.62-4.96 84.649-4.96 156.158 0 191.667 41.459 292.978 60.307-24 3.105-51.611 4.97-84.646 4.97-34.495 0-63.093-2.027-87.821-5.382-44.59-14.228-82.15-30.87-143.799-39.236-18.501-5.904-38.212-11.392-61.36-15.699zm-808.333 0c23.994-3.104 51.62-4.96 84.649-4.96 156.158 0 191.666 41.459 292.979 60.307-24.002 3.105-51.613 4.97-84.649 4.97-34.493 0-63.092-2.027-87.82-5.382-44.59-14.228-82.15-30.87-143.798-39.236-18.501-5.904-38.212-11.392-61.361-15.699zm3233.333 0c23.995-3.104 51.62-4.96 84.649-4.96 156.158 0 191.667 41.459 292.978 60.307-24 3.105-51.611 4.97-84.646 4.97-34.495 0-63.093-2.027-87.821-5.382-44.59-14.228-82.15-30.87-143.799-39.236-18.501-5.904-38.212-11.392-61.36-15.699zm-808.333 0c23.994-3.104 51.62-4.96 84.649-4.96 156.158 0 191.666 41.459 292.979 60.307-24.002 3.105-51.613 4.97-84.649 4.97-34.493 0-63.092-2.027-87.82-5.382-44.59-14.228-82.15-30.87-143.798-39.236-18.501-5.904-38.212-11.392-61.361-15.699zm1616.667 0c23.994-3.104 51.619-4.96 84.65-4.96 156.157 0 191.665 41.459 292.976 60.307-24 3.105-51.611 4.97-84.646 4.97-34.494 0-63.093-2.027-87.82-5.382-44.591-14.228-82.15-30.87-143.8-39.236-18.5-5.904-38.212-11.392-61.36-15.699zm-2425 0c23.994-3.104 51.619-4.96 84.648-4.96 156.159 0 191.667 41.459 292.98 60.307-24.002 3.105-51.613 4.97-84.65 4.97-34.492 0-63.09-2.027-87.819-5.382-44.59-14.228-82.15-30.87-143.798-39.236-18.502-5.904-38.213-11.392-61.361-15.699z"/>
            <path fill="#0CC32F" d="M1239.006 10.128c23.149 4.307 42.86 9.795 61.361 15.699-12.351-1.677-25.666-3.021-40.202-3.946a646.876 646.876 0 0 0-5.25-.313l-1.13-.06a917.663 917.663 0 0 0-4.236-.216l-1.557-.072a813.807 813.807 0 0 0-5.75-.238 775.608 775.608 0 0 0-5.773-.191c-1.242-.038-2.492-.07-3.747-.1l-2.103-.052c-1.275-.026-2.563-.05-3.853-.07-.69-.013-1.375-.027-2.07-.037a1030.2 1030.2 0 0 0-4.229-.047c-.598-.005-1.19-.014-1.795-.018a890.846 890.846 0 0 0-6.128-.022h-.011c-2.549 0-5.057.012-7.543.036-.384.003-.759.008-1.14.012-2.338.024-4.648.057-6.933.1h-.025c-5.051.096-9.98.231-14.772.416 16.9-4.336 35.445-8.106 56.886-10.88zm-808.333 0c23.149 4.307 42.86 9.795 61.361 15.699-12.351-1.677-25.667-3.021-40.203-3.946a646.886 646.886 0 0 0-5.25-.313l-1.129-.06a917.628 917.628 0 0 0-4.236-.216l-1.557-.072a813.834 813.834 0 0 0-5.75-.238 775.587 775.587 0 0 0-5.774-.191c-1.241-.038-2.491-.07-3.747-.1l-2.103-.052c-1.275-.026-2.562-.05-3.852-.07-.69-.013-1.375-.027-2.07-.037-1.397-.02-2.81-.033-4.229-.047-.599-.005-1.19-.014-1.796-.018a890.847 890.847 0 0 0-6.128-.022h-.01c-2.55 0-5.058.012-7.544.036-.383.003-.758.008-1.139.012a792.47 792.47 0 0 0-6.933.1h-.025c-5.051.096-9.98.231-14.772.416 16.9-4.336 35.444-8.106 56.886-10.88zm3233.333 0c23.149 4.307 42.86 9.795 61.361 15.699-12.351-1.677-25.666-3.021-40.202-3.946a646.876 646.876 0 0 0-5.25-.313l-1.13-.06a917.663 917.663 0 0 0-4.236-.216l-1.557-.072a813.807 813.807 0 0 0-5.75-.238 775.608 775.608 0 0 0-5.773-.191c-1.242-.038-2.492-.07-3.747-.1l-2.103-.052c-1.275-.026-2.563-.05-3.853-.07-.69-.013-1.375-.027-2.07-.037a1030.2 1030.2 0 0 0-4.229-.047c-.598-.005-1.19-.014-1.795-.018a890.846 890.846 0 0 0-6.128-.022h-.011c-2.549 0-5.057.012-7.543.036-.384.003-.759.008-1.14.012-2.338.024-4.648.057-6.933.1h-.025c-5.051.096-9.98.231-14.772.416 16.9-4.336 35.445-8.106 56.886-10.88zm-808.333 0c23.149 4.307 42.86 9.795 61.361 15.699-12.351-1.677-25.667-3.021-40.203-3.946a646.873 646.873 0 0 0-5.25-.313l-1.129-.06a917.592 917.592 0 0 0-4.236-.216l-1.557-.072a813.861 813.861 0 0 0-5.75-.238 775.608 775.608 0 0 0-5.774-.191c-1.241-.038-2.491-.07-3.747-.1l-2.103-.052c-1.275-.026-2.562-.05-3.852-.07-.69-.013-1.375-.027-2.07-.037-1.397-.02-2.81-.033-4.229-.047-.599-.005-1.19-.014-1.796-.018a890.846 890.846 0 0 0-6.128-.022h-.01c-2.55 0-5.058.012-7.544.036-.383.003-.758.008-1.139.012-2.339.024-4.648.057-6.933.1h-.025c-5.051.096-9.98.231-14.772.416 16.9-4.336 35.444-8.106 56.886-10.88zm1616.667 0c23.148 4.307 42.86 9.795 61.36 15.699-12.35-1.677-25.666-3.021-40.202-3.946a646.903 646.903 0 0 0-5.25-.313l-1.13-.06a898.903 898.903 0 0 0-4.237-.216l-1.555-.072a813.807 813.807 0 0 0-5.75-.238 775.522 775.522 0 0 0-5.774-.191c-1.24-.038-2.492-.07-3.749-.1l-2.102-.052c-1.274-.026-2.561-.05-3.852-.07-.69-.013-1.375-.027-2.07-.037a1030.2 1030.2 0 0 0-4.228-.047c-.599-.005-1.192-.014-1.795-.018a891.49 891.49 0 0 0-6.128-.022h-.012c-2.549 0-5.057.012-7.543.036-.382.003-.76.008-1.139.012-2.339.024-4.649.057-6.933.1h-.025c-5.052.096-9.98.231-14.773.416 16.9-4.336 35.445-8.106 56.887-10.88zm-2425 0c23.148 4.307 42.86 9.795 61.36 15.699-12.35-1.677-25.666-3.021-40.202-3.946a646.903 646.903 0 0 0-5.25-.313l-1.13-.06a917.663 917.663 0 0 0-4.235-.216l-1.557-.072a813.807 813.807 0 0 0-5.75-.238 775.522 775.522 0 0 0-5.774-.191c-1.242-.038-2.492-.07-3.747-.1l-2.103-.052a848.22 848.22 0 0 0-3.853-.07c-.69-.013-1.375-.027-2.07-.037a1030.2 1030.2 0 0 0-4.228-.047c-.599-.005-1.19-.014-1.796-.018a890.846 890.846 0 0 0-6.128-.022h-.011c-2.549 0-5.057.012-7.543.036-.383.003-.758.008-1.139.012-2.339.024-4.649.057-6.933.1h-.025c-5.052.096-9.98.231-14.773.416 16.9-4.336 35.445-8.106 56.887-10.88z"/>
            <path fill="#31CB4B" d="M2047.339 10.128c-21.442 2.775-39.986 6.544-56.885 10.88-115.924 4.434-158.418 34.1-232.167 53.028a793.86 793.86 0 0 1-30.468.575c-45.925 0-81.391-3.593-111.186-9.136C1739.442 49.586 1767.101 1 1936.144 1c45.92 0 81.403 3.586 111.195 9.128zM1127.81 1c45.92 0 81.403 3.586 111.196 9.128-21.443 2.775-39.986 6.544-56.886 10.88h.001c-115.924 4.434-158.42 34.1-232.168 53.028a793.86 793.86 0 0 1-30.468.575c-45.925 0-81.392-3.593-111.186-9.136C931.108 49.586 958.768 1 1127.81 1zM319.478 1c45.92 0 81.402 3.586 111.195 9.128-21.443 2.775-39.986 6.544-56.886 10.88h.002c-115.924 4.434-158.42 34.1-232.168 53.028a793.86 793.86 0 0 1-30.468.575c-45.925 0-81.392-3.593-111.186-9.136C122.775 49.586 150.435 1 319.477 1zm4152.86 9.128c-21.44 2.775-39.985 6.544-56.884 10.88-115.924 4.434-158.418 34.1-232.167 53.028a793.86 793.86 0 0 1-30.468.575c-45.925 0-81.391-3.593-111.186-9.136C4164.442 49.586 4192.101 1 4361.144 1c45.92 0 81.403 3.586 111.195 9.128zM3552.812 1c45.92 0 81.403 3.586 111.196 9.128-21.443 2.775-39.986 6.544-56.886 10.88h.001c-115.924 4.434-158.42 34.1-232.168 53.028a793.86 793.86 0 0 1-30.468.575c-45.925 0-81.392-3.593-111.186-9.136C3356.108 49.586 3383.768 1 3552.81 1zm1616.667 0c45.92 0 81.402 3.586 111.194 9.128-21.442 2.775-39.986 6.544-56.885 10.88h.002c-115.925 4.434-158.42 34.1-232.168 53.028a793.86 793.86 0 0 1-30.468.575c-45.925 0-81.392-3.593-111.186-9.136C4972.775 49.586 5000.435 1 5169.477 1zm-2425 0c45.92 0 81.402 3.586 111.195 9.128-21.443 2.775-39.986 6.544-56.886 10.88h.002c-115.924 4.434-158.42 34.1-232.168 53.028a793.86 793.86 0 0 1-30.468.575c-45.925 0-81.392-3.593-111.186-9.136C2547.775 49.586 2575.435 1 2744.477 1z" opacity=".4"/>
            <path fill="#F7F7F7" d="M3233.374 89.889c202.086 0 202.086-69.445 404.17-69.445 202.082 0 202.082 69.445 404.164 69.445 202.08 0 202.08-69.445 404.159-69.445 202.082 0 202.082 69.445 404.164 69.445s202.082-69.445 404.163-69.445L5254.89 92H.028v-2.111c202.086 0 202.086-69.445 404.172-69.445 202.088 0 202.088 69.445 404.174 69.445 202.086 0 202.086-69.445 404.17-69.445 202.082 0 202.082 69.445 404.164 69.445 202.08 0 202.08-69.445 404.159-69.445 202.082 0 202.082 69.445 404.164 69.445s202.082-69.445 404.163-69.445c202.094.158 202.323 69.445 404.18 69.445z"/>
        </g>
    </g>
</svg>
