<?xml version="1.0" encoding="UTF-8"?>
<svg width="664px" height="759px" viewBox="0 0 664 759" version="1.1" xmlns="http://www.w3.org/2000/svg" xmlns:xlink="http://www.w3.org/1999/xlink">
    <!-- Generator: Sketch 49.1 (51147) - http://www.bohemiancoding.com/sketch -->
    <title>strokes</title>
    <desc>Created with Sketch.</desc>
    <defs>
        <linearGradient x1="6.79970403%" y1="81.1172433%" x2="39.0131613%" y2="1.68691817%" id="linearGradient-1">
            <stop stop-color="#5266EF" offset="0%"></stop>
            <stop stop-color="#0094FF" offset="57.2842828%"></stop>
            <stop stop-color="#7509F4" offset="100%"></stop>
        </linearGradient>
    </defs>
    <g id="Symbols" stroke="none" stroke-width="1" fill="none" fill-rule="evenodd" opacity="0.710658482">
        <g id="strokes" transform="translate(322.879681, 384.787197) rotate(95.000000) translate(-322.879681, -384.787197) translate(-48.620319, 56.787197)" stroke="url(#linearGradient-1)" stroke-width="2">
            <path d="M226.318066,642.113987 C273.934085,656.62133 323.163302,662.41709 361.438743,643.19563 C401.403478,623.124234 416.671803,589.342118 431.683943,554.951001 C433.361823,551.103224 435.024484,547.268774 437.914799,544.194038 C439.123431,542.909394 440.532444,541.883115 441.842534,540.688694 C442.34983,540.226305 442.652939,539.912577 442.836833,539.691122 C443.160234,539.615254 443.644701,539.466592 444.403108,539.182596 C447.493806,538.027135 450.528701,536.87475 453.851486,536.04737 C454.158399,536.081203 458.604844,535.347122 458.754496,535.328667 C461.709492,534.974954 464.715218,534.737096 467.736162,534.549474 C488.258799,533.285336 509.017328,533.86563 528.918529,530.849333 C571.947328,524.329743 609.016674,509.380516 639.927453,488.283867 C672.6404,465.952811 696.096473,436.422423 712.60133,404.618022 C729.036434,372.944853 740.91983,337.079421 742.236261,300.903338 C743.499427,266.239503 725.210158,232.577342 693.946808,202.494342 C679.556105,188.648288 661.166645,177.368445 646.873596,163.270178 C612.196148,129.063607 600.139004,93.0331094 588.887191,78.5729284 C573.445118,58.7291392 549.212883,39.3446637 520.909602,31.1651881 C495.814965,23.9115167 474.681037,27.9643454 457.770343,38.8279357 C446.149473,46.2917841 437.970602,56.5053635 425.898239,63.5878174 C427.472123,62.5738413 420.755531,65.7326486 419.455587,66.1724825 C418.971119,66.3365231 414.699692,67.2479738 415.289423,67.2551506 C414.226639,67.3833073 413.151173,67.4930095 412.078243,67.5709288 C411.480902,67.6129642 406.957095,67.5053126 407.123234,67.6109137 C405.298239,67.4376458 403.469439,67.2274687 401.639371,66.9444987 C400.6679,66.7958369 399.692624,66.5959123 398.717349,66.4154677 C399.19928,66.376508 392.32289,64.6089703 391.309567,64.2788385 C389.582226,63.7211004 387.892933,63.1028723 386.179542,62.5102756 C393.72683,65.1215972 385.537813,62.1791185 384.234064,61.5926733 C379.339931,59.3965795 374.662667,56.9175155 369.982867,54.415896 C369.129342,53.9617085 368.473663,53.6151727 367.95749,53.3455309 C367.43878,53.0143739 366.696861,52.5448076 365.630272,51.8865946 C362.647375,50.0483144 359.632772,48.2346403 356.648606,46.39636 C350.675202,42.7197995 344.718286,39.026835 338.639618,35.4589514 C296.468148,10.7072718 243.977021,-8.11126357 198.259556,3.58278241 C161.09636,13.0899618 146.086756,44.829772 149.857229,75.3310756 C151.991675,92.6096795 159.074787,109.661702 170.387476,126.124204 C175.653202,133.783876 181.747089,141.194411 188.029943,148.504472 C191.996993,153.12324 196.028724,157.715353 200.059186,162.30849 C200.596919,162.921592 201.001487,163.380906 201.298255,163.717189 C201.491027,163.940694 201.69775,164.181629 201.945057,164.467675 C203.662252,166.463844 205.383252,168.456938 207.070009,170.462334 C213.194333,177.739587 219.039645,185.156273 223.918559,192.831324 C223.798076,192.639602 225.184261,195.017165 225.947741,196.271051 C226.589469,197.585426 227.732152,199.844061 227.640839,199.645161 C229.289549,203.241752 230.655442,206.881403 231.691593,210.525156 C231.60028,210.476969 232.401807,214.241701 232.442391,214.539025 C232.721403,216.533144 232.902761,218.520086 233.002952,220.498826 C233.164018,223.800143 232.986465,227.034819 232.761987,230.273596 C232.725208,230.83236 232.702379,231.258865 232.690965,231.57977 C232.598384,231.890422 232.480438,232.313852 232.33459,232.89312 C232.012458,234.144955 231.762615,235.412169 231.430336,236.661953 C230.428428,240.435913 229.118337,244.1176 227.563477,247.704963 C216.136647,274.076544 188.425633,294.9989 157.859815,312.001711 C120.223566,332.93637 80.0800096,351.667759 51.0855387,379.785347 C24.8647056,405.21472 1.53545648,437.681435 0.0503490725,473.35822 C-1.62626236,513.719391 38.4881246,547.732189 80.5860368,574.725073 C124.827272,603.089748 174.390037,626.293294 226.318066,642.113987" id="Stroke-1"></path>
            <path d="M249.057204,617.735192 C292.396722,631.313655 337.542211,636.44095 373.057965,618.928588 C409.689769,600.771341 424.42797,570.205447 438.892231,538.996718 C440.501626,535.510855 442.09707,532.033193 444.781931,529.2322 C445.900517,528.06341 447.197926,527.124278 448.407825,526.035458 C448.873269,525.615104 449.154818,525.329058 449.332371,525.122982 C449.63548,525.047113 450.080632,524.906654 450.769285,524.645214 C453.594921,523.569722 456.251881,522.076953 459.400917,521.714013 C459.710368,521.679154 463.700246,521.03632 463.873995,521.003512 C466.537296,520.512415 469.309666,520.391435 472.063012,520.181258 C490.78475,518.748979 509.69926,518.946853 527.823658,515.945934 C567.099739,509.396613 600.930004,495.35371 629.012612,475.989739 C658.795927,455.428273 680.271011,428.409757 695.477192,399.355086 C710.671959,370.344502 721.714512,337.588665 723.252886,304.595995 C724.820429,272.772114 708.682092,241.999118 681.144828,214.354172 C668.349568,201.508765 652.000704,190.58366 638.906141,177.21845 C607.819076,145.490943 596.175378,112.220429 585.246966,98.2277633 C570.734511,79.6224808 548.281615,61.5790374 522.167314,53.8691281 C499.330142,47.1793464 479.947651,50.618048 464.287441,60.1836669 C453.558142,66.7606706 445.875153,75.8116121 434.728604,82.1056458 C436.055181,81.2044476 430.017097,84.0187695 428.785638,84.4063155 C428.312585,84.5549773 424.47109,85.3649279 424.950484,85.3721047 C423.97394,85.4869331 422.988519,85.5853575 422.001829,85.6571253 C421.424781,85.6960849 417.357539,85.6027868 417.461535,85.7001859 C415.78746,85.5484484 414.112117,85.3649279 412.432969,85.1178417 C411.538861,84.9876345 410.643484,84.8123161 409.74684,84.654427 C410.104483,84.6257198 403.91421,83.0683592 402.945276,82.7761618 C401.353637,82.296343 399.806385,81.7427059 398.231233,81.2218769 C404.859048,83.5533043 397.489314,80.9583866 396.252781,80.4396082 C391.727706,78.544939 387.438523,76.3344916 383.12778,74.1404482 C382.346545,73.7405992 381.725108,73.4545534 381.255859,73.2033662 C380.752369,72.9326991 380.08147,72.5010672 379.10239,71.9238493 C376.356654,70.3049734 373.571602,68.7219814 370.818256,67.113358 C365.307759,63.895086 359.816286,60.668612 354.220817,57.5590169 C315.340426,36.0071547 267.579829,20.187487 226.369684,31.4181182 C193.131686,40.4762364 179.541241,69.0674919 182.733398,96.6939835 C184.536833,112.359863 190.755007,127.830944 200.746191,142.784273 C205.395554,149.748822 210.784299,156.490892 216.345526,163.147866 C219.857278,167.350381 223.415956,171.537518 226.994925,175.713377 C227.471783,176.26804 227.834499,176.683268 228.095756,176.992894 C228.2657,177.195894 228.449595,177.415299 228.667732,177.674688 C230.194691,179.487337 231.712773,181.305112 233.209294,183.131089 C238.634819,189.752179 243.815574,196.499375 248.140267,203.478278 C248.029931,203.329616 249.319729,205.444715 249.93863,206.603252 C250.56514,207.774092 251.521392,209.822549 251.438956,209.666711 C252.899967,212.931119 254.109867,216.234487 255.028071,219.539906 C254.945636,219.521451 255.654581,222.891461 255.69136,223.180582 C255.923448,224.990156 256.098465,226.790501 256.184705,228.584696 C256.325479,231.577412 256.165681,234.509638 255.964031,237.448016 C255.932325,237.95039 255.948813,238.339987 255.90062,238.629108 C255.853695,238.919255 255.71292,239.297574 255.58356,239.819428 C255.296938,240.954384 255.073728,242.104719 254.779497,243.237624 C253.886657,246.659922 252.721145,250.001224 251.337497,253.258456 C241.173833,277.200185 216.557322,296.317069 189.42082,311.972696 C156.002733,331.210561 120.225722,348.417397 94.6872013,374.208684 C71.356684,397.770044 50.2874361,427.752569 48.3533722,460.480724 C46.1402959,497.546728 80.8798877,528.94923 117.909918,554.092556 C156.806796,580.573839 201.074665,602.442505 249.057204,617.735192" id="Stroke-3"></path>
            <path d="M271.796342,593.355372 C310.859359,606.00598 351.968045,610.531451 384.678455,594.661546 C418.026789,578.484064 432.186673,551.066724 446.09925,523.04346 C447.64016,519.917461 449.168388,516.798638 451.647794,514.269337 C452.678872,513.217426 453.864675,512.36544 454.974384,511.382222 C455.395439,511.005954 455.659233,510.745539 455.829177,510.554842 C456.110726,510.478973 456.516562,510.34569 457.136731,510.106806 C459.696037,509.11231 462.123445,507.850222 464.952886,507.380656 C465.262336,507.329393 468.79438,506.725519 468.993494,506.678357 C471.373978,506.121644 473.904114,506.04475 476.389861,505.810992 C493.309432,504.213647 510.378656,504.02705 526.72752,501.042536 C562.252151,494.463482 592.845871,481.325878 618.09777,463.694587 C644.950186,444.903734 664.444281,420.39709 678.353054,394.09215 C692.307483,367.743125 702.430564,338.094833 704.270778,308.288652 C706.060263,279.301648 692.159099,251.407565 668.345383,226.214001 C657.1443,214.364117 642.833495,203.805027 630.937417,191.166722 C603.424249,161.936733 592.21302,131.408773 581.605472,117.880548 C568.023905,100.514797 547.373176,83.764199 523.42249,76.5751187 C502.863074,70.4030902 485.212997,73.2707253 470.805807,81.5383728 C460.966812,87.2285319 453.780972,95.1168354 443.558969,100.624499 C444.639508,99.8350539 439.277395,102.303865 438.116957,102.639123 C437.652781,102.772406 434.242488,103.480857 434.612813,103.489059 C433.72251,103.591584 432.824597,103.680781 431.925416,103.742296 C431.368659,103.780231 427.76052,103.700261 427.798567,103.788433 C426.276681,103.659251 424.752258,103.502387 423.226567,103.29016 C422.412358,103.178407 421.595612,103.027695 420.778867,102.893386 C421.008418,102.875957 415.506799,101.528773 414.580985,101.273485 C413.126315,100.872611 411.719838,100.381514 410.284192,99.932453 C415.98873,101.983986 409.442082,99.7366295 408.271498,99.2875683 C404.119284,97.691248 400.208037,95.7596696 396.272692,93.8639752 C395.56121,93.5215404 394.995576,93.2744542 394.556765,93.0601761 C394.084981,92.829494 393.467348,92.4563016 392.575777,91.9611039 C390.064664,90.5616324 387.509164,89.2103477 384.987905,87.830356 C379.940316,85.0703725 374.914286,82.3093637 369.79948,79.6590824 C334.211436,61.3060123 291.190246,48.4790608 254.479812,59.2544793 C225.172086,67.8563595 212.993191,93.3052118 215.608299,118.057917 C217.080724,132.111072 222.433959,146.000186 231.104906,159.444341 C235.137905,165.712743 239.822778,171.788398 244.661109,177.790234 C247.716295,181.578547 250.803188,185.359684 253.933201,189.118264 C254.346647,189.615513 254.662438,189.98768 254.890721,190.268599 C255.040373,190.45212 255.200171,190.647943 255.389139,190.880676 C256.723326,192.513905 258.042294,194.154312 259.347312,195.799844 C264.075305,201.765797 268.591503,207.842476 272.361976,214.124207 C272.264322,214.020656 273.389249,215.896871 273.930787,216.935453 C274.47613,217.984288 275.311899,219.801038 275.238341,219.689285 C276.511653,222.620486 277.565559,225.586546 278.364549,228.555681 C278.289723,228.565934 278.907356,231.542246 278.941598,231.82214 C279.131834,233.446142 279.2929,235.060917 279.366458,236.670566 C279.486941,239.353655 279.344898,241.985482 279.167344,244.62141 C279.138175,245.069446 279.152126,245.418032 279.111542,245.679472 C279.06969,245.940911 278.946671,246.28027 278.832529,246.74471 C278.581418,247.763813 278.384841,248.796243 278.126121,249.813295 C277.343617,252.884956 276.321417,255.884849 275.110249,258.811949 C266.212287,280.322801 244.68901,297.634213 220.980557,311.943682 C191.783168,329.483725 160.376508,345.180363 138.288864,368.630995 C117.846126,390.33562 99.040684,417.823702 96.6551272,447.603227 C93.9055859,481.375091 123.270382,510.166271 155.2338,533.460039 C188.78632,558.05588 227.760561,578.592741 271.796342,593.355372" id="Stroke-5"></path>
            <path d="M294.535353,568.976577 C329.321869,580.698305 366.367119,584.585043 396.29755,570.396554 C426.331976,556.158853 440.006125,531.950558 453.307411,507.090201 C454.786178,504.326117 456.239579,501.563058 458.516067,499.307499 C459.455832,498.370417 460.532567,497.607628 461.53828,496.72796 C461.918751,496.395778 462.162253,496.16202 462.325856,495.987727 C462.587113,495.909808 462.953634,495.785752 463.502781,495.568398 C465.80083,494.660023 467.996151,493.590683 470.50219,493.047299 C470.816714,492.979632 473.888387,492.415742 474.114134,492.354227 C476.218142,491.772908 478.499703,491.69909 480.717852,491.442776 C495.835256,489.676264 511.06807,489.13698 525.631254,486.139138 C557.424728,479.594942 584.759074,467.299072 607.182801,451.40046 C631.106854,434.38022 648.617424,412.384423 661.230057,388.829215 C673.944149,365.142774 683.190877,338.602026 685.287275,311.981309 C687.346895,285.832208 675.643589,260.799609 655.544544,238.073831 C645.938904,227.211266 633.659818,217.034595 622.968567,205.114994 C599.009003,178.405079 588.251803,150.596092 577.96512,137.534357 C565.31444,121.409164 546.454464,105.978068 524.680075,99.2800839 C506.385733,93.6524653 490.452852,95.8916198 477.322778,102.894104 C468.358867,107.674863 461.686664,114.422059 452.389207,119.142328 C453.222439,118.46566 448.53503,120.587936 447.445613,120.872956 C446.99412,120.989835 444.012491,121.596786 444.273748,121.606013 C443.470953,121.69521 442.65928,121.773129 441.848876,121.828493 C441.313679,121.863352 438.160838,121.797735 438.135473,121.87668 C436.764507,121.770053 435.393541,121.640871 434.020039,121.463503 C433.28446,121.370204 432.546345,121.244098 431.808231,121.132346 C431.912226,121.125169 427.101797,119.988162 426.216567,119.770808 C424.900135,119.445803 423.633165,119.020323 422.337025,118.644054 C427.119552,120.415693 421.395992,118.515898 420.291356,118.134503 C416.518346,116.832431 412.981229,115.181772 409.417478,113.588527 C408.777018,113.301456 408.263381,113.094355 407.857545,112.916986 C407.417466,112.726289 406.851831,112.412561 406.050305,111.997333 C403.772548,110.819317 401.447867,109.697689 399.158696,108.547354 C394.574013,106.245659 390.010891,103.952166 385.379284,101.759148 C353.083588,86.60487 314.809415,76.7593568 282.589813,87.0887898 C257.216163,95.2231543 246.445013,117.542932 248.484341,139.420825 C249.625755,151.862281 254.114052,164.169429 261.463494,176.105434 C264.880129,181.676664 268.86113,187.085904 272.975296,192.433628 C275.576454,195.805688 278.190293,199.180824 280.870082,202.523152 C281.221384,202.96196 281.491518,203.293117 281.686827,203.544305 C281.813651,203.708345 281.950621,203.881613 282.111687,204.087689 C283.253102,205.540474 284.372957,207.002486 285.483934,208.469624 C289.514396,213.778389 293.367305,219.185578 296.583558,224.771161 C296.497318,224.710671 297.459911,226.349027 297.92155,227.267655 C298.386993,228.195509 299.10228,229.779527 299.036331,229.71186 C300.121944,232.309853 301.019856,234.938604 301.699632,237.570431 C301.63622,237.610416 302.161271,240.19303 302.190441,240.463697 C302.342629,241.901103 302.488477,243.330307 302.548084,244.756436 C302.649543,247.130924 302.525256,249.4603 302.370531,251.794804 C302.343898,252.188501 302.35658,252.496077 302.321069,252.72881 C302.28429,252.962568 302.177758,253.262967 302.080104,253.671018 C301.864503,254.573242 301.695828,255.487768 301.473886,256.388966 C300.800451,259.108965 299.92283,261.768474 298.884143,264.366467 C291.248078,283.446442 272.820571,298.952382 252.541436,311.914667 C227.562208,327.75689 200.534776,341.957682 181.8904,363.053306 C164.337978,382.914525 147.793805,407.895861 144.958024,434.725731 C141.672017,465.203453 165.726699,491.331024 192.557555,512.827522 C220.834203,535.482558 254.44633,554.740927 294.535353,568.976577" id="Stroke-7"></path>
            <path d="M317.27449,544.596757 C347.784506,555.389605 380.761246,558.634534 407.916771,546.129512 C434.633486,533.828516 447.777511,512.820038 460.515699,491.135918 C461.928517,488.734773 463.310897,486.328502 465.381931,484.343611 C466.232919,483.524433 467.199317,482.848791 468.103571,482.074724 C468.440922,481.784577 468.664132,481.576451 468.821394,481.419587 C469.062359,481.342693 469.389565,481.224788 469.868959,481.031015 C471.903214,480.203636 473.868983,479.300387 476.05289,478.713942 C476.372486,478.62782 478.982521,478.108017 479.233633,478.029072 C481.070042,477.450829 483.094151,477.35343 485.044702,477.074561 C498.359939,475.140932 511.752539,474.22538 524.535116,471.236765 C552.584749,464.679241 576.672404,453.272266 596.266691,439.106333 C617.262381,423.854656 632.790694,404.371756 644.105919,383.566279 C655.579674,362.541397 663.958926,339.107169 666.305168,315.673965 C668.638727,292.360717 659.142156,270.169096 642.743831,249.932635 C634.734904,240.049187 624.478659,230.272366 614.999843,219.063265 C594.564715,194.900081 584.289445,169.784437 574.326163,157.188167 C562.602565,142.301481 545.533342,128.193987 525.935251,121.984024 C509.907251,116.904916 495.714393,118.53507 483.841143,124.24881 C475.765,128.136573 469.591215,133.726257 461.218303,137.660156 C461.806766,137.097292 457.804205,138.902764 456.776932,139.105764 C456.330512,139.193936 453.785157,139.712714 453.936077,139.722967 C453.218254,139.798836 452.495358,139.866502 451.772462,139.913664 C451.258826,139.947498 448.56255,139.89521 448.472505,139.964927 C447.253728,139.880856 446.034951,139.775255 444.814905,139.636846 C444.157958,139.560977 443.507351,139.371305 442.840258,139.37028 C442.816161,139.37028 438.696922,138.447551 437.852275,138.268132 C436.67535,138.01797 435.546618,137.660156 434.389984,137.355656 C438.250502,138.8474 433.351296,137.293115 432.311341,136.981438 C428.922607,135.967462 425.754547,134.602849 422.563659,133.312054 C421.992952,133.081372 421.531313,132.913231 421.155914,132.773796 C420.750078,132.623084 420.235173,132.367795 419.523691,132.034588 C417.47929,131.075976 415.385428,130.18503 413.328345,129.263327 C409.20657,127.420945 405.115232,125.584716 400.959214,123.860239 C371.995181,111.840162 338.440124,105.023249 310.698673,114.925151 C289.264172,122.57457 279.896962,141.780652 281.361778,160.784758 C282.170914,171.612464 285.793003,182.338671 291.82221,192.765503 C294.623749,197.640585 297.899609,202.382384 301.290879,207.077022 C303.435471,210.033854 305.577526,212.999914 307.807089,215.929064 C308.097516,216.308408 308.321994,216.596504 308.48306,216.82001 C308.587056,216.963545 308.701197,217.115283 308.834362,217.294702 C309.781737,218.567042 310.702478,219.851685 311.621951,221.138379 C314.954882,225.790981 318.143234,230.52868 320.805266,235.41709 C320.731709,235.400686 321.529431,236.800158 321.912439,237.59883 C322.297983,238.405705 322.891519,239.758015 322.835716,239.733409 C323.733629,242.000245 324.475549,244.290663 325.03611,246.586206 C324.980308,246.654898 325.415314,248.843815 325.438142,249.105255 C325.55482,250.35709 325.681644,251.600723 325.731105,252.842305 C325.811004,254.907167 325.703204,256.936144 325.572575,258.969223 C325.551015,259.307557 325.559893,259.574123 325.530723,259.779173 C325.500286,259.984224 325.411509,260.245664 325.330342,260.597326 C325.148984,261.383696 325.008209,262.179293 324.82051,262.964637 C324.257412,265.333999 323.525638,267.652098 322.658163,269.91996 C316.286532,286.570083 300.992843,300.309511 284.101173,311.885652 C263.393373,326.077217 240.707121,338.756532 225.492063,357.475617 C210.832493,375.511884 196.547053,397.966995 193.259778,421.847209 C189.438576,449.031816 208.140022,472.535762 229.881436,492.19603 C252.837823,512.954346 281.132226,530.891163 317.27449,544.596757" id="Stroke-9"></path>
            <path d="M340.014896,520.216937 C366.247143,530.082955 395.149033,532.678898 419.535993,521.863495 C442.927386,511.491001 455.543823,493.689518 467.725255,475.181634 C469.06832,473.141379 470.383483,471.092922 472.249062,469.381773 C473.011274,468.677424 473.866066,468.089953 474.668861,467.421488 C474.964361,467.175427 475.167279,466.992931 475.319468,466.852472 C475.536337,466.773527 475.826763,466.66485 476.236404,466.492608 C478.005597,465.747248 479.735475,464.980358 481.604858,464.380585 C481.929527,464.276009 484.077924,463.802341 484.353131,463.703917 C485.929552,463.147204 487.687331,463.006744 489.37282,462.704294 C500.88589,460.604574 512.437007,459.310704 523.440245,456.333367 C547.747306,449.756363 568.587003,439.244435 585.353117,426.812206 C603.417908,413.330117 616.963964,396.358064 626.980513,378.302318 C637.215198,359.941046 644.737122,339.613336 647.32306,319.365597 C649.9369,298.889226 642.663551,279.505776 629.943118,261.792464 C623.538513,252.872756 615.287353,243.523465 607.03112,233.011537 C590.078574,211.426867 580.327088,188.972781 570.68467,176.841977 C559.893227,163.194822 544.610952,150.415032 527.192963,144.688989 C513.426233,140.163519 500.979739,141.179545 490.358241,145.604541 C483.172401,148.599308 477.495765,153.032506 470.048668,156.17901 C470.389824,155.727898 467.050552,157.151976 466.106983,157.339597 C465.674513,157.424693 463.555287,157.828643 463.597138,157.839921 C462.966824,157.902462 462.331436,157.959876 461.696049,157.999861 C461.202704,158.030618 458.964263,157.992684 458.809538,158.053174 C457.744217,157.991659 456.67636,157.913739 455.609772,157.809163 C455.030187,157.752774 454.455675,157.617441 453.869748,157.609239 C453.720096,157.608214 450.294584,156.904889 449.487984,156.76443 C448.453101,156.58501 447.458802,156.298964 446.441675,156.067257 C449.380184,157.278082 445.310406,156.069308 444.330058,155.828373 C441.335746,155.094291 438.531671,154.023926 435.707303,153.035581 C435.210154,152.861288 434.799245,152.733131 434.45682,152.630606 C434.081421,152.519879 433.618514,152.324055 432.997077,152.071843 C431.183496,151.334685 429.324258,150.673396 427.497995,149.980325 C423.840395,148.596232 420.211964,147.224442 416.539145,145.960304 C390.868728,137.125691 362.084784,133.261509 338.810069,142.759461 C321.314718,149.89933 313.351448,166.018371 314.237946,182.147666 C314.716072,191.363673 317.473223,200.507913 322.179657,209.426596 C324.364832,213.604506 326.935551,217.67989 329.606462,221.719391 C331.294487,224.260995 332.964758,226.819003 334.745365,229.333951 C334.971111,229.654856 335.151201,229.900917 335.279293,230.095715 C335.36046,230.219771 335.451774,230.348953 335.557037,230.50069 C336.310371,231.593611 337.033267,232.700885 337.759968,233.807134 C340.394099,237.803574 342.919162,241.871781 345.026975,246.064044 C344.963563,246.090701 345.600219,247.252314 345.904596,247.931032 C346.208973,248.615901 346.682026,249.736504 346.633833,249.755984 C347.342779,251.689613 347.929973,253.643746 348.372588,255.600956 C348.325664,255.700406 348.668088,257.4946 348.68838,257.746813 C348.770815,258.812051 348.876079,259.870113 348.914126,260.928175 C348.972465,262.684435 348.883689,264.411988 348.77462,266.142617 C348.758133,266.425587 348.764474,266.652168 348.740378,266.829537 C348.715013,267.006906 348.643992,267.229386 348.579311,267.522608 C348.430927,268.193125 348.319322,268.870817 348.168402,269.541333 C347.714373,271.558008 347.12591,273.536748 346.432183,275.474478 C341.32245,289.693724 329.135945,301.632806 315.662178,311.855612 C299.186491,324.358584 280.902295,335.58819 269.093725,351.898954 C257.338422,368.136925 245.299033,388.038129 241.561533,408.969712 C237.205134,432.860179 250.553345,453.748702 267.205318,471.563513 C284.842712,490.431261 307.816854,507.039349 340.014896,520.216937" id="Stroke-11"></path>
            <path d="M362.754034,495.838142 C384.70978,504.775281 409.52921,506.71301 431.156483,497.597478 C451.213676,489.143234 463.302527,474.556947 474.933543,459.228376 C476.206854,457.54901 477.458606,455.861442 479.116194,454.419935 C479.790897,453.832465 480.531548,453.331116 481.234152,452.767226 C481.4878,452.564226 481.671695,452.409412 481.815005,452.285357 C482.011582,452.205387 482.262694,452.104912 482.60385,451.9542 C484.107981,451.29086 485.594357,450.635723 487.15429,450.047227 C487.489105,449.921121 489.173326,449.498717 489.47263,449.379787 C490.796671,448.855882 492.284315,448.663135 493.699669,448.336079 C503.416914,446.085646 513.120207,444.391927 522.344107,441.430994 C542.907327,434.826308 560.525698,425.240184 574.438275,414.519104 C589.602604,402.830184 601.138503,388.346423 609.857643,373.039382 C618.851991,357.339669 625.527999,340.117454 628.339684,323.058254 C631.247755,305.41671 626.231872,288.797345 617.143674,273.651269 C612.356073,265.674793 606.073219,256.789943 599.062396,246.959809 C585.535363,227.991586 576.365998,208.1601 567.044444,196.495786 C557.183889,184.088164 543.687294,172.64428 528.449407,167.393955 C516.942678,163.429298 506.24889,163.827096 496.876607,166.960272 C490.583607,169.064093 485.401584,172.337729 478.879033,174.696838 C478.974151,174.358504 476.307045,175.431945 475.438302,175.572405 C475.015978,175.640072 473.327953,175.947648 473.259468,175.956875 C472.719198,176.028643 472.167514,176.052224 471.619635,176.085032 C471.147851,176.113739 469.368512,176.182431 469.147838,176.142446 C468.254998,175.978405 467.31777,176.051198 466.40337,175.982506 C465.902416,175.944572 465.403998,175.849223 464.900507,175.848198 C464.624031,175.848198 461.892245,175.360177 461.123693,175.261753 C460.233389,175.14795 459.372255,174.937773 458.494634,174.778858 C460.511133,175.709789 457.270784,174.842424 456.350043,174.676333 C453.757763,174.207792 451.308794,173.442953 448.853484,172.760133 C448.426088,172.641204 448.068445,172.553032 447.756458,172.487416 C447.412765,172.416673 447.001856,172.28134 446.470464,172.109097 C444.885166,171.593395 443.26182,171.160737 441.670181,170.697323 C438.472951,169.771518 435.308696,168.865194 432.119076,168.06037 C409.732128,162.416347 385.73959,161.452608 366.918929,170.595822 C353.363995,177.181028 346.803397,190.256091 347.114115,203.511599 C347.261231,211.113857 349.172467,218.671003 352.538372,226.086665 C354.117329,229.565351 355.97403,232.976371 357.922045,236.362784 C359.153504,238.489161 360.354526,240.636043 361.681104,242.738838 C361.847243,243.001303 361.980408,243.205329 362.075526,243.37142 C362.133865,243.475996 362.20235,243.582622 362.279713,243.707703 C362.837738,244.62223 363.362788,245.549059 363.896717,246.475889 C365.834585,249.817191 367.695091,253.214883 369.248684,256.709973 C369.197954,256.781741 369.671007,257.703444 369.895485,258.263233 C370.119964,258.827123 370.471266,259.714992 370.43195,259.778558 C370.954465,261.37898 371.385666,262.995805 371.710335,264.615706 C371.671019,264.744888 371.922131,266.14436 371.937349,266.38837 C371.989347,267.267013 372.071783,268.140529 372.094611,269.01302 C372.133926,270.460679 372.062905,271.886807 371.976665,273.317036 C371.963982,273.545668 371.969055,273.731239 371.950032,273.878875 C371.931008,274.028562 371.875206,274.212083 371.827013,274.448916 C371.712871,275.002553 371.629167,275.562342 371.515026,276.115979 C371.172602,277.782017 370.72745,279.420372 370.204936,281.027971 C366.360904,292.81634 357.277779,302.953025 347.221916,311.826598 C334.979608,322.633799 321.141857,332.461883 312.69412,346.32229 C303.869715,360.800926 294.05228,378.110288 289.863288,396.092216 C284.971692,416.688541 292.962863,434.971894 304.5292,450.930996 C316.842528,467.921504 334.502751,483.189585 362.754034,495.838142" id="Stroke-13"></path>
            <path d="M385.493171,471.458322 C403.172418,479.467606 423.897973,480.732769 442.775704,473.331461 C459.488553,466.779064 471.049816,455.421301 482.141831,443.275118 C483.345389,441.956641 484.529924,440.625862 485.982057,439.457072 C486.567983,438.985456 487.19703,438.571253 487.799443,438.115015 C488.009971,437.95405 488.157086,437.809489 488.311811,437.717216 C488.472878,437.619817 488.699892,437.542923 488.970027,437.415792 C490.209096,436.833448 491.445629,436.267507 492.70499,435.71387 C493.046146,435.564183 494.271265,435.198168 494.592129,435.054632 C495.6714,434.571738 496.878763,434.316449 498.026519,433.966838 C505.944133,431.548264 513.803407,429.468024 521.247968,426.527595 C538.064812,419.88395 552.440296,411.210302 563.523433,402.223952 C575.756863,392.30462 585.311773,380.333756 592.733505,367.775421 C600.486248,354.738292 606.339169,340.624647 609.357577,326.749886 C612.578903,311.944194 609.891505,298.028423 604.342961,285.511098 C601.212948,278.448124 596.821038,270.077951 591.093672,260.90808 C580.910985,244.601417 572.40364,227.348445 563.402951,216.148571 C554.472015,204.981505 542.757295,194.884805 529.705851,190.09892 C520.454051,186.706355 511.485067,186.371097 503.393705,188.316003 C498.025251,189.605773 493.307403,191.642952 487.709398,193.214666 C487.557209,192.989111 485.563538,193.709864 484.767084,193.806238 C484.354907,193.85545 483.096814,194.060501 482.920529,194.072804 C482.462695,194.107663 482.003593,194.144572 481.543222,194.170203 C481.091729,194.195834 479.770224,194.212238 479.483602,194.230693 C478.725196,194.27888 477.95918,194.188658 477.196968,194.154824 C476.775913,194.13637 476.354858,194.079981 475.932534,194.087158 C475.527966,194.093309 473.491175,193.810339 472.761938,193.759076 C472.014945,193.706788 471.28444,193.577606 470.546325,193.489434 C471.642083,194.141496 469.233698,193.610414 468.370028,193.523268 C466.186121,193.303864 464.089722,192.859929 461.997129,192.48366 C461.64329,192.420095 461.335108,192.372933 461.056096,192.345251 C460.742841,192.313468 460.382661,192.238625 459.94385,192.145327 C458.58303,191.856205 457.20065,191.649104 455.83983,191.414321 C453.106776,190.946805 450.40416,190.506971 447.699007,190.16146 C428.586651,187.717255 409.381714,189.557586 395.030326,198.431158 C385.391712,204.389934 380.283247,214.494836 379.990284,224.874507 C379.82034,230.865065 380.852686,236.84127 382.897087,242.746733 C383.860948,245.530297 385.012509,248.273877 386.237627,251.006178 C387.01379,252.717327 387.7481,254.448981 388.61938,256.143726 C388.723375,256.346726 388.809615,256.509741 388.870491,256.647125 C388.90727,256.731196 388.954195,256.817317 389.002388,256.914716 C389.365104,257.649824 389.693578,258.398259 390.034734,259.144644 C391.275071,261.829784 392.47102,264.557984 393.470392,267.356927 C393.432345,267.471756 393.741795,268.1556 393.886374,268.596459 C394.030954,269.036293 394.260505,269.693481 394.231335,269.801133 C394.564882,271.068347 395.062032,272.337611 395.045545,273.631481 C395.043008,273.791421 395.177441,274.795145 395.187587,275.030953 C395.212952,275.721974 395.266218,276.410945 395.277632,277.09889 C395.295388,278.237947 395.242122,279.362651 395.179978,280.49043 C395.1711,280.663698 395.173637,280.809284 395.159686,280.929239 C395.147004,281.050219 395.108957,281.194779 395.077251,281.375224 C394.997352,281.811982 394.940281,282.254892 394.864186,282.69165 C394.629562,284.007051 394.330258,285.303997 393.977688,286.582489 C391.39809,295.939981 385.417077,304.265043 378.781653,311.797583 C370.767653,320.898762 361.468928,329.396066 356.297051,340.744602 C350.473299,353.521316 342.80426,368.182446 338.166311,383.214719 C332.736982,400.516904 335.358431,416.20944 341.853081,430.298479 C348.828393,445.425075 361.188647,459.338796 385.493171,471.458322" id="Stroke-15"></path>
            <path d="M408.232309,447.079425 C421.635055,454.158803 438.24898,454.721668 454.394926,449.065342 C467.746942,444.388133 478.780618,436.275299 489.350118,427.321757 C490.482655,426.362119 491.599974,425.390179 492.850457,424.494107 C493.34507,424.139369 493.862511,423.812313 494.364734,423.460651 C494.532141,423.343772 494.669111,423.233045 494.808617,423.148974 C494.955733,423.059777 495.134555,422.981857 495.337473,422.878307 C496.310212,422.373882 497.284219,421.880735 498.25569,421.380411 C498.600651,421.203042 499.375544,420.903668 499.712896,420.7304 C500.555006,420.293642 501.474479,419.970687 502.353369,419.597494 C508.468815,417.006678 514.480266,414.535816 520.153097,411.624095 C533.209614,404.923035 544.346017,397.177242 552.608592,389.929722 C561.907317,381.773827 569.485043,372.320986 575.610635,362.512382 C582.12304,352.136813 587.184581,341.133788 590.374201,330.44244 C593.946829,318.477727 593.728692,307.204035 591.542248,297.370825 C590.167478,291.18957 587.494031,283.391488 583.124949,274.85625 C576.164855,261.253181 568.441282,246.535661 559.762726,235.802278 C551.762676,225.874745 541.813345,217.148809 530.962295,212.803783 C523.956545,209.998688 516.803679,209.148752 509.912071,209.670607 C505.417433,210.010991 501.210686,210.948073 496.539763,211.732392 C496.139,211.619614 494.818763,211.984605 494.098404,212.038943 C493.695104,212.068676 492.868212,212.174277 492.582859,212.189656 C492.211265,212.210161 491.839671,212.236817 491.466809,212.256297 C491.035607,212.278853 490.1694,212.300383 489.821903,212.318838 C489.213149,212.35062 488.600589,212.32704 487.990567,212.328065 C487.648142,212.328065 487.305718,212.311661 486.962025,212.326014 C486.431901,212.34857 485.091373,212.253221 484.397647,212.256297 C483.795233,212.258348 483.197893,212.216312 482.600552,212.200933 C482.771765,212.5731 481.197881,212.367024 480.388744,212.3701 C478.614479,212.377277 476.873187,212.2686 475.14331,212.20811 C474.860492,212.197858 474.600503,212.192731 474.357002,212.201959 C474.071648,212.211186 473.763466,212.199908 473.417237,212.182479 C472.278358,212.12609 471.13948,212.136342 470.00948,212.130191 C467.740601,212.121989 465.497087,212.152746 463.278937,212.261423 C447.438637,213.040616 432.900818,217.500471 423.139186,226.265366 C417.329385,231.482883 413.728855,238.733479 412.866453,246.237312 C412.362962,250.616172 412.529101,255.013486 413.255802,259.407724 C413.600763,261.495141 414.04972,263.570255 414.55321,265.648444 C414.872806,266.945391 415.151819,268.255665 415.556387,269.549535 C415.600775,269.69102 415.641359,269.814051 415.666724,269.922728 C415.681943,269.986294 415.703503,270.050885 415.723795,270.120602 C415.888666,270.681416 416.024367,271.247356 416.172751,271.813296 C416.713021,273.842274 417.651517,275.870226 417.692101,278.002754 C417.695906,278.163719 417.812583,278.606628 417.877264,278.928558 C417.941944,279.246387 418.028184,279.670842 418.029452,279.82258 C418.034525,280.765813 418.3909,281.697769 418.382023,282.646129 C418.379486,282.834775 418.43402,283.444802 418.435289,283.672408 C418.439093,284.176833 418.459385,284.681258 418.459385,285.184657 C418.458117,286.014088 418.421338,286.838392 418.383291,287.664747 C418.37695,287.782651 418.37695,287.887227 418.36934,287.9795 C418.361731,288.072798 418.342707,288.177374 418.324952,288.300404 C418.281832,288.622334 418.251394,288.946314 418.21081,289.267218 C418.086523,290.230957 417.93053,291.187519 417.751708,292.135879 C416.435276,299.063519 413.542424,305.563629 410.342658,311.768466 C406.537942,319.149269 401.971015,326.387561 399.898713,335.167836 C397.267118,346.306194 391.557508,358.252452 386.468066,370.33507 C380.50354,384.345164 377.713415,397.460212 379.176963,409.666885 C380.771139,422.942898 387.873275,435.487904 408.232309,447.079425" id="Stroke-17"></path>
            <path d="M430.97132,422.699707 C459.335476,441.819667 520.032108,399.486934 541.693623,377.635698 C563.356406,355.783436 576.525796,327.852444 578.742677,309.229732 C580.95829,290.60702 558.435641,247.538154 532.219881,235.50885 C506.002852,223.479546 462.126869,233.10463 451.249187,254.10183 C440.371504,275.09903 439.960595,298.269768 443.498981,329.590249 C447.200969,362.349162 386.955831,393.029885 430.97132,422.699707 Z" id="Stroke-19"></path>
        </g>
    </g>
</svg>