<svg xmlns="http://www.w3.org/2000/svg" xmlns:xlink="http://www.w3.org/1999/xlink" width="164" height="51.133" viewBox="0 0 164 51.133">
  <defs>
    <linearGradient id="linear-gradient" x1="0.408" y1="1.065" x2="0.398" y2="-0.338" gradientUnits="objectBoundingBox">
      <stop offset="0" stop-color="#27a284"/>
      <stop offset="0.896" stop-color="#007ba8"/>
      <stop offset="1" stop-color="#007ba8"/>
    </linearGradient>
    <clipPath id="clip-path">
      <rect id="Retângulo_2067" data-name="Retângulo 2067" width="163.999" height="51.133" fill="none"/>
    </clipPath>
    <clipPath id="clip-path-2">
      <path id="Caminho_3509" data-name="Caminho 3509" d="M15.724,20.209a8.881,8.881,0,0,0,17.173,0,12.793,12.793,0,0,0-17.173,0m-4.191,9.473a12.777,12.777,0,0,1,4.191-9.473,9,9,0,0,1-.3-2.275,8.883,8.883,0,0,1,17.767,0,8.563,8.563,0,0,1-.3,2.275,12.78,12.78,0,1,1-21.364,9.473M9.329,1.445A9.323,9.323,0,0,0,0,10.763V40.746a9.324,9.324,0,0,0,9.329,9.32H39.3a9.322,9.322,0,0,0,9.319-9.32V10.763A9.321,9.321,0,0,0,39.3,1.445Z" transform="translate(0 -1.445)" fill="url(#linear-gradient)"/>
    </clipPath>
    <clipPath id="clip-path-4">
      <path id="Caminho_3515" data-name="Caminho 3515" d="M171.31,33.507a12.144,12.144,0,0,1-3.868,3.187,4.148,4.148,0,1,0,5.587-5.912,14.665,14.665,0,0,1-1.719,2.725" transform="translate(-167.442 -30.782)" fill="none"/>
    </clipPath>
    <linearGradient id="linear-gradient-3" x1="-20.767" y1="2.919" x2="-20.643" y2="2.919" gradientUnits="objectBoundingBox">
      <stop offset="0" stop-color="#27a284"/>
      <stop offset="0.996" stop-color="#007ba8"/>
      <stop offset="1" stop-color="#007ba8"/>
    </linearGradient>
  </defs>
  <g id="Grupo_6359" data-name="Grupo 6359" transform="translate(0 0)">
    <g id="Grupo_6321" data-name="Grupo 6321" transform="translate(0 0)">
      <g id="Grupo_6320" data-name="Grupo 6320" clip-path="url(#clip-path)">
        <path id="Caminho_3496" data-name="Caminho 3496" d="M66.358,48.758a2.777,2.777,0,0,1,2.744-2.9,2.3,2.3,0,0,1,2,1.036V43.176h.824v8.338H71.1V50.6a2.267,2.267,0,0,1-1.991,1.036,2.765,2.765,0,0,1-2.756-2.873m4.794-.012a1.916,1.916,0,0,0-1.919-2.108,2.1,2.1,0,0,0,.011,4.205,1.9,1.9,0,0,0,1.908-2.1" transform="translate(-4.35 -2.83)" fill="#040405"/>
        <path id="Caminho_3497" data-name="Caminho 3497" d="M76.448,44.231a.571.571,0,1,1,1.143,0,.571.571,0,1,1-1.143,0M76.6,46.01h.836v5.536H76.6Z" transform="translate(-5.011 -2.862)" fill="#040405"/>
        <path id="Caminho_3498" data-name="Caminho 3498" d="M81.437,48.84a2.68,2.68,0,0,1,2.686-2.791,2.333,2.333,0,0,1,2.037,1.036v-.919h.824v5.311a2.652,2.652,0,0,1-2.909,2.673,2.985,2.985,0,0,1-2.544-1.19l.541-.541a2.389,2.389,0,0,0,2.026.942,1.839,1.839,0,0,0,2.061-1.885V50.6a2.322,2.322,0,0,1-2.026,1.048,2.686,2.686,0,0,1-2.7-2.8m4.769,0a1.877,1.877,0,0,0-1.932-2.014,2.014,2.014,0,0,0,.012,4.027,1.862,1.862,0,0,0,1.919-2.014" transform="translate(-5.339 -3.019)" fill="#040405"/>
        <path id="Caminho_3499" data-name="Caminho 3499" d="M91.5,44.231a.571.571,0,1,1,1.143,0,.571.571,0,1,1-1.143,0m.153,1.779h.836v5.536h-.836Z" transform="translate(-5.998 -2.862)" fill="#040405"/>
        <path id="Caminho_3500" data-name="Caminho 3500" d="M97.689,46.753h-1.4v-.742h1.4V43.679h.836v2.332h1.39v.742h-1.39v4.794h-.836Z" transform="translate(-6.312 -2.863)" fill="#040405"/>
        <path id="Caminho_3501" data-name="Caminho 3501" d="M103.3,48.947a2.777,2.777,0,0,1,2.744-2.9,2.3,2.3,0,0,1,2,1.036v-.919h.824V51.7h-.824v-.919a2.267,2.267,0,0,1-1.991,1.036,2.765,2.765,0,0,1-2.756-2.873m4.794-.012a1.916,1.916,0,0,0-1.919-2.108,2.1,2.1,0,0,0,.011,4.205,1.9,1.9,0,0,0,1.908-2.1" transform="translate(-6.772 -3.019)" fill="#040405"/>
        <rect id="Retângulo_2066" data-name="Retângulo 2066" width="0.824" height="8.338" transform="translate(106.113 40.345)" fill="#040405"/>
        <path id="Caminho_3502" data-name="Caminho 3502" d="M124.747,46.712h-1.39V45.97h1.39v-.942a1.983,1.983,0,0,1,3.4-1.378l-.542.542a1.157,1.157,0,0,0-.872-.365,1.092,1.092,0,0,0-1.154,1.225v.919h1.849v.742h-1.849v4.794h-.836Z" transform="translate(-8.087 -2.822)" fill="#040405"/>
        <path id="Caminho_3503" data-name="Caminho 3503" d="M131.3,44.231a.571.571,0,1,1,1.143,0,.571.571,0,1,1-1.143,0m.153,1.779h.836v5.536h-.836Z" transform="translate(-8.608 -2.862)" fill="#040405"/>
        <path id="Caminho_3504" data-name="Caminho 3504" d="M137.493,46.753h-1.4v-.742h1.4V43.679h.836v2.332h1.39v.742h-1.39v4.794h-.836Z" transform="translate(-8.921 -2.863)" fill="#040405"/>
        <path id="Caminho_3505" data-name="Caminho 3505" d="M143.7,46.167h.824v.813a2.228,2.228,0,0,1,4.04,1.331V51.7h-.824V48.451a1.531,1.531,0,0,0-1.578-1.637,1.575,1.575,0,0,0-1.637,1.626V51.7H143.7Z" transform="translate(-9.42 -3.019)" fill="#040405"/>
        <path id="Caminho_3506" data-name="Caminho 3506" d="M152.68,48.922a2.814,2.814,0,0,1,2.851-2.873,2.543,2.543,0,0,1,2.591,2.685,3.817,3.817,0,0,1-.059.506h-4.535a1.97,1.97,0,0,0,2.085,1.8,2.071,2.071,0,0,0,1.649-.731l.529.542a2.935,2.935,0,0,1-5.111-1.931m.848-.389h3.781a1.711,1.711,0,0,0-1.8-1.719,1.9,1.9,0,0,0-1.979,1.719" transform="translate(-10.009 -3.019)" fill="#040405"/>
        <path id="Caminho_3507" data-name="Caminho 3507" d="M161.838,50.818l.53-.542a2.081,2.081,0,0,0,1.684.79c.731,0,1.178-.294,1.178-.8,0-1.414-3.062-.648-3.062-2.662,0-.942.719-1.554,1.908-1.554a2.291,2.291,0,0,1,1.943.883l-.53.53a1.771,1.771,0,0,0-1.448-.66c-.706,0-1.084.306-1.084.742,0,1.3,3.062.553,3.062,2.65,0,1-.777,1.625-1.99,1.625a2.789,2.789,0,0,1-2.19-1" transform="translate(-10.609 -3.019)" fill="#040405"/>
        <path id="Caminho_3508" data-name="Caminho 3508" d="M169.7,50.818l.53-.542a2.081,2.081,0,0,0,1.684.79c.731,0,1.178-.294,1.178-.8,0-1.414-3.062-.648-3.062-2.662,0-.942.719-1.554,1.908-1.554a2.291,2.291,0,0,1,1.943.883l-.53.53a1.771,1.771,0,0,0-1.448-.66c-.706,0-1.084.306-1.084.742,0,1.3,3.062.553,3.062,2.65,0,1-.777,1.625-1.99,1.625a2.789,2.789,0,0,1-2.19-1" transform="translate(-11.124 -3.019)" fill="#040405"/>
      </g>
    </g>
    <g id="Grupo_6323" data-name="Grupo 6323" transform="translate(0 1.35)">
      <g id="Grupo_6322" data-name="Grupo 6322" clip-path="url(#clip-path-2)">
        <rect id="Retângulo_2068" data-name="Retângulo 2068" width="48.622" height="48.621" transform="translate(0 0)" fill="url(#linear-gradient)"/>
      </g>
    </g>
    <g id="Grupo_6325" data-name="Grupo 6325" transform="translate(0 0)">
      <g id="Grupo_6324" data-name="Grupo 6324" clip-path="url(#clip-path)">
        <path id="Caminho_3510" data-name="Caminho 3510" d="M84.164,10.063l-.244,2.06h-.186a9.717,9.717,0,0,0-7.015-2.481,10.943,10.943,0,0,0-4.42.908,11.507,11.507,0,0,0-3.657,2.514,16.908,16.908,0,0,0-2.708,3.69,18.221,18.221,0,0,0-1.735,4.5,20.856,20.856,0,0,0-.592,4.907,15.261,15.261,0,0,0,.551,4.192,10.458,10.458,0,0,0,1.638,3.39,7.433,7.433,0,0,0,2.887,2.319,9.617,9.617,0,0,0,4.079.827A8.654,8.654,0,0,0,77.3,35.5a13.909,13.909,0,0,0,4.112-4.079h.1l-.64,5.044a6.769,6.769,0,0,0,6.714-5.928L90.14,10.063Zm-1.071,8.75a23.954,23.954,0,0,1-1.014,4.363,17.747,17.747,0,0,1-1.63,3.592,14.13,14.13,0,0,1-2.028,2.644,8.6,8.6,0,0,1-2.238,1.678,5.032,5.032,0,0,1-2.246.567,3.956,3.956,0,0,1-2.319-.673A4.14,4.14,0,0,1,70.174,29.1a7.683,7.683,0,0,1-.478-2.839,15.668,15.668,0,0,1,.52-4.013,14.884,14.884,0,0,1,1.444-3.609,7.975,7.975,0,0,1,2.359-2.636,5.437,5.437,0,0,1,3.155-1,7.872,7.872,0,0,1,2.108.3,9.348,9.348,0,0,1,2.117.884,8.666,8.666,0,0,1,1.833,1.378Z" transform="translate(-4.17 -0.632)" fill="#161615"/>
        <path id="Caminho_3511" data-name="Caminho 3511" d="M109.779,29.672a8.53,8.53,0,0,1-2.482,1.354,9.075,9.075,0,0,1-1.208.317,6.343,6.343,0,0,1-1.151.106,5.843,5.843,0,0,1-1.321-.147,5.133,5.133,0,0,1-1.225-.462A3.982,3.982,0,0,1,101.3,30a5.575,5.575,0,0,1-.835-1.184,5.988,5.988,0,0,1-.559-1.631,9.659,9.659,0,0,1-.2-2.06,13.262,13.262,0,0,1,.576-3.941,10.44,10.44,0,0,1,1.6-3.212,7.616,7.616,0,0,1,2.515-2.149,6.609,6.609,0,0,1,3.211-.794,5.791,5.791,0,0,1,5.15,2.481l4.7-3.462a9.327,9.327,0,0,0-3.982-3.26,14.594,14.594,0,0,0-11.661.13,12.408,12.408,0,0,0-4.46,3.479,16.469,16.469,0,0,0-2.733,5.084,19.182,19.182,0,0,0-.973,6.147q0,5.474,2.959,8.336a11.132,11.132,0,0,0,8.086,2.872,14.09,14.09,0,0,0,6.025-1.233,16.782,16.782,0,0,0,4.946-3.633l-4.695-3.357a9.743,9.743,0,0,1-1.192,1.054" transform="translate(-6.139 -0.632)" fill="#161615"/>
        <path id="Caminho_3512" data-name="Caminho 3512" d="M128.994,9.431,130.17,0l-6.114,1.184-1.038,8.247h-2.855l-.616,5.053h2.83l-1.735,14.029a8.006,8.006,0,0,0,1.038,5.661c.981,1.387,2.579,2.084,4.809,2.084a12.18,12.18,0,0,0,2.255-.211,14.217,14.217,0,0,0,2.335-.633,12.8,12.8,0,0,0,2.158-1.005l-.851-5.149a8.738,8.738,0,0,1-3.844,1.321c-1.419,0-2.011-1.046-1.76-3.122l1.6-12.975h1.461a5.721,5.721,0,0,0,3.8-1.444,5.806,5.806,0,0,0,1.889-3.609Z" transform="translate(-7.837 0)" fill="#161615"/>
        <path id="Caminho_3513" data-name="Caminho 3513" d="M139.554,10.093l-3.285,26.4h5.985l3.285-26.4Z" transform="translate(-8.933 -0.662)" fill="#161615"/>
        <path id="Caminho_3514" data-name="Caminho 3514" d="M170.651,12.5a11.644,11.644,0,0,0-8.272-2.855,13.792,13.792,0,0,0-4.833.844,12.129,12.129,0,0,0-3.949,2.368,15.741,15.741,0,0,0-2.912,3.543,16.036,16.036,0,0,0-1.841,4.412,20.037,20.037,0,0,0-.616,4.955c0,3.512,1.005,6.236,3.016,8.2a11.263,11.263,0,0,0,8.2,2.928,14.38,14.38,0,0,0,6.1-1.265c.219-.1.43-.2.64-.317a4.145,4.145,0,0,1,5.588-5.911,15.9,15.9,0,0,0,1.005-2.465,20.821,20.821,0,0,0,.941-6.375q0-5.206-3.066-8.061m-3.6,12.635a11.3,11.3,0,0,1-1.63,3.316,7.676,7.676,0,0,1-2.563,2.231,6.755,6.755,0,0,1-3.284.819,4.667,4.667,0,0,1-3.893-1.791,7.318,7.318,0,0,1-1.419-4.68,12.218,12.218,0,0,1,.56-3.665,11.688,11.688,0,0,1,1.549-3.2,7.625,7.625,0,0,1,2.474-2.271,6.183,6.183,0,0,1,3.186-.86,7.4,7.4,0,0,1,1.468.147,5.678,5.678,0,0,1,1.492.551,4.517,4.517,0,0,1,1.338,1.062,5.216,5.216,0,0,1,.933,1.751,7.925,7.925,0,0,1,.373,2.539,13.741,13.741,0,0,1-.584,4.046" transform="translate(-9.717 -0.632)" fill="#161615"/>
      </g>
    </g>
    <g id="Grupo_6327" data-name="Grupo 6327" transform="translate(156.466 28.764)">
      <g id="Grupo_6326" data-name="Grupo 6326" clip-path="url(#clip-path-4)">
        <rect id="Retângulo_2070" data-name="Retângulo 2070" width="7.534" height="7.663" transform="translate(0 0)" fill="url(#linear-gradient-3)"/>
      </g>
    </g>
  </g>
</svg>
