<svg xmlns="http://www.w3.org/2000/svg" xmlns:xlink="http://www.w3.org/1999/xlink" width="96.632" height="30.129" viewBox="0 0 96.632 30.129">
	<defs>
		<clipPath id="clip-path">
			<rect id="Retângulo_2067" data-name="Retângulo 2067" width="96.632" height="30.129" fill="none" />
		</clipPath>
		<clipPath id="clip-path-2">
			<path id="Caminho_3509" data-name="Caminho 3509" d="M9.265,12.5a5.233,5.233,0,0,0,10.119,0,7.538,7.538,0,0,0-10.119,0M6.8,18.083A7.528,7.528,0,0,1,9.265,12.5,5.305,5.305,0,0,1,9.09,11.16a5.234,5.234,0,0,1,10.468,0,5.045,5.045,0,0,1-.175,1.341A7.53,7.53,0,1,1,6.8,18.083M5.5,1.445A5.493,5.493,0,0,0,0,6.936V24.6a5.494,5.494,0,0,0,5.5,5.492H23.158A5.493,5.493,0,0,0,28.649,24.6V6.936a5.492,5.492,0,0,0-5.491-5.491Z" transform="translate(0 -1.445)" fill="#fff" />
		</clipPath>
		<clipPath id="clip-path-3">
			<rect id="Retângulo_2069" data-name="Retângulo 2069" width="96.632" height="30.129" fill="#fff" />
		</clipPath>
		<clipPath id="clip-path-4">
			<path id="Caminho_3515" data-name="Caminho 3515" d="M169.721,32.388a7.156,7.156,0,0,1-2.279,1.878,2.444,2.444,0,1,0,3.292-3.484,8.641,8.641,0,0,1-1.013,1.606" transform="translate(-167.442 -30.782)" fill="none" />
		</clipPath>
		<linearGradient id="linear-gradient" x1="-20.767" y1="2.919" x2="-20.643" y2="2.919" gradientUnits="objectBoundingBox">
			<stop offset="0" stop-color="#27a284" />
			<stop offset="0.996" stop-color="#007ba8" />
			<stop offset="1" stop-color="#007ba8" />
		</linearGradient>
	</defs>
	<g id="Grupo_6361" data-name="Grupo 6361" transform="translate(0 0)">
		<g id="Grupo_6321" data-name="Grupo 6321" transform="translate(0 0)">
			<g id="Grupo_6320" data-name="Grupo 6320" clip-path="url(#clip-path)">
				<path id="Caminho_3496" data-name="Caminho 3496" d="M66.358,46.465a1.636,1.636,0,0,1,1.617-1.707,1.356,1.356,0,0,1,1.18.611V43.176h.486v4.913h-.486v-.541a1.336,1.336,0,0,1-1.173.611,1.629,1.629,0,0,1-1.624-1.693m2.825-.007a1.129,1.129,0,0,0-1.131-1.242,1.24,1.24,0,0,0,.007,2.478,1.118,1.118,0,0,0,1.124-1.236" transform="translate(-29.822 -19.404)" fill="#fff" />
				<path id="Caminho_3497" data-name="Caminho 3497" d="M76.448,43.994a.337.337,0,1,1,.673,0,.337.337,0,1,1-.673,0m.09,1.048h.493V48.3h-.493Z" transform="translate(-34.356 -19.618)" fill="#fff" />
				<path id="Caminho_3498" data-name="Caminho 3498" d="M81.437,47.694a1.579,1.579,0,0,1,1.582-1.645,1.375,1.375,0,0,1,1.2.611v-.541h.486v3.13a1.563,1.563,0,0,1-1.714,1.575,1.759,1.759,0,0,1-1.5-.7l.319-.319a1.407,1.407,0,0,0,1.194.555,1.084,1.084,0,0,0,1.215-1.111v-.52a1.368,1.368,0,0,1-1.194.618,1.583,1.583,0,0,1-1.589-1.652m2.81,0a1.106,1.106,0,0,0-1.138-1.187,1.187,1.187,0,0,0,.007,2.373,1.1,1.1,0,0,0,1.131-1.187" transform="translate(-36.598 -20.695)" fill="#fff" />
				<path id="Caminho_3499" data-name="Caminho 3499" d="M91.5,43.994a.337.337,0,1,1,.673,0,.337.337,0,1,1-.673,0m.09,1.048h.493V48.3h-.493Z" transform="translate(-41.121 -19.618)" fill="#fff" />
				<path id="Caminho_3500" data-name="Caminho 3500" d="M97.113,45.49h-.826v-.437h.826V43.679h.493v1.374h.819v.437h-.819v2.825h-.493Z" transform="translate(-43.272 -19.629)" fill="#fff" />
				<path id="Caminho_3501" data-name="Caminho 3501" d="M103.3,47.756a1.636,1.636,0,0,1,1.617-1.707,1.356,1.356,0,0,1,1.18.611v-.541h.486V49.38H106.1v-.541a1.336,1.336,0,0,1-1.173.611,1.629,1.629,0,0,1-1.624-1.693m2.825-.007A1.129,1.129,0,0,0,105,46.507,1.24,1.24,0,0,0,105,48.985a1.118,1.118,0,0,0,1.124-1.236" transform="translate(-46.425 -20.695)" fill="#fff" />
				<rect id="Retângulo_2066" data-name="Retângulo 2066" width="0.486" height="4.913" transform="translate(62.524 23.772)" fill="#fff" />
				<path id="Caminho_3502" data-name="Caminho 3502" d="M124.176,45.208h-.819v-.437h.819v-.555a1.168,1.168,0,0,1,2.006-.812l-.319.319a.682.682,0,0,0-.514-.215.643.643,0,0,0-.68.722v.541h1.09v.437h-1.09v2.825h-.493Z" transform="translate(-55.437 -19.347)" fill="#fff" />
				<path id="Caminho_3503" data-name="Caminho 3503" d="M131.3,43.994a.337.337,0,1,1,.673,0,.337.337,0,1,1-.673,0m.09,1.048h.493V48.3H131.4Z" transform="translate(-59.009 -19.618)" fill="#fff" />
				<path id="Caminho_3504" data-name="Caminho 3504" d="M136.917,45.49h-.826v-.437h.826V43.679h.493v1.374h.819v.437h-.819v2.825h-.493Z" transform="translate(-61.16 -19.629)" fill="#fff" />
				<path id="Caminho_3505" data-name="Caminho 3505" d="M143.7,46.118h.486V46.6a1.313,1.313,0,0,1,2.38.784v2h-.486V47.465a.9.9,0,0,0-.93-.965.928.928,0,0,0-.965.958V49.38H143.7Z" transform="translate(-64.579 -20.695)" fill="#fff" />
				<path id="Caminho_3506" data-name="Caminho 3506" d="M152.68,47.742a1.658,1.658,0,0,1,1.68-1.693,1.5,1.5,0,0,1,1.527,1.582,2.249,2.249,0,0,1-.035.3H153.18a1.161,1.161,0,0,0,1.228,1.062,1.22,1.22,0,0,0,.972-.431l.312.319a1.729,1.729,0,0,1-3.012-1.138m.5-.229h2.228a1.008,1.008,0,0,0-1.062-1.013,1.118,1.118,0,0,0-1.166,1.013" transform="translate(-68.615 -20.695)" fill="#fff" />
				<path id="Caminho_3507" data-name="Caminho 3507" d="M161.838,48.859l.312-.319a1.226,1.226,0,0,0,.992.465c.431,0,.694-.173.694-.472,0-.833-1.8-.382-1.8-1.569,0-.555.423-.916,1.124-.916a1.35,1.35,0,0,1,1.145.52l-.312.312a1.043,1.043,0,0,0-.853-.389c-.416,0-.639.181-.639.437,0,.764,1.8.326,1.8,1.561,0,.59-.458.957-1.173.957a1.643,1.643,0,0,1-1.291-.59" transform="translate(-72.731 -20.695)" fill="#fff" />
				<path id="Caminho_3508" data-name="Caminho 3508" d="M169.7,48.859l.312-.319a1.226,1.226,0,0,0,.992.465c.431,0,.694-.173.694-.472,0-.833-1.8-.382-1.8-1.569,0-.555.423-.916,1.124-.916a1.35,1.35,0,0,1,1.145.52l-.312.312a1.043,1.043,0,0,0-.853-.389c-.416,0-.639.181-.639.437,0,.764,1.8.326,1.8,1.561,0,.59-.458.957-1.173.957a1.643,1.643,0,0,1-1.291-.59" transform="translate(-76.264 -20.695)" fill="#fff" />
			</g>
		</g>
		<g id="Grupo_6323" data-name="Grupo 6323" transform="translate(0 0.796)">
			<g id="Grupo_6322" data-name="Grupo 6322" clip-path="url(#clip-path-2)">
				<rect id="Retângulo_2068" data-name="Retângulo 2068" width="28.649" height="28.649" transform="translate(0 0)" fill="#fff" />
			</g>
		</g>
		<g id="Grupo_6325" data-name="Grupo 6325" transform="translate(0 0)">
			<g id="Grupo_6324" data-name="Grupo 6324" clip-path="url(#clip-path-3)">
				<path id="Caminho_3510" data-name="Caminho 3510" d="M75.719,9.89,75.575,11.1h-.11a5.725,5.725,0,0,0-4.133-1.462,6.448,6.448,0,0,0-2.6.535,6.78,6.78,0,0,0-2.155,1.481,9.962,9.962,0,0,0-1.6,2.174,10.736,10.736,0,0,0-1.022,2.652,12.289,12.289,0,0,0-.349,2.891,8.992,8.992,0,0,0,.325,2.47,6.162,6.162,0,0,0,.965,2,4.38,4.38,0,0,0,1.7,1.367A5.667,5.667,0,0,0,69,25.7a5.1,5.1,0,0,0,2.676-.817,8.2,8.2,0,0,0,2.423-2.4h.062l-.377,2.972a3.988,3.988,0,0,0,3.956-3.493L79.24,9.89Zm-.631,5.156a14.115,14.115,0,0,1-.6,2.571,10.457,10.457,0,0,1-.96,2.116,8.326,8.326,0,0,1-1.195,1.558,5.069,5.069,0,0,1-1.319.989,2.965,2.965,0,0,1-1.324.334,2.331,2.331,0,0,1-1.367-.4,2.439,2.439,0,0,1-.851-1.108,4.527,4.527,0,0,1-.282-1.673,9.232,9.232,0,0,1,.306-2.365,8.77,8.77,0,0,1,.851-2.126,4.7,4.7,0,0,1,1.39-1.553,3.2,3.2,0,0,1,1.859-.587,4.638,4.638,0,0,1,1.242.177,5.508,5.508,0,0,1,1.247.521,5.107,5.107,0,0,1,1.08.812Z" transform="translate(-28.585 -4.333)" fill="#fff" />
				<path id="Caminho_3511" data-name="Caminho 3511" d="M103.154,21.444a5.026,5.026,0,0,1-1.462.8,5.347,5.347,0,0,1-.712.187,3.737,3.737,0,0,1-.678.062,3.443,3.443,0,0,1-.779-.086,3.025,3.025,0,0,1-.722-.272,2.346,2.346,0,0,1-.64-.492,3.285,3.285,0,0,1-.492-.7,3.528,3.528,0,0,1-.329-.961,5.691,5.691,0,0,1-.119-1.214,7.814,7.814,0,0,1,.339-2.322,6.151,6.151,0,0,1,.941-1.892,4.487,4.487,0,0,1,1.482-1.266,3.894,3.894,0,0,1,1.892-.468,3.412,3.412,0,0,1,3.034,1.462l2.771-2.04a5.5,5.5,0,0,0-2.346-1.921,8.6,8.6,0,0,0-6.871.077,7.311,7.311,0,0,0-2.628,2.05,9.7,9.7,0,0,0-1.61,3,11.3,11.3,0,0,0-.573,3.622,6.536,6.536,0,0,0,1.744,4.912,6.559,6.559,0,0,0,4.764,1.692,8.3,8.3,0,0,0,3.55-.726,9.889,9.889,0,0,0,2.914-2.141l-2.766-1.978a5.741,5.741,0,0,1-.7.621" transform="translate(-42.087 -4.333)" fill="#fff" />
				<path id="Caminho_3512" data-name="Caminho 3512" d="M125.114,5.557,125.806,0l-3.6.7-.612,4.86H119.91l-.363,2.977h1.667L120.192,16.8a4.717,4.717,0,0,0,.612,3.336,3.226,3.226,0,0,0,2.833,1.228,7.177,7.177,0,0,0,1.329-.124,8.377,8.377,0,0,0,1.376-.373,7.541,7.541,0,0,0,1.271-.592l-.5-3.034a5.149,5.149,0,0,1-2.265.779c-.836,0-1.185-.616-1.037-1.84l.941-7.645h.861a3.371,3.371,0,0,0,2.241-.851,3.421,3.421,0,0,0,1.113-2.126Z" transform="translate(-53.725 0)" fill="#fff" />
				<path id="Caminho_3513" data-name="Caminho 3513" d="M138.2,10.093l-1.935,15.558H139.8l1.935-15.558Z" transform="translate(-61.24 -4.536)" fill="#fff" />
				<path id="Caminho_3514" data-name="Caminho 3514" d="M161.441,11.323a6.861,6.861,0,0,0-4.874-1.682,8.126,8.126,0,0,0-2.848.5,7.147,7.147,0,0,0-2.327,1.4,9.275,9.275,0,0,0-1.716,2.088,9.449,9.449,0,0,0-1.085,2.6,11.807,11.807,0,0,0-.363,2.92,6.432,6.432,0,0,0,1.777,4.831,6.636,6.636,0,0,0,4.831,1.725,8.473,8.473,0,0,0,3.593-.746c.129-.057.253-.119.377-.187a2.442,2.442,0,0,1,3.293-3.483,9.37,9.37,0,0,0,.592-1.452,12.268,12.268,0,0,0,.554-3.756,6.173,6.173,0,0,0-1.807-4.749m-2.121,7.445a6.658,6.658,0,0,1-.96,1.954,4.523,4.523,0,0,1-1.51,1.314,3.98,3.98,0,0,1-1.935.482,2.75,2.75,0,0,1-2.294-1.055,4.312,4.312,0,0,1-.836-2.757,7.2,7.2,0,0,1,.33-2.159,6.887,6.887,0,0,1,.913-1.883,4.493,4.493,0,0,1,1.457-1.338,3.643,3.643,0,0,1,1.878-.507,4.361,4.361,0,0,1,.865.086,3.346,3.346,0,0,1,.879.325,2.662,2.662,0,0,1,.788.626,3.074,3.074,0,0,1,.549,1.032,4.67,4.67,0,0,1,.22,1.5,8.1,8.1,0,0,1-.344,2.384" transform="translate(-66.615 -4.333)" fill="#fff" />
			</g>
		</g>
		<g id="Grupo_6327" data-name="Grupo 6327" transform="translate(92.193 16.948)">
			<g id="Grupo_6326" data-name="Grupo 6326" clip-path="url(#clip-path-4)">
				<rect id="Retângulo_2070" data-name="Retângulo 2070" width="4.439" height="4.515" transform="translate(0 0)" fill="url(#linear-gradient)" />
			</g>
		</g>
	</g>
</svg>
