<svg xmlns="http://www.w3.org/2000/svg" width="36" height="39.6" viewBox="0 0 36 39.6">
  <path id="Caminho_3530" data-name="Caminho 3530" d="M20,33.4a1.8,1.8,0,1,0-1.8-1.8A1.8,1.8,0,0,0,20,33.4Zm9,0a1.8,1.8,0,1,0-1.8-1.8A1.8,1.8,0,0,0,29,33.4Zm0-7.2a1.8,1.8,0,1,0-1.8-1.8A1.8,1.8,0,0,0,29,26.2Zm-9,0a1.8,1.8,0,1,0-1.8-1.8A1.8,1.8,0,0,0,20,26.2ZM32.6,4.6H30.8V2.8a1.8,1.8,0,1,0-3.6,0V4.6H12.8V2.8a1.8,1.8,0,1,0-3.6,0V4.6H7.4A5.4,5.4,0,0,0,2,10V35.2a5.4,5.4,0,0,0,5.4,5.4H32.6A5.4,5.4,0,0,0,38,35.2V10A5.4,5.4,0,0,0,32.6,4.6Zm1.8,30.6A1.8,1.8,0,0,1,32.6,37H7.4a1.8,1.8,0,0,1-1.8-1.8V19H34.4Zm0-19.8H5.6V10A1.8,1.8,0,0,1,7.4,8.2H9.2V10a1.8,1.8,0,1,0,3.6,0V8.2H27.2V10a1.8,1.8,0,1,0,3.6,0V8.2h1.8A1.8,1.8,0,0,1,34.4,10ZM11,26.2a1.8,1.8,0,1,0-1.8-1.8A1.8,1.8,0,0,0,11,26.2Zm0,7.2a1.8,1.8,0,1,0-1.8-1.8A1.8,1.8,0,0,0,11,33.4Z" transform="translate(-2 -1)" fill="#fff"/>
</svg>