<svg xmlns="http://www.w3.org/2000/svg" width="33.649" height="37.214" viewBox="0 0 33.649 37.214">
  <g id="_01.GRAFIK" data-name="01.GRAFIK" transform="translate(-3.625 1.88)">
    <path id="Caminho_3533" data-name="Caminho 3533" d="M8.053,29.894a1.39,1.39,0,0,0-1.39,1.39V38.93a1.39,1.39,0,1,0,2.78,0V31.284A1.39,1.39,0,0,0,8.053,29.894Zm9.272-5.1a1.39,1.39,0,0,0-1.39,1.39V38.944a1.39,1.39,0,0,0,2.78,0V26.182A1.39,1.39,0,0,0,17.325,24.792Zm9.286-7.66a1.39,1.39,0,0,0-1.39,1.39V38.93a1.39,1.39,0,1,0,2.78,0V18.523A1.39,1.39,0,0,0,26.611,17.133Zm9.272-5.1a1.39,1.39,0,0,0-1.39,1.39V38.93a1.39,1.39,0,1,0,2.78,0V13.421A1.39,1.39,0,0,0,35.883,12.031Zm.07-8.911L30.559,4.343l.959,1.029A204.349,204.349,0,0,1,4.272,26.363a1.39,1.39,0,0,0,1.487,2.349A207.13,207.13,0,0,0,33.409,7.429l.931.987Z" transform="translate(0 -5)" fill="#fff"/>
  </g>
</svg>
