<svg xmlns="http://www.w3.org/2000/svg" width="39" height="39" viewBox="0 0 39 39">
  <g id="Layer_2" data-name="Layer 2" transform="translate(-0.107 -0.107)">
    <g id="people">
      <rect id="Retângulo_2137" data-name="Retângulo 2137" width="39" height="39" transform="translate(0.107 0.107)" fill="#fff" opacity="0"/>
      <path id="Caminho_3531" data-name="Caminho 3531" d="M13.438,16.071A6.536,6.536,0,1,0,6.9,9.536a6.536,6.536,0,0,0,6.536,6.536Zm13.071,3.268a4.9,4.9,0,1,0-4.9-4.9A4.9,4.9,0,0,0,26.509,19.339Zm6.536,11.438a1.634,1.634,0,0,0,1.634-1.634,8.17,8.17,0,0,0-13.169-6.454A11.438,11.438,0,0,0,2,30.777a1.634,1.634,0,0,0,1.634,1.634H23.241a1.634,1.634,0,0,0,1.634-1.634" transform="translate(1.268 1.902)" fill="#fff"/>
    </g>
  </g>
</svg>
