<svg xmlns="http://www.w3.org/2000/svg" width="24.659" height="41.099" viewBox="0 0 24.659 41.099">
  <g id="Page-1" transform="translate(0 0)">
    <g id="Dribbble-Light-Preview">
      <g id="icons">
        <path id="phone-_225_" data-name="phone-[#225]" d="M348.549,7005.165a2.055,2.055,0,0,0-2.055-2.055H334.165a2.055,2.055,0,0,0-2.055,2.055v28.769a2.056,2.056,0,0,0,2.055,2.056h12.329a2.056,2.056,0,0,0,2.055-2.056Zm4.11-2.055v32.879a4.11,4.11,0,0,1-4.11,4.109H332.11a4.11,4.11,0,0,1-4.11-4.109V7003.11a4.11,4.11,0,0,1,4.11-4.11h16.439A4.11,4.11,0,0,1,352.659,7003.11Zm-10.231,26.714a2.055,2.055,0,1,1-2.055-2.055A2.055,2.055,0,0,1,342.427,7029.824Z" transform="translate(-328 -6999)" fill="#fff" fill-rule="evenodd"/>
      </g>
    </g>
  </g>
</svg>
