<svg xmlns="http://www.w3.org/2000/svg" width="33.649" height="41" viewBox="0 0 33.649 41">
  <path id="Caminho_3532" data-name="Caminho 3532" d="M56.046,41H46.324a.427.427,0,0,1-.424-.424V30.406a2.138,2.138,0,0,1,2.138-2.138h7.936C56,41.272,55.9,40.624,56.046,41ZM68.618,19V40.576a.427.427,0,0,1-.424.424H57.255a.427.427,0,0,1-.424-.424V19a2.138,2.138,0,0,1,2.138-2.138h7.519A2.136,2.136,0,0,1,68.618,19Zm10.931,6.687V40.576a.427.427,0,0,1-.424.424H69.395c.144-.376.048.488.08-17.449h7.944A2.141,2.141,0,0,1,79.549,25.689ZM66.776,7.671a.393.393,0,0,0-.12.376l.44,2.571a1.278,1.278,0,0,1-1.858,1.353l-2.314-1.209a.441.441,0,0,0-.4,0L60.21,11.972a1.276,1.276,0,0,1-1.353-.1,1.258,1.258,0,0,1-.5-1.257l.44-2.571a.435.435,0,0,0-.12-.376L56.807,5.846a1.292,1.292,0,0,1-.328-1.313,1.275,1.275,0,0,1,1.033-.873L60.1,3.291a.427.427,0,0,0,.32-.232L61.579.721A1.273,1.273,0,0,1,63.87.713l1.153,2.338a.436.436,0,0,0,.32.232l2.587.368a1.28,1.28,0,0,1,.7,2.186Z" transform="translate(-45.9)" fill="#fff"/>
</svg>
